<?xml version="1.0" encoding="utf-8"?>
<!-- Generator: Adobe Illustrator 17.0.0, SVG Export Plug-In . SVG Version: 6.00 Build 0)  -->
<!DOCTYPE svg PUBLIC "-//W3C//DTD SVG 1.1//EN" "http://www.w3.org/Graphics/SVG/1.1/DTD/svg11.dtd">
<svg version="1.1" id="Layer_1" xmlns="http://www.w3.org/2000/svg" xmlns:xlink="http://www.w3.org/1999/xlink" x="0px" y="0px"
	 width="309.172px" height="38.891px" viewBox="0 0 309.172 38.891" enable-background="new 0 0 309.172 38.891"
	 xml:space="preserve">
<g>
	<g>
		<path fill="#ECE9DC" d="M95.002,14.893c-3.089-4.959-13.913-7.551-16.697-0.962c-2.197,5.199,3.401,11.91,8.678,8.179
			c1.977-1.398,2.857-4.317,1.172-6.178c-2.154-2.38-3.201,2.156-4.294,2.837c-0.097,0.06-0.173,0.13-0.24,0.204
			c-0.562,0.164-1.127,0.336-1.678,0.592c-0.028,0.013-0.049,0.031-0.073,0.047c-0.541-0.24-1.066-0.538-1.629-0.708
			c-0.986-1.94-0.559-4.727,1.232-5.952c3.159-2.161,8.258-0.452,10.822,1.866c5.299,4.79-1.096,11.431-5.973,12.919
			c-3.893,1.188-8.231,0.95-12.232,0.677c-5.459-0.373-10.894-1.029-16.278-2.003c-9.445-1.709-18.154-6.007-27.338-8.654
			C23.618,15.78,14.8,14.429,7.997,17.362c-5.201,2.242-8.911,7.127-7.799,12.973c0.997,5.238,6.853,6.063,11.088,4.721
			c3.757-1.191,6.137-4.378,4.868-8.278c-1.286-3.952-5.635-3.183-7.645-0.478c-0.153,0.206-0.049,0.431,0.129,0.552
			c-0.364,1.407,0.49,2.455,2.018,2.986c0.775,0.269,1.594,0.39,2.376,0.638c0.084,0.027,0.144,0.057,0.192,0.083
			c-0.15,0.248-0.424,0.669-0.47,0.851c-0.033,0.132-0.023,0.259,0.004,0.382c-0.465,0.558-0.986,1.078-1.532,1.607
			c-3.383,1.498-7.825,0.94-9.368-2.825c-1.41-3.441,0.626-7.417,3.106-9.733c3.55-3.316,8.959-3.622,13.536-3.482
			c9.664,0.296,18.72,4.394,27.689,7.573c9.018,3.196,18.394,4.485,27.9,5.213c6.421,0.493,15.039,0.709,19.554-4.787
			C96.12,22.346,97.157,18.351,95.002,14.893z"/>
		<path fill="#ECE9DC" d="M214.17,14.893c3.089-4.959,13.913-7.551,16.697-0.962c2.197,5.199-3.401,11.91-8.678,8.179
			c-1.977-1.398-2.857-4.317-1.172-6.178c2.154-2.38,3.201,2.156,4.294,2.837c0.097,0.06,0.173,0.13,0.24,0.204
			c0.562,0.164,1.127,0.336,1.678,0.592c0.028,0.013,0.049,0.031,0.073,0.047c0.541-0.24,1.066-0.538,1.629-0.708
			c0.986-1.94,0.559-4.727-1.232-5.952c-3.159-2.161-8.258-0.452-10.822,1.866c-5.299,4.79,1.096,11.431,5.973,12.919
			c3.893,1.188,8.231,0.95,12.232,0.677c5.459-0.373,10.894-1.029,16.278-2.003c9.445-1.709,18.154-6.007,27.338-8.654
			c6.857-1.976,15.675-3.328,22.478-0.395c5.201,2.242,8.911,7.127,7.799,12.973c-0.997,5.238-6.853,6.063-11.088,4.721
			c-3.757-1.191-6.137-4.378-4.868-8.278c1.286-3.952,5.635-3.183,7.645-0.478c0.153,0.206,0.049,0.431-0.129,0.552
			c0.364,1.407-0.49,2.455-2.018,2.986c-0.775,0.269-1.594,0.39-2.376,0.638c-0.084,0.027-0.144,0.057-0.192,0.083
			c0.15,0.248,0.424,0.669,0.47,0.851c0.033,0.132,0.023,0.259-0.004,0.382c0.465,0.558,0.986,1.078,1.532,1.607
			c3.383,1.498,7.825,0.94,9.368-2.825c1.41-3.441-0.626-7.417-3.106-9.733c-3.55-3.316-8.959-3.622-13.536-3.482
			c-9.664,0.296-18.72,4.394-27.689,7.573c-9.018,3.196-18.394,4.485-27.9,5.213c-6.421,0.493-15.039,0.709-19.554-4.787
			C213.052,22.346,212.015,18.351,214.17,14.893z"/>
	</g>
	<path fill="#EBE2C4" d="M162.77,4.071c-2.227,2.055-4.045,5.32-5.173,8.653c-0.512-3.191-2.05-6.159-4.543-8.691
		c-3.371-3.423-8.85-5.268-13.321-3.1c-5.032,2.44-4.337,9.424-2.58,13.592c3.726,8.833,12.857,14.251,16.957,22.939
		c0.175,0.37,0.422,0.611,0.701,0.746c0.442,0.947,1.89,0.857,2.461,0.03c1.406-2.041,2.345-4.412,3.818-6.477
		c2.078-2.914,4.29-5.73,6.357-8.652c3.082-4.356,7.381-10.554,5.359-16.168C171.037,2.035,166.589,0.546,162.77,4.071z"/>
</g>
</svg>
