<?xml version="1.0" encoding="utf-8"?>
<!-- Generator: Adobe Illustrator 17.0.0, SVG Export Plug-In . SVG Version: 6.00 Build 0)  -->
<!DOCTYPE svg PUBLIC "-//W3C//DTD SVG 1.1//EN" "http://www.w3.org/Graphics/SVG/1.1/DTD/svg11.dtd">
<svg version="1.1" id="Layer_1" xmlns="http://www.w3.org/2000/svg" xmlns:xlink="http://www.w3.org/1999/xlink" x="0px" y="0px"
	 width="480px" height="460px" viewBox="0 0 480 460" enable-background="new 0 0 480 460" xml:space="preserve">
<g>
	<path fill="#5D7A60" d="M144.761,290.889c1.864,0.238,6.884-3.103,9.138-4.523c3.321-2.092,4.987-2.849,8.77-3.844
		c6.121-1.611,12.664-3.514,17.256-8.263c4.579-4.736,7.905-9.229,7.908-16.09c0.003-7.044-5.879-16.648-10.363-21.786
		c-4.108-4.708-9.07-7.715-15.36-9.284c-3.124-0.779-6.573-1.309-9.664-1.723c-3.872-0.518-4.781,0.293-7.337,3.751
		c-4.562,6.174-5.38,15.751-6.824,23.178c-1.665,8.564-1.64,16.281,1.392,24.629c0.942,2.595,2.388,4.681,2.613,7.564
		c0.066,0.845-0.716,1.778-0.475,2.605c0.529,1.811,0.963,2.988,2.655,3.948c0.492-0.39,0.874-1.072,1.07-1.771"/>
	<path fill="#7B987F" d="M133.557,373.289c-4.194-4.103-13.352-5.797-18.799-7.193c-4.041-1.036-6.121-1.614-9.36-4.427
		c-2.965-2.575-4.895-2.995-8.28-4.675c-14.511-7.202-19.816-26.489-12.487-39.928c2.772-5.084,7.576-11.937,12.026-15.845
		c3.028-2.659,6.554-4.782,9.75-7.005c3.838-2.669,5.285-4.14,6.833-8.239c5.368-14.215,12.183-27.887,18.97-41.483
		c3.464-6.94,8.62-16.654,16.513-18.31c-3.205,5.4-6.769,11.245-6.343,17.904c0.116,1.803,0.925,3.105,0.937,4.999
		c0.014,2.165-0.892,4.364-0.811,6.662c0.065,1.852,0.934,2.896,0.363,4.673c-0.425,1.32-2.106,2.324-2.617,3.647
		c-2.868,7.437,6.099,19.373,6.55,27.304c0.194,3.417-0.468,8.873-1.051,12.428c-0.51,3.109-3.459,5.822-3.933,8.667
		c-0.465,2.791,1.054,6.211,0.895,9.198c-0.166,3.123,0.928,4.585,1.396,7.636c0.549,3.576-1.84,5.334-3.215,8.125
		c-1.304,2.647-0.978,5.619-1.609,8.608c-0.994,4.703-3.702,9.441-4.462,14.011c-0.339,2.042,0.372,4.055,0.306,6.077
		c-0.091,2.792-1.854,5-1.645,7.724"/>
	<path fill="#5D7A60" d="M198.096,235.601c-0.846,2.869-17.393-10.405-19.679-13.07c-3.076-3.586-3.971-7.779-6.453-11.635
		c-2.441-3.793-5.417-7.162-7.538-10.956c-4.265-7.63-10.518-9.651-16.239-15.282c-4.408-4.339-10.069-12.611-15.897-14.786
		c8.217-1.852,16.569-3.28,24.76-5.16c9.068-2.081,15.986,0.312,23.661,4.986c8.495,5.173,14.865,13.312,20.865,21.298
		c2.495,3.32,4.339,5.657,4.43,9.708c0.091,4.074,0.259,7.927,0.489,11.734c0.474,7.834-3.072,18.714-7.422,24.431"/>
	<path fill="#7B987F" d="M221.412,450.504c0.505,0.825-0.608,1.97,1.02,1.378c-0.833-13.982-2.925-32.443,1.073-46.543
		c2.101-7.408,7.573-11.202,10.672-17.955c3.129-6.818,2.662-15.847,2.601-23.052c-0.071-8.435-2.021-16.656-2.331-24.997
		c-0.267-7.159,4.593-13.276,5.206-19.806c0.79-8.423-4.29-16.096-7.111-23.884c-3.332-9.198-1.348-14.819,3.397-22.779
		c6.405-10.745,29.87-21.206,41.271-12.009c6.136,4.95,7.429,20.937,8.351,27.981c2.304,17.613,8.265,33.733,15.888,50.29
		c2.638,5.73,5.084,9.821,4.641,15.514c-0.167,2.147-2.061,5.844-2.379,8.378c-0.831,6.611,0.94,13.635-1.866,20.209
		c-2.455,5.751-8.186,11.567-11.436,16.831c-3.274,5.302-6.605,12.035-11.646,16.081c-5.027,4.035-9.606,5.54-13.826,10.862
		c-3.386,4.269-5.742,10.311-11.316,12.571c-5.559,2.254-12.161-0.548-17.964,2.186c-5.799,2.733-9.139,8.447-14.325,11.611
		c0.034-1.255,1.205-1.509,2.322-2.577"/>
	<path fill="#5D7A60" d="M233.196,292.89c3.902,5.364,2.999,12.55,6.016,18.598c3.62,7.259,9.325,11.659,15.582,16.27
		c11.385,8.39,18.338,20.584,32.02,25.824c15.212,5.826,26.808,12.573,40.413,21.583c10.503,6.956,30.965,10.11,43.475,10.525
		c8.485,0.281,17.064-2.025,25.534-4.376c3.678-1.021,8.205-4.1,11.661-4.749c4.136-0.776,7.627,1.602,11.563,0.878
		c-5.609-6.724-8.059-9.428-8.604-18.29c-0.523-8.495-1.387-11.334-5.799-18.921c-7.8-13.411-18.403-29.656-31.085-38.759
		c-7.327-5.258-11.529-8.273-16.934-15.986c-4.887-6.974-8.989-12.96-16.183-17.776c-9.381-6.279-24.957-7.557-35.815-9.788
		c-13.135-2.699-25.287,1.561-37.005,8.091c-13.072,7.284-22.667,17.43-34.502,25.778c0.73,0.791,0.305,1.036,0.152,1.731"/>
	<path fill="#7B987F" d="M219.714,207.305c-8.498,1.806-18.414-26.369-19.378-33.301c-2.108-15.148,6.677-27.724,11.155-41.466
		c2.192-6.727-1.011-13.607,1.537-20.376c2.432-6.46,9.877-11.59,14.194-16.963c9.285-11.554,16.87-24.986,27.475-35.115
		c8.768-8.374,18.363-14.801,25.441-24.678c6.239-8.706,4.122-20.393,9.935-28.777c4.548,5.311,8.981,9.91,13.515,14.706
		c6.307,6.673,4.449,13.024,7.598,20.26c5.1,11.718,15.626,24.568,16.229,37.109c0.708,14.749-8.264,24.122-9.053,38.077
		c-0.888,15.686-6.083,25.076-15.936,36.575c-6.863,8.009-14.229,15.805-20.351,23.749c-3.524,4.573-5.288,6.352-10.5,8.582
		c-3.807,1.629-9.186,2.149-12.637,4.423c-7.044,4.64-9.651,13.962-17.752,18.541c-6.128,3.464-19.053,5.789-24.263-1.137
		c0.623-0.601,1.391-0.882,2.303-0.844"/>
	<path fill="#7B987F" d="M254.389,239.158c5.469-4.439,20.754-3.179,27.818-3.299c8.387-0.142,15.102-0.14,23.087-3.834
		c14.176-6.557,27.798-15.712,42.23-21.515c33.918-13.637,64.601,5.058,98.623,6.085c8.259,0.249,18.531-3.132,26.228-1.44
		c-10.299-12.739-21.524-25.598-34.172-34.995c-7.944-5.902-17.47-9.922-25.811-15.452c-6.46-4.282-12.337-9.604-19.864-11.119
		c-3.694-0.744-7.217,0.249-10.918-0.984c-2.328-0.775-5.462-3.611-7.125-3.998c-2.432-0.566-4.022,0.36-6.889,0.191
		c-6.208-0.365-13.171-0.213-19.4-0.187c-9.207,0.039-9.369,2.892-16.843,6.947c-6.567,3.563-12.751,2.478-18.636,7.28
		c-7.013,5.722-10.475,10.541-19.009,14.642c-8.108,3.897-16.357,9.313-21.382,16.721c-4.522,6.666-6.396,14.95-10.377,22.005
		c-4.279,7.582-8.4,13.042-8.38,22.373c1.278-0.672,2.445-1.505,3.5-2.499"/>
	<g>
		<g>
			<path fill="#CA9440" d="M142.182,260.041c5.196-0.221,10.583-2.773,15.933-2.087c4.845,0.621,10.387,2.534,14.842,4.49
				c10.404,4.568,19.362,11.048,27.845,18.481c0.442-0.282,0.792-0.541,1.171-0.905c-2.565-4.736-9.302-7.937-13.383-10.918
				c-4.715-3.444-9.233-5.834-14.544-8.356c-4.809-2.284-11.185-4.124-16.362-4.2c-2.628-0.039-5.433,0.186-8.063,0.661
				c-2.16,0.39-6.454,2.226-7.367,2.274L142.182,260.041z"/>
			<path fill="#CA9440" d="M212.031,260.214c-6.163-4.818-9.321-11.811-11.647-19.19c-2.487-7.891-5.416-13.442-9.779-20.357
				c-4.23-6.704-7.324-14.105-12.734-20.486c-4.909-5.79-10.212-12.018-15.771-17.136c-3.14-2.891-6.802-5.3-10.178-7.811
				c-3.054-2.272-7.308-3.682-9.879-6.482c4.121,0.082,5.317,0.728,8.295,3.665c2.696,2.659,5.894,4.048,8.893,6.274
				c5.149,3.822,9.037,8.693,13.708,13.185c9.949,9.566,18.628,22.09,24.723,34.489c2.718,5.528,5.228,11.122,7.387,16.959
				c2.345,6.34,5.076,9.96,9.041,15.732c-1.435,0.401-3.516,0.295-2.865,0.771"/>
			<path fill="#CA9440" d="M203.705,289.37c-0.395-0.025-3.249-0.143-3.784,1.001c-1.075,2.299,1.632,1.608,2.809,2.139
				c2.738,1.237,5.761,2.001,8.78,2.358c6.339,0.75,12.892,0.022,19,0.613c6.463,0.626,12.551-1.011,18.964-0.991
				c7.553,0.024,14.744,2.6,22.143,3.198c14.272,1.153,29.647,7.973,42.245,14.49c3.301,1.708,6.884,3.114,10.306,4.5
				c4.055,1.642,6.969,4.077,10.631,6.427c7.031,4.512,14.658,8.228,21.537,12.698c6.855,4.455,14.355,8.02,20.957,12.742
				c2.959,2.116,5.693,4.934,8.669,6.804c2.278,1.431,7.258,1.278,8.972,3.117c-2.318-2.846-5.913-3.228-8.893-5.149
				c-2.695-1.737-4.233-4.744-7.115-6.331c-5.75-3.168-11.079-6.267-16.558-9.935c-11.088-7.423-24.47-13.66-35.561-20.863
				c-6.236-4.05-13.259-7.715-19.879-11.069c-3.019-1.53-7.234-3.449-10.318-4.21c-2.916-0.719-6.237,0.032-9.237-1.314
				c-5.053-2.267-5.896-3.189-11.508-3.13c-4.496,0.048-7.235-2.307-11.559-1.935c-1.748,0.15-3.678,0.422-5.44,0.185
				c-2.376-0.32-4.109-1.764-6.239-2.032c-3.216-0.404-6.943,0.923-10.062,0.673c-6.762-0.542-13.64-0.255-20.382-0.96
				c-3.495-0.365-7.149,0.63-10.553,0.077c-3.15-0.512-6.652-2.296-9.922-3.074c0.6,0.603,1.3,1.073,2.099,1.41"/>
			<path fill="#CA9440" d="M219.171,238.035c-3.95-5.11-6.369-13.457-4.384-20.73c1.7-6.229,5.911-13.5,8.648-19.55
				c5.839-12.906,16.326-23.259,23.579-35.102c7.256-11.849,14.754-23.41,21.831-35.078c7.289-12.019,11.117-29.053,14.343-42.966
				c1.074-4.632,0.64-9.783,2.023-14.174c0.323,16.734-1.945,24.168-9.558,47.026c-0.987,2.965-3.637,6.277-4.81,9.32
				c-1.293,3.354-4.651,5.617-5.87,8.873c-1.5,4.004-3.08,6.703-5.84,10.289c-2.087,2.712-3.943,5.138-5.739,8.102
				c-2.059,3.398-2.945,6.914-5.31,10.157c-1.95,2.674-4.445,5.19-6.451,7.994c-3.937,5.504-7.491,11.84-11.057,17.103
				c-3.296,4.864-7.619,11.76-8.928,17.385c-0.77,3.312-0.398,6.014-1.282,9.325c-0.905,3.387-1.478,6.035-1.416,9.443
				c0.07,3.866,1.069,5.282,2.197,8.561c1.749,5.084-1.22,4.582-3.859,0.928"/>
			<path fill="#CA9440" d="M213.415,273.797c-1.249,7.034,13.174-2.81,15.541-3.427c6.676-1.739,13.943,2.905,19.156,6.379
				c0.55-0.304,1.057-0.662,1.485-1.134c-3.807-3.457-12.288-7.97-17.7-7.854c-6.862,0.147-10.883,5.799-18.115,5.185
				c-0.081,0.572-0.663,1.238-0.756,1.656"/>
			<path fill="#CA9440" d="M220.971,252.812c8.551,3.536,17.94-3.896,26.219-8.579c10.345-5.852,19.541-13.857,29.919-19.682
				c7.596-4.263,15.388-7.622,23.752-10.268c8.841-2.796,17.131-6.434,26.267-8.391c10.433-2.235,20.833-4.948,31.652-4.954
				c9.704-0.006,18.735-2.759,28.272-2.414c-2.318-0.685-4.647,0.478-7.017,0.315c-2.144-0.148-4.132-1.257-6.257-1.399
				c-3.811-0.253-7.481,1.357-11.331,1.704c-8.272,0.745-16.047,0.211-24.111,2.648c-7.043,2.129-14.352,3.261-21.096,5.579
				c-3.299,1.133-6.824,1.954-10.161,3.151c-3.524,1.264-6.666,3.492-10.215,4.455c-13.828,3.75-26.321,11.16-38.386,19.004
				c-6.444,4.19-13.349,7.236-19.534,12.038c-5.476,4.251-12.485,5.732-19.419,4.915c-0.523,1.501-0.206,1.981,1.513,2.797
				c0.614-0.351,1.176-0.772,1.689-1.264"/>
		</g>
	</g>
	<path fill="#5D7A60" d="M117.214,453.03l-8.991-1.792c0,0,3.49-9.49,4.107-11.675c0.935-3.315,2.014-6.835,3.113-9.863
		c1.09-3.002,0.544-4.321,2.315-7.459c6.795-12.039,13.36-22.082,9.416-36.401c1.066-0.878,2.002-1.748,2.854-2.653
		c-0.054,0.484,0.04,1.338-0.009,1.823c0.807-0.814,2.988-1.522,3.531-2.595c0.917-1.811-0.277-2.634,0.066-4.268
		c0.568-2.711,2.987-4.96,4.371-7.138c3.181-5.006,6.444-10.083,7.65-15.623c0.593-2.723,1.778-6.12,3.301-8.623
		c2.046-3.361,3.119-6.189,4.989-9.393c1.685-2.887,5.204-5.576,6.468-8.513c1.103-2.564-0.78-6.347,0.934-8.45
		c0.453-0.555,0.745-1.022,1.482-1.434c0.33,1.231,1.258,2.148,1.859,2.998c2.024-9.783,10.68-15.818,17.117-22.372
		c3.972-4.044,6.461-6.78,11.846-9.531c2.313-1.182,4.912-2.748,5.925-4.954c0.901-1.961-0.392-3.907,2.474-5.655
		c-0.196-2.443,0.295-5.03,2.911-6.096c-0.022,0.874-1.192,5.04,1.183,4.099c1.861-0.737,1.435-4.604,2.208-6.308
		c0.583-1.284,1.962-2.898,2.126-4.322c0.221-1.917-1.328-2.976-1.367-4.545c-0.08-3.222,0.318-0.409,1.665-2.932
		c1.197-2.243,3.22-3.897,0.602-6.668c2.308-0.246,2.763,2.314,3.585,4.115c-0.495-4.722,3.84-7.859,3.657-12.787
		c-0.17-4.569-1.027-7.72,3.204-10.97c2.893,4.93-1.402,11.147-1.415,15.679c1.12-0.55,2.414-1.159,3.603-1.694
		c1.733,2.213-1.354,1.641-1.841,3.243c0.016-0.053-1.005,0.559-1.17,1.118c-0.204,0.69,1.705,1.507,1.483,2.189
		c-1.16,3.562-5.141,3.644-6.268,7.475c-0.784,2.664-0.111,5.808-0.389,8.482c-0.316,3.037-1.22,5.016-3.393,7.557
		c-2.242,2.622-5.107,4.314-6.993,7.291c-1.715,2.707-2.513,6.847-4.913,8.854c-2.486,2.078-4.776,2.443-7.103,5.072
		c-2.179,2.462-5.556,2.702-7.512,5.306c-1.871,2.49,0.301,4.111-0.848,6.757c-0.267,0.614-3.093,3.291-3.625,3.791
		c-2.104,1.967-5.728,2.2-7.722,4.062c-1.987,1.854-4.017,7.012-4.41,9.705c-0.63,4.306,0.331,4.741-3.124,7.069
		c-6.666,4.491-8.62,10.608-11.611,17.674c-0.796,1.88-0.663,3.899-1.256,5.74c-0.81,2.515-1.636,2.518-2.955,4.553
		c-1.84,2.839-2.138,6.364-4.039,9.091c-4.049,5.81-7.583,13.223-8.703,20.215c-0.816,5.092-0.751,9.949-2.586,14.873
		c-1.135,3.047-1.996,5.526-3.96,8.082c-2.179,2.836-4.627,4.449-2.569,8.335c-5.812,2.029-8.763,14.245-5.747,19.599
		c-2.1,2.689-2.245,3.321-3.026,6.478L117.214,453.03z"/>
	<path fill="#7B987F" d="M150.922,166.042c-2.831,2.184-18.362,5.055-21.354,6.216c-6.916,2.684-14.19,8.247-20.336,12.164
		c-3.795,2.419-6.017,6.649-10.12,8.703c-4.153,2.079-8.946,1.459-13.313,2.68c-10.184,2.848-18.838,5.524-29.659,2.504
		c-8.39-2.341-17.023-0.361-24.9-4.155c-7.977-3.842-15.415-9.01-23.616-11.638c7.605-1.289,11.234-12.06,15.4-17.361
		c5.647-7.185,12.899-11.517,20.574-16.488c9.284-6.013,14.206-15.213,26.651-12.981c4.963,0.89,9.35,3.096,14.163,4.268
		c4.117,1.002,7.486,0.389,11.494,2.325c6.053,2.923,11.568,6.471,17.227,9.857c4.73,2.831,8.586,4.225,13.593,6.177
		c4.47,1.742,8.876,3.578,13.373,5.219C142.216,164.302,150.922,166.042,150.922,166.042z"/>
	<path fill="#5D7A60" d="M200.973,196.372c-1.825-2.013-1.666-5.923-2.908-8.439c-0.93-1.884-1.844-3.287-2.419-5.371
		c-1.159-4.203-4.414-7.59-4.842-12.104c-0.398-4.202-0.895-7.437-2.891-11.342c-1.071-2.095-4.071-6.577-0.974-8.188
		c1.919,2.72,3.508,6.948,4.56,10.119c0.726,2.189,1.254,4.037,2.272,6.17c1.233,2.583,1.776,4.736,2.602,7.449
		c0.764,2.512,2.116,4.898,2.894,7.447c0.849,2.783,1.177,5.761,1.97,8.458c0.316,1.073,1.982,2.857,1.492,4.094
		c-0.575,1.449-1.77,1.033-3.208,1.706"/>
	<g>
		<path fill="#EAE1C3" d="M192.967,123.656c1.068-2.603,7.495-3.151,9.805-3.739c9.011-2.297,18.018-3.66,26.805,0.207
			c2.633,1.159,5.326,2.132,7.798,3.642c3.738,2.283,0.818,4.27-2.479,3.956c-6.581-0.627-12.504,2.987-17.542,6.799
			c-3.324,2.515-6.759,5.947-11.007,6.712c1.541-0.277,5.159,2.555,6.376,3.414c1.93,1.363,3.693,2.925,5.377,4.578
			c3.651,3.586,7.298,7.416,9.889,11.859c1.683,2.886,3.108,6.715,6.768,7.497c-4.091,7.738-16.215-1.041-21.625-2.589
			c-3.73-1.067-7.562-1.734-11.284-2.829c-3.732-1.098-6.751-2.808-9.906-5.019c-2.67,2.497-5.435,4.597-8.69,6.28
			c-3.364,1.74-6.593,3.381-9.263,6.139c-2.461,2.543-12.301,9.683-15.46,11.445c-2.927,1.632,1.022-4.38,0-7.249
			c-2.895-8.128,9.881-19.83,2.087-26.554c-6.435-5.551-14.759-9.174-22.439-12.562c-3.425-1.511-6.554-0.869-10.132-0.637
			c-4.486,0.291-8.471-1.426-8.222-6.562c2.549-1.48,2.112,1.395,3.675,1.592c2.241,0.283,4.62-2.134,6.463-3.133
			c2.351-1.275,4.858-2.201,7.461-2.813c5.197-1.223,10.516-2.403,15.868-1.5c2.296,0.387,4.537,1.073,6.707,1.91
			c2.059,0.794,4.029,1.762,6.063,2.605c0.062-2.082-1.452-3.263-2.131-5.093c-1.321-3.561,3.412-7.246,0.806-10.41
			c-0.902-1.095-3.478-1.899-2.65-3.665c1.042-2.22,5.498-2.237,7.445-2.064c2.749,0.244,5.652,1.076,8.181,2.181
			c4.513,1.971,5.703,6.885,8.706,10.34c1.979,2.277,4.525,4.017,7.324,5.128"/>
		<g>
			<g>
				<path fill="#CA9440" d="M191.469,132.191c0.379-1.994,4.794-0.526,3.604,1.815c1.735,1.153,3.837,3.596,1.117,4.973
					c-1.57,0.795-4.932,0.747-4.768-1.74c-0.008,0.116-1.199-0.614-1.294-0.749c-0.308-0.436-0.303-1.045-0.278-1.553
					c0.066-1.321,0.776-2.802,1.971-3.444"/>
				<path fill="#CA9440" d="M189.684,142.685c-0.349-3.168,7.917-1.694,7.108,0.399c-0.334,0.863-2.365,1.247-3.166,1.335
					c0.359,2.505-2.01,5.411-4.536,3.335c-1.609-1.322-1.757-4.638,0.803-4.788"/>
				<path fill="#CA9440" d="M182.606,144.902c0.03-0.042-0.767-0.15,0.032-0.403c1.945,0.718,2.967,2.592,4.07,4.241
					c1.218,1.82-3.272,1.23-3.953,0.887c-1.44-0.724-2.3-1.031-3.929-1.091c-1.284-0.048-3.199-0.209-3.252-1.927
					c-0.102-3.28,6.411-2.6,8.012-1.563"/>
				<path fill="#CA9440" d="M175.008,135.287c4.165,2.727,0.11,9.623-2.962,6.568c-0.664-0.661-2.141-4.664-2.024-5.472
					C170.499,133.116,172.501,133.889,175.008,135.287"/>
				<path fill="#CA9440" d="M177.447,135.675c1.673,1.985,3.887-0.879,3.877-2.52c-0.011-1.684-1.675-4.571-3.621-3.144
					C176.072,131.206,176.267,134.275,177.447,135.675z"/>
			</g>
		</g>
		<path fill="#F7B164" d="M193.895,103.795c-0.148,0.654-1.835,2.048-2.202,2.917c-0.784,1.858-0.116,3.841-0.034,5.765
			c0.071,1.651,0.141,3.301,0.201,4.953c0.114,3.105,0.217,6.217,0.114,9.324c-0.141,4.288-0.492,9.822-3.87,12.958
			c-2.297,2.132-5.841,2.205-7.454-0.763c-2.245-4.132,0.09-10.062,1.547-14.045c2.75-7.517,6.079-14.837,9.089-22.253
			C191.287,102.65,195.257,97.762,193.895,103.795z"/>
	</g>
	<g>
		<path fill="#EAE1C3" d="M240.667,233.048c1.311-4.342-10.206-17.047-12.901-21.648c-4.415-7.537-9.695-10.916-15.888-17.115
			c-7.616-7.625-12.527-9.18-23.11-12.2c-3.847-1.098-8.354-3.593-12.45-3.541c-5.349,0.067-7.06,2.827-11.674-1.046
			c-2.135,6.407,6.687,8.528,10.365,12.204c4.14,4.136,8.313,11.23,10.643,16.522c4.92,11.177,4.525,28.435,12.08,37.222
			c-13.812-4.469-26.125-2.958-39.887-0.978c-6.636,0.955-13.161,1.783-19.738,4.116c-5.759,2.043-12.957,7.46-18.817,3.393
			c-7.535,14.108,27.969,19.612,36.676,23.333c14.842,6.343,26.713,14.942,42.893,14.481c-1.163,5.31,2.015,10.326,3.142,14.984
			c1.456,6.02,4.171,9.163,6.693,14.876c2.45,5.55,1.543,12.386,2.397,18.167c0.699,4.734-0.012,12.839,1.384,17.017
			c2.597,7.775,11.587,5.71,16.308,0.96c4.196-4.221,6.764-10.778,9.328-16.151c5.033-10.55,9.534-25.325,21.798-25.683
			c16.99-0.496,34.478,4.383,50.67,8.813c9.493,2.597,12.99,8.438,19.721,14.498c5.461,4.917,12.826,4.311,17.845-2.513
			c-2.089-5.514-5.038-0.499-7.712-2.165c-3.643-2.271-3.706-7.843-5.108-11.753c-3.152-8.792-9.467-15.266-14.976-22.784
			c-10.362-14.14-26.324-20.342-42.784-23.39c2.366-3.543,6.658-3.31,10.012-5.422c4.863-3.064,3.792-3.564,5.654-8.406
			c2.026-5.267,2.593-9.813,8.567-10.431c2.212-0.229,1.451,4.046,4.843,2.629c2.705-1.13,2.474-4.011,1.973-6.309
			c-1.069-4.906-7.371-6.459-10.92-9.55c-8.733-7.605-15.487-11.12-27.686-5.964c-10.482,4.431-19.252,6.148-30.362,2.651"/>
		<g>
			<g>
				<path fill="#CA9440" d="M232.225,248.184c1.654-3.065-6.739-7.359-7.805-1.743c-15.586-3.508-7.949,15.573,1.255,10.519
					c0.11-0.642-0.253-1.144-0.202-1.778c0.893,1.109,2.016,1.337,2.801,2.578c2.873-2.636,6.032-6.913,4.286-11.104"/>
				<path fill="#CA9440" d="M221.755,266.721c3.118-3.075-7.116-10.705-10.918-9.382c-0.729,2.9,0.067,5.806,2.871,7.122
					c-5.842,0.84-2.862,10.022,1.571,10.974c4.39,0.943,10.233-6.366,5.797-8.542"/>
				<path fill="#CA9440" d="M229.942,279.09c0.006-0.103,1.38,0.735,0.458-0.666c-3.932-1.343-7.888,0.285-11.687,1.452
					c-1.402,5.802,6.618,10.618,9.784,5.411c0.636,4.79,8.737,10.857,10.989,3.554c1.471-4.771-7.922-10.406-11.245-10.766"/>
				<path fill="#CA9440" d="M255.049,272.732c-9.904-1.024-13.496,15.817-4.876,14.952c1.865-0.187,9.208-4.537,10.044-5.939
					c3.382-5.67-0.701-6.996-6.354-7.99"/>
				<path fill="#CA9440" d="M250.59,257.975c8.168,0.323,7.313,14.323-1.001,13.305c-3.883-0.475-4.975-3.677-3.934-6.98
					c1.378-4.374,5.258-3.661,7.992-5.655"/>
			</g>
		</g>
		<path fill="#F7B164" d="M269.089,207.756c1.552-1.042,3.822-0.988,4.252-3.214c0.453-2.343-1.022-5.555-3.614-5.859
			c-2.171-0.255-5.724,1.326-5.848,3.887c-0.091,1.88,0.678,3.947,0.142,5.789c-0.74,2.541-2.449,4.793-3.976,6.965
			c-4.059,5.774-6.942,7.015-12.405,11.043c-5.041,3.718-7.655,10.104-10.663,15.555c-4.082,7.397-16.542,26.274-4.801,31.725
			c10.831,5.028,18.687-12.056,21.618-19.41c3.592-9.012,6.21-18.596,7.58-27.878c0.63-4.269,2.121-8.532,4.063-12.379
			C266.458,211.961,267.102,209.103,269.089,207.756z"/>
	</g>
</g>
</svg>
