<?xml version="1.0" encoding="utf-8"?>
<!-- Generator: Adobe Illustrator 17.0.0, SVG Export Plug-In . SVG Version: 6.00 Build 0)  -->
<!DOCTYPE svg PUBLIC "-//W3C//DTD SVG 1.1//EN" "http://www.w3.org/Graphics/SVG/1.1/DTD/svg11.dtd">
<svg version="1.1" id="Layer_1" xmlns="http://www.w3.org/2000/svg" xmlns:xlink="http://www.w3.org/1999/xlink" x="0px" y="0px"
	 width="138px" height="44px" viewBox="0 0 138 44" enable-background="new 0 0 138 44" xml:space="preserve">
<g>
	<g>
		<path fill-rule="evenodd" clip-rule="evenodd" fill="#908F87" d="M81.663,21.517c-0.904,0-7.546-0.015-8.54,6.913
			c0,0,0.015,3.901,3.599,3.57c0,0-1.566-1.702-1.566-3.645c0-4.518,4.639-5.633,4.639-5.633c0.236,0,0.471,0.206,0.633,0.389
			l-3.178,9.25c-8.539,2.033-11.265,11.537-6.883,11.537c3.841,0,5.934-2.937,7.064-4.789c0.465-0.762,2.578-6.62,2.578-6.62
			c0.968-3.272,3.265-10.67,3.265-10.67S82.41,21.517,81.663,21.517z M70.624,42.904c-0.813,0-1.295-0.979-1.295-1.837
			c0-0.858,2.199-6.07,7.365-7.335C76.693,33.732,74.6,42.904,70.624,42.904z"/>
		<path fill-rule="evenodd" clip-rule="evenodd" fill="#908F87" d="M65.307,35.403c0.633-1.762,3.705-12.2,3.705-12.2l-3.731,0.407
			v0.452l1.111,0.045l-0.687,2.832c-0.28-0.046-0.579-0.075-0.895-0.075c-1.581,0-6.822,2.485-6.822,8.856
			c0,0,0.181,2.666,1.897,2.666c1.717,0,3.344-2.44,3.344-2.44s-0.271,2.44,1.13,2.44c1.401,0,2.123-1.581,2.123-1.581
			S64.675,37.165,65.307,35.403z M60.789,36.759c-1.401-0.045,0.233-4.086,1.672-6.868c1.355-2.621,2.801-1.898,2.801-1.898
			C64.268,32.105,62.55,36.815,60.789,36.759z"/>
		<path fill-rule="evenodd" clip-rule="evenodd" fill="#908F87" d="M16.193,35.9c0.509-2.109,3.931-13.058,3.931-13.058l-2.44,0.407
			l-1.85,6.107h-4.623c0.968-3.272,1.819-6.514,1.819-6.514l-2.44,0.407l-1.898,6.1c-8.54,2.033-10.302,11.477-6.461,11.477
			c3.84,0,5.512-2.937,6.642-4.789c0.465-0.762,1.251-3.153,2.015-5.677c1.894-0.016,3.931-0.028,4.589,0l-1.453,4.864
			c0,0-0.858,3.163,0.859,3.163c1.717,0,3.073-1.762,2.937-2.531C17.82,35.855,15.877,37.211,16.193,35.9z M2.367,40.012
			c-0.813,0-1.175-0.859-1.175-1.717c0-0.859,1.536-6.009,7.003-7.817C8.196,30.479,6.343,40.012,2.367,40.012z"/>
		<path fill-rule="evenodd" clip-rule="evenodd" fill="#908F87" d="M25.185,26.81c-0.813,0-6.1,1.409-6.1,7.69
			c0,0,0.045,3.931,2.847,3.931c2.801,0,6.1-4.931,6.1-8.365C28.031,30.066,28.122,26.81,25.185,26.81z M25.23,30.252
			c0,5.061-2.259,6.868-2.937,6.868c-0.678,0-0.813-2.078-0.813-2.078c0-4.293,2.033-6.713,2.801-6.745
			C25.5,28.246,25.23,30.252,25.23,30.252z"/>
		<path fill-rule="evenodd" clip-rule="evenodd" fill="#908F87" d="M88.079,26.81c-0.814,0-6.1,1.409-6.1,7.69
			c0,0,0.045,3.931,2.847,3.931c2.801,0,6.1-4.931,6.1-8.365C90.926,30.066,91.016,26.81,88.079,26.81z M88.124,30.252
			c0,5.061-2.259,6.868-2.937,6.868c-0.678,0-0.814-2.078-0.814-2.078c0-4.293,2.033-6.713,2.801-6.745
			C88.395,28.246,88.124,30.252,88.124,30.252z"/>
		<path fill-rule="evenodd" clip-rule="evenodd" fill="#908F87" d="M124.949,26.81c-0.813,0-6.1,1.409-6.1,7.69
			c0,0,0.045,3.931,2.847,3.931c2.801,0,6.1-4.931,6.1-8.365C127.795,30.066,127.885,26.81,124.949,26.81z M124.994,30.252
			c0,5.061-2.259,6.868-2.937,6.868c-0.678,0-0.813-2.078-0.813-2.078c0-4.293,2.033-6.713,2.801-6.745
			C125.264,28.246,124.994,30.252,124.994,30.252z"/>
		<path fill-rule="evenodd" clip-rule="evenodd" fill="#908F87" d="M43.439,26.322c0,0-2.123-1.491-6.009,6.687l-0.09-5.738
			l-2.033,0.226l-3.479,6.823c0,0,1.988-7.726-1.085-7.726c-0.858,0-2.44,0.678-2.44,1.401c0,0,1.627-0.452,1.627,0.813
			c0,1.265-0.362,9.398-0.362,9.398h2.169l3.027-7.049v7.049h2.033C36.797,38.205,39.056,29.891,43.439,26.322z"/>
		<path fill-rule="evenodd" clip-rule="evenodd" fill="#908F87" d="M48.047,35.403c0.633-1.762,2.305-7.817,2.305-7.817
			s-1.22-0.723-2.801-0.723c-1.581,0-6.823,2.485-6.823,8.856c0,0,0.181,2.666,1.898,2.666c1.717,0,3.343-2.44,3.343-2.44
			s-0.271,2.44,1.13,2.44c1.401,0,2.124-1.581,2.124-1.581S47.415,37.165,48.047,35.403z M43.529,36.759
			c-1.401-0.045,0.233-4.086,1.672-6.868c1.356-2.621,2.802-1.898,2.802-1.898C47.008,32.105,45.29,36.815,43.529,36.759z"/>
		<path fill-rule="evenodd" clip-rule="evenodd" fill="#908F87" d="M59.253,29.484l0.723-1.943
			c-1.898-1.807-4.518,2.033-4.518,2.033l0.497-2.575l-3.55,0.452v0.452l1.11,0.045l-3.208,10.166h2.214
			c2.44-8.359,5.015-9.127,5.512-9.127C58.53,28.988,59.253,29.484,59.253,29.484z"/>
		<path fill-rule="evenodd" clip-rule="evenodd" fill="#908F87" d="M110.942,28.807c0.542-1.747-0.813-1.657-0.813-1.657
			c-1.988,0-4.187,2.425-4.187,2.425l0.497-2.274l-3.734,0.452v0.452l1.294,0.045l-3.208,9.865h2.214
			c2.44-8.359,4.43-8.66,4.927-8.66c0.512,0,0.148,0.979,0.148,0.979s-1.205,3.524-1.898,5.874c0,0-0.632,2.41,0.844,2.44
			c0,0,1.265,0.422,2.892-1.717c0,0-1.988,0.663-1.386-0.874L110.942,28.807z"/>
		<path fill-rule="evenodd" clip-rule="evenodd" fill="#908F87" d="M137.57,28.807c0.542-1.747-0.814-1.657-0.814-1.657
			c-1.988,0-4.187,2.425-4.187,2.425l0.497-2.274l-3.734,0.452v0.452l1.294,0.045l-3.208,9.865h2.214
			c2.44-8.359,4.431-8.66,4.927-8.66c0.512,0,0.148,0.979,0.148,0.979s-1.205,3.524-1.898,5.874c0,0-0.633,2.41,0.843,2.44
			c0,0,1.265,0.422,2.892-1.717c0,0-1.988,0.663-1.386-0.874L137.57,28.807z"/>
		<path fill-rule="evenodd" clip-rule="evenodd" fill="#908F87" d="M99.646,27.15c-1.988,0-4.187,2.425-4.187,2.425l1.822-6.431
			l-3.734,0.452v0.452l1.294,0.045l-4.533,14.022h2.214c2.44-8.359,4.43-8.66,4.927-8.66c0.512,0,0.148,0.979,0.148,0.979
			s-1.205,3.524-1.898,5.874c0,0-0.633,2.41,0.843,2.44c0,0,1.265,0.422,2.892-1.717c0,0-1.988,0.663-1.386-0.874l2.41-7.35
			C101.002,27.059,99.646,27.15,99.646,27.15z"/>
		<path fill-rule="evenodd" clip-rule="evenodd" fill="#908F87" d="M116.695,26.999c-1.265,0-3.986,0.392-4.036,3.223
			c-0.03,1.687,1.416,3.434,1.898,4.308c0.482,0.874,0.512,1.416,0.512,1.837c0,0-0.09,1.235-1.115,1.235
			c-1.024,0-1.416-1.325-1.416-2.831c0,0-1.476,0.874-1.476,2.108c0,1.235,1.807,1.597,2.892,1.597c1.085,0,3.476-0.302,3.434-2.802
			c-0.03-1.807-1.566-4.006-2.019-4.91c-0.452-0.904-0.964-2.651,0.663-2.651c1.627,0,1.747,2.681,1.747,2.681
			s0.994-0.904,0.994-2.47C118.774,27.029,116.695,26.999,116.695,26.999z"/>
	</g>
	<polygon fill-rule="evenodd" clip-rule="evenodd" fill="#908F87" points="66.664,41.97 66.376,40.524 6.268,40.524 6.268,41.97 
		66.664,41.97 	"/>
	<polygon fill-rule="evenodd" clip-rule="evenodd" fill="#908F87" points="135.793,41.97 135.793,40.524 78.745,40.524 
		77.879,41.97 135.793,41.97 	"/>
	<g>
		<path fill="#908F87" d="M100.047,13.335C89.966,1.744,76.378,0.059,70.517,0.103C54.518,0.223,45.932,7.35,40.301,13.345
			l-0.858,0.913h19.323l11.325-6.549l11.154,6.549h19.71L100.047,13.335z M81.539,13.173L70.091,6.454l-11.618,6.719H41.972
			c8.033-8.152,17.137-11.96,28.545-11.96c10.428,0,19.543,3.916,27.827,11.96H81.539z"/>
		<path fill="#908F87" d="M94.586,12.292h-4.397l2.409-1.559l-7.952,1.446l4.157-4.247l-7.591,3.705l3.795-5.874l-6.145,4.609
			l2.259-6.145l-4.609,4.789l0.723-5.693l-3.072,4.518l-0.723-5.06l-1.897,3.343l-1.451-3.343h-0.085L68.47,6.125l-1.898-3.343
			l-0.723,5.06l-3.073-4.518L63.5,9.017l-4.609-4.789l2.259,6.145l-6.145-4.609l3.795,5.874L51.21,7.932l4.157,4.247l-7.952-1.446
			l2.409,1.559h-4.036c0,0,8.038-9.782,24.303-9.782C86.357,2.51,94.586,12.292,94.586,12.292z"/>
		<path fill="#908F87" d="M45.788,12.292h4.036l-2.409-1.559l7.952,1.446L51.21,7.932l7.591,3.705l-3.795-5.874l6.145,4.609
			l-2.259-6.145L63.5,9.017l-0.723-5.693l3.073,4.518l0.723-5.06l1.898,3.343l1.536-3.343h0.085l1.451,3.343l1.897-3.343l0.723,5.06
			l3.072-4.518l-0.723,5.693l4.609-4.789l-2.259,6.145l6.145-4.609l-3.795,5.874l7.591-3.705l-4.157,4.247l7.952-1.446l-2.409,1.559
			h4.397c0,0-8.228-9.782-24.494-9.782C53.826,2.51,45.788,12.292,45.788,12.292z"/>
	</g>
	<g>
		<path fill-rule="evenodd" clip-rule="evenodd" fill="#908F87" d="M71.301,12.18h2.456c-0.559-0.791-1.441-1.338-2.456-1.443V12.18
			L71.301,12.18z"/>
		<path fill-rule="evenodd" clip-rule="evenodd" fill="#908F87" d="M70.578,12.18v-1.443c-1.015,0.106-1.896,0.652-2.455,1.443
			H70.578L70.578,12.18z"/>
		<path fill-rule="evenodd" clip-rule="evenodd" fill="#908F87" d="M70.578,13.173h-2.942c-0.095,0.315-0.147,0.649-0.147,0.994
			h3.089V13.173L70.578,13.173z"/>
		<path fill-rule="evenodd" clip-rule="evenodd" fill="#908F87" d="M71.301,13.173v0.994h3.089c0-0.346-0.052-0.679-0.147-0.994
			H71.301L71.301,13.173z"/>
	</g>
	<path fill-rule="evenodd" clip-rule="evenodd" fill="#908F87" d="M70.096,9.551c-2.4,0-4.345,1.945-4.345,4.345
		c0,0.153,0.011,0.122,0.026,0.271h1.063c0.095-2.316,2.001-3.984,4.34-3.984c0.573,0,1.12,0.112,1.621,0.314
		C72.059,9.906,71.12,9.551,70.096,9.551L70.096,9.551z"/>
</g>
</svg>
