<?xml version="1.0" encoding="utf-8"?>
<!-- Generator: Adobe Illustrator 17.0.0, SVG Export Plug-In . SVG Version: 6.00 Build 0)  -->
<!DOCTYPE svg PUBLIC "-//W3C//DTD SVG 1.1//EN" "http://www.w3.org/Graphics/SVG/1.1/DTD/svg11.dtd">
<svg version="1.1" id="Layer_1" xmlns="http://www.w3.org/2000/svg" xmlns:xlink="http://www.w3.org/1999/xlink" x="0px" y="0px"
	 width="52px" height="52px" viewBox="0 0 52 52" enable-background="new 0 0 52 52" xml:space="preserve">
<g>
	<path fill="#908F87" d="M51.236,48.812c-0.131-0.452-0.231-0.927-0.345-1.38c-0.699-2.775-1.259-5.623-1.694-8.66
		c-1.115-7.781-1.168-18.118,0.031-25.822c0.29-1.865,0.66-3.883,1.067-5.805c0.285-1.344,0.613-2.866,1.004-4.173
		c0.138-0.46,0.387-0.972,0.376-1.349c-0.019-0.693-0.535-1.229-1.192-1.286c-0.4-0.035-0.887,0.196-1.381,0.345
		c-1.339,0.406-2.878,0.737-4.173,1.004c-1.914,0.394-3.919,0.814-5.805,1.098c-7.817,1.179-18.125,1.165-25.916,0.031
		c-1.99-0.29-3.953-0.679-5.836-1.067c-1.408-0.29-2.871-0.582-4.204-0.973c-0.579-0.17-1.104-0.504-1.726-0.408
		c-0.517,0.08-0.994,0.439-1.098,1.067c-0.1,0.602,0.22,1.109,0.377,1.632C0.86,3.53,0.956,4.015,1.066,4.447
		c0.717,2.819,1.262,5.578,1.725,8.628C3.679,18.913,3.827,26.28,3.45,32.779C3.196,37.16,2.496,40.93,1.693,44.827
		C1.403,46.238,1.073,47.698,0.689,49c-0.143,0.484-0.363,0.96-0.345,1.412c0.017,0.437,0.185,0.724,0.44,0.941
		c0.69,0.588,1.67,0.082,2.384-0.126c0.466-0.135,0.934-0.233,1.381-0.345c2.769-0.697,5.632-1.242,8.628-1.694
		c7.77-1.171,18.171-1.102,25.822,0.031c1.93,0.286,3.928,0.677,5.805,1.067c1.357,0.282,2.862,0.61,4.173,1.004
		c0.465,0.14,0.978,0.374,1.349,0.376c0.874,0.006,1.469-0.741,1.318-1.569C51.564,49.664,51.363,49.248,51.236,48.812z
		 M12.769,23.434c0,3.779,0,7.949,0,11.578c-0.535,0-1.123,0-1.663,0c-0.513,0-1.18,0.093-1.475-0.157
		c-0.258-0.218-0.22-0.881-0.22-1.443c0-3.765,0-7.904,0-11.515c-0.002-0.044-0.005-0.089,0.031-0.094c0.542,0,1.124,0,1.663,0
		c0.512,0,1.166-0.075,1.443,0.188C12.795,22.223,12.769,22.851,12.769,23.434z M12.769,19.92c-0.523,0-1.071,0-1.663,0
		c-0.528,0-1.175,0.097-1.475-0.157c-0.546-0.461-0.044-2.038-0.22-2.855c-0.002-0.045-0.005-0.089,0.031-0.094
		c0.519,0,1.08,0,1.663,0c0.53,0,1.158-0.082,1.443,0.188C13.085,17.51,12.6,19.049,12.769,19.92z M21.303,35.137
		c-1.564,0.166-3.306-0.01-4.675-0.345c-0.412-0.101-0.982-0.196-1.193-0.502c-0.246-0.356-0.125-1.402-0.125-2.071
		c0-5.118,0-10.242,0-15.311c-0.003-0.045-0.005-0.089,0.031-0.094c0.527,0,1.062,0,1.663,0c0.519,0,1.151-0.088,1.443,0.188
		c0.398,0.377,0.219,2.028,0.219,2.792c0,1.046,0,2.104,0,3.012c0.059,0.104,0.108-0.048,0.125-0.063
		c0.737-0.626,1.828-1.276,3.201-1.286c3.324-0.025,4.549,2.331,4.769,5.522C27.085,31.656,25.474,34.695,21.303,35.137z
		 M32.034,23.497c0,3.752,0,7.91,0,11.515c-0.516,0-1.079,0-1.6,0c-0.5,0-1.167,0.094-1.475-0.125
		c-0.309-0.22-0.282-0.797-0.282-1.381c0-3.788,0-7.97,0-11.609c-0.003-0.044-0.005-0.089,0.031-0.094c0.561,0,1.137,0,1.694,0
		c0.529,0,1.164-0.075,1.443,0.22C32.067,22.255,32.034,22.95,32.034,23.497z M32.034,19.92c-0.492,0-1.034,0-1.569,0
		c-0.532,0-1.143,0.107-1.475-0.094c-0.655-0.396-0.152-2.042-0.314-2.918c-0.003-0.045-0.005-0.089,0.031-0.094
		c0.508,0,1.074,0,1.632,0c0.535,0,1.134-0.086,1.443,0.157C32.372,17.433,31.858,19.059,32.034,19.92z M42.89,31.592
		c-0.114,1.591-1.125,2.639-2.384,3.169c-1.318,0.555-3.638,0.54-5.303,0.125c-0.329-0.082-0.673-0.161-0.847-0.345
		c-0.433-0.458-0.183-1.511-0.251-2.384c0.798,0.168,1.648,0.375,2.761,0.471c1.253,0.107,2.784,0.016,2.73-1.255
		c-0.043-1.015-1.513-1.503-2.416-1.914c-0.988-0.45-2.001-1.026-2.541-1.757c-0.848-1.146-0.812-3.144-0.188-4.204
		c0.914-1.554,3.255-2.149,5.836-1.694c0.5,0.088,1.397,0.2,1.694,0.533c0.453,0.508,0.112,1.356,0.22,2.353
		c-0.739-0.186-1.551-0.386-2.667-0.471c-1.079-0.082-2.345,0.014-2.29,1.067c0.032,0.632,0.858,0.991,1.506,1.287
		C40.814,27.514,43.118,28.399,42.89,31.592z"/>
	<path fill="#908F87" d="M21.993,24.438c-0.938-0.549-2.142,0.009-2.73,0.471c-0.242,0.19-0.552,0.443-0.596,0.628
		c-0.052,0.217,0,0.561,0,0.847c0,2.03,0,4.09,0,6.055c1.342,0.417,2.711,0.376,3.545-0.345c0.852-0.736,1.138-2.403,1.067-3.922
		C23.206,26.575,22.963,25.006,21.993,24.438z"/>
</g>
</svg>
