<?xml version="1.0" encoding="utf-8"?>
<!-- Generator: Adobe Illustrator 17.0.0, SVG Export Plug-In . SVG Version: 6.00 Build 0)  -->
<!DOCTYPE svg PUBLIC "-//W3C//DTD SVG 1.1//EN" "http://www.w3.org/Graphics/SVG/1.1/DTD/svg11.dtd">
<svg version="1.1" id="Layer_1" xmlns="http://www.w3.org/2000/svg" xmlns:xlink="http://www.w3.org/1999/xlink" x="0px" y="0px"
	 width="32.707px" height="21.751px" viewBox="0 0 32.707 21.751" enable-background="new 0 0 32.707 21.751" xml:space="preserve">
<path fill="#E18C78" d="M27.024,11.672c1.266-1.824,2.298-3.793,3.286-5.777c0.747-1.5,1.097-3.323,1.945-4.784
	c0.563-0.147,0.65-1.108-0.023-1.111c-2.042-0.008-4.075,0.37-6.103,0.586c-2.443,0.26-4.899,0.276-7.35,0.413
	C15.015,1.21,11.296,1.832,7.994,3.717c-3.287,1.877-9.621,6.854-7.606,11.4c0,0.18,0.069,0.359,0.212,0.482
	c3.071,6.494,10.433,7.337,16.619,4.885C21.426,18.816,24.502,15.306,27.024,11.672z M24.125,13.514
	c-0.691,0.845-1.431,1.645-2.216,2.382c-3.187,1.954-7.099-0.065-10.403-1.195c0.994-0.31,1.973-0.663,2.928-1.042
	C17.383,14.495,21.204,14.655,24.125,13.514z M25.167,12.169c-0.059-0.003-0.122,0.004-0.191,0.029
	c-1.869,0.679-3.653,0.921-5.635,0.864c-0.931-0.027-1.855-0.174-2.779-0.309c1.112-0.506,2.179-1.073,3.208-1.697
	c2.365-0.219,4.913-0.362,7.065-1.367C26.316,10.526,25.76,11.359,25.167,12.169z M28.623,6.538
	c-0.25,0.489-0.507,0.976-0.779,1.456c-0.149,0.262-0.302,0.525-0.457,0.788c-1.832,0.772-3.877,0.997-5.896,1.158
	c0.875-0.61,1.726-1.262,2.552-1.96C25.582,7.546,27.062,6.886,28.623,6.538z M31.271,1.31c-0.308,0.452-0.558,0.953-0.789,1.42
	c-0.52,1.05-1.014,2.105-1.532,3.15C27.968,5.857,26.98,6.081,26,6.368c1.887-1.528,3.869-3.144,5.206-5.046
	C31.227,1.317,31.25,1.315,31.271,1.31z M26.072,1.941c-0.291,0.597-0.551,1.208-0.742,1.845c-0.174,0.582-0.335,1.271-0.217,1.887
	c-0.337,0.265-0.67,0.532-0.993,0.803c-0.286,0.241-0.574,0.476-0.864,0.708c-0.179,0.044-0.358,0.086-0.536,0.12
	c-0.317,0.062-0.433,0.349-0.386,0.594c-0.618,0.464-1.248,0.905-1.891,1.326c0.195-1.302,1.241-2.794,1.788-3.682
	c0.729-1.181,1.654-2.287,2.329-3.508C25.065,2.007,25.569,1.977,26.072,1.941z M30.383,1.461c-1.408,1.322-3.043,2.498-4.605,3.695
	c0.098-0.514,0.33-1.034,0.507-1.448c0.273-0.636,0.586-1.252,0.919-1.858C28.27,1.755,29.331,1.634,30.383,1.461z M23.247,2.101
	c-0.817,1.276-1.68,2.526-2.394,3.864c-0.593,1.112-1.211,2.405-0.927,3.595c-0.318,0.201-0.64,0.398-0.965,0.589
	c-0.076,0.008-0.153,0.015-0.23,0.023c-0.227,0.024-0.353,0.166-0.395,0.333c-0.645,0.359-1.304,0.7-1.984,1.018
	c-0.312,0.146-0.63,0.287-0.949,0.427c-1.034-3.231,2.631-7.666,4.761-9.706C21.188,2.191,22.217,2.149,23.247,2.101z M18.49,2.34
	c-2.207,2.351-5.4,7.507-3.931,9.967c-0.17,0.07-0.338,0.144-0.51,0.212c-0.132,0.004-0.249,0.057-0.341,0.137
	c-0.991,0.385-2.005,0.729-3.034,1.024c-0.484-1.764,0.685-4.302,1.31-5.7c0.84-1.88,2.082-4.175,4.077-5.039
	c0.191-0.083,0.241-0.26,0.195-0.416C17.002,2.444,17.748,2.388,18.49,2.34z M9.744,4.21c1.342-0.658,2.78-1.077,4.253-1.357
	c-1.513,1.224-2.661,3.875-3.178,5.095c-0.576,1.359-1.655,4.253-0.848,5.925c-1.129,0.295-2.273,0.528-3.423,0.672
	c-0.804-1.3,0.035-3.731,0.438-4.95c0.384-1.162,0.906-2.3,1.509-3.365c0.349-0.616,0.992-1.172,1.23-1.828
	C9.749,4.338,9.753,4.272,9.744,4.21z M1.058,14.513c-0.003,0-0.004,0-0.007,0c0.033-4.022,3.284-7.111,6.683-9.189
	C7.545,5.634,7.382,5.94,7.245,6.176C6.481,7.489,5.851,8.968,5.503,10.45c-0.286,1.219-0.527,3.046,0.057,4.196
	C4.055,14.77,2.546,14.742,1.058,14.513z M2.018,15.89c1.386,0.143,2.785,0.114,4.179-0.041c0.035,0.065,0.086,0.127,0.156,0.182
	c1.989,1.569,4.352,3.567,6.911,4.223C8.928,20.98,4.434,19.85,2.018,15.89z M7.689,15.644c0.003-0.004,0.005-0.008,0.008-0.012
	c0.795-0.139,1.586-0.31,2.37-0.517c0.046,0.058,0.111,0.108,0.201,0.143c2.312,0.878,6.768,2.89,9.816,2.15
	c-0.375,0.271-0.757,0.531-1.152,0.767c-1.021,0.611-2.132,1.115-3.287,1.494C12.586,19.501,10.062,17.53,7.689,15.644z"/>
</svg>
