<?xml version="1.0" encoding="utf-8"?>
<!-- Generator: Adobe Illustrator 17.0.0, SVG Export Plug-In . SVG Version: 6.00 Build 0)  -->
<!DOCTYPE svg PUBLIC "-//W3C//DTD SVG 1.1//EN" "http://www.w3.org/Graphics/SVG/1.1/DTD/svg11.dtd">
<svg version="1.1" id="Layer_1" xmlns="http://www.w3.org/2000/svg" xmlns:xlink="http://www.w3.org/1999/xlink" x="0px" y="0px"
	 width="270px" height="310px" viewBox="0 0 270 310" enable-background="new 0 0 270 310" xml:space="preserve">
<g>
	<g>
		<ellipse fill="#92B89A" cx="138.32" cy="149.577" rx="110" ry="126"/>
	</g>
	<path fill="#D1EDD5" d="M178.036,174.458l-3.996,9.314L147.4,197.626l-18.471,4.973c0,0-30.193-36.938-39.43-34.1
		c-7.203,2.214-25.883,10.854-32.581,14.292c-8.498,4.362-14.387,9.308-20.213,15.105c13.735,37.856,43.119,66.383,78.907,74.987
		c29.572,4.207,61.426-3.625,87.069-21.123c15.438-12.78,27.866-30.032,35.831-50.104
		C226.875,186.301,187.966,177.456,178.036,174.458z"/>
	<g>
		<path fill="#E5C7B1" d="M98.346,179.975c-3.936-7.26-2.175-15.65-1.183-23.472c0.322-2.543,1.537-5.768,3.946-7.103
			c1.465-0.812,2.795-0.473,4.391-0.587c1.036-0.074,2.787-0.977,3.657-0.766c0.567,0.137,0.758,0.903,1.241,1.244
			c1.126,0.794,2.364,1.403,3.557,2.119c4.191,2.516,7.833,6.109,12.868,6.644c7.117,0.757,14.906-0.126,22.064-0.356
			c4.685-0.15,8.253-1.872,12.39-3.575c3.596-1.48,6.918-1.936,10.256,0.252c1.39,0.911,1.794-0.707,1.39,0.911
			c-0.592,2.367,3.512,8.653,3.729,10.88c0.658,6.757,1.861,10.158-0.069,16.643c-2.526,8.489-10.597,13.51-19.261,13.551
			c-4.612,0.022-8.034,1.678-12.389,2.938c-5.921,1.713-13.092,2.93-19.234,2.138c-8.699-1.123-18.36-6.7-21.658-15.006
			c-0.878-2.211-2.444-4.108-3.925-5.929c-0.795-0.977-1.13-1.317-2.515-1.3c0.189-0.053,0.371-0.124,0.547-0.212"/>
		<path fill="#BAD8BD" d="M141.486,273.585c-0.069-4.805-0.708-17.738-0.707-22.501c0.003-13.956-0.984-36.732-0.402-50.617
			c0.508-12.126-13.576-6.484-12.832-0.456l-0.668,2.819c-0.857,17.142-1.339,49.593-1.24,71.172
			C130.786,274.537,136.226,273.984,141.486,273.585z"/>
		<path fill="#B2D3B8" d="M106.935,147.547c-0.047,0.03-0.09,0.058-0.129,0.084c-1.478,1.008-2.848,2.743-3.996,4.106
			c-1.142,1.356-2.155,2.828-2.908,4.438c-5.462,11.67,9.224,23.959,17.079,30.605c3.345,2.83,5.954,5.267,9.711,7.521
			c7.999,4.8,3.483,3.413,0.185,8.53c-10.756,16.69-26.889,19.101-26.889,19.101c-0.073-11.906-2.618-12.868-5.192-18.173
			c-3.987-8.217-5.859-14.584-7.543-22.411c-2.595-12.065,7.364-31.078,18.545-36.339c1.851-0.871,2.646-0.001,2.647,0
			C109.463,146.125,107.708,147.056,106.935,147.547z"/>
		<path fill="#B2D3B8" d="M136.806,199.014c3.519,5.944,5.735,12.855,11.022,17.406c2.269,1.953,2.538,5.157,5.266,7.637
			c11.576-14.132,25.989-27.776,27.692-46.785c1.837-20.519-9.363-22.146-7.863-21.985c0.546,7.506-0.868,17.571-4.851,23.959
			c-5.235,8.395-14.328,12.488-23.594,14.051c-2.386,0.402-2.723,2.791-4.749,4.268c-1.032,0.753-6.312-3.104-6.138-1.727
			c0.254,2.018,3.612,2.82,4.71,4.308c0.181-0.275,0.068-0.46-0.34-0.555"/>
		<path fill="#BCA284" d="M158.797,191.996c-0.405-3.017,0.032-3.879-3.287-3.665c-2.269,0.146-4.046,0.745-6.228,1.444
			c-3.363,1.079-7.04,3.771-10.53,4.288c-1.337-1.483-3.217-1.06-6.272-1.336c-1.854-0.168-3.42,0.034-4.746,0.591
			c-0.984-0.263-1.955-0.678-2.909-1.329c-1.951-1.331-3.31-2.511-5.638-3.363c-2.385-0.873-6.467-2.694-8.992-2.374
			c-2.357,0.298-2.193,2.501-2.3,4.674c-0.141,2.843-0.133,5.812,0,8.653c0.112,2.411,0.339,4.882,0.688,7.245
			c0.153,1.033,0.123,5.025,0.919,5.564c1.733,1.173,9.173-2.332,10.875-3.252c2.882-1.557,6.084-3.903,8.005-6.765
			c1.698,0.724,3.499,0.487,5.207,0.429c1.865-0.064,3.618-0.034,5.003-1.258c1.796,2.61,4.438,5.1,7.206,6.674
			c1.46,0.83,3.183,1.293,4.704,2.08c1.24,0.642,4.005,3.103,5.247,3.003c3.047-0.245,3.232-7.778,3.457-9.943
			C159.594,199.577,159.3,195.742,158.797,191.996z"/>
		<circle fill="#EBE8CC" cx="133.551" cy="218.097" r="2.465"/>
		<circle fill="#EBE8CC" cx="132.423" cy="252.616" r="2.465"/>
		<g>
			<g>
				<g>
					<path fill="#7B987F" d="M41.444,227.566c-2.949-6.077-5.636-12.277-7.74-18.689c-3.439-10.419-5.199-21.687-2.918-32.158
						l0.64,0.201c-2.248,10.307-0.519,21.438,2.897,31.785c2.081,6.343,4.743,12.491,7.67,18.529L41.444,227.566z"/>
					<path fill="#7B987F" d="M29.907,175.181c-0.22,0.811,0.336,1.686,1.141,1.926c0.823,0.246,1.577-0.186,1.779-0.93
						c0.19-0.75-0.306-1.606-1.103-1.913C30.924,173.956,30.111,174.366,29.907,175.181z"/>
				</g>
			</g>
			<g>
				<g>
					<path fill="#7B987F" d="M40.815,227.989c-5.88-4.12-11.603-8.511-16.898-13.491c-7.987-7.486-15.032-16.645-18.395-27.281
						l0.621-0.17c3.309,10.473,10.26,19.525,18.191,26.961c5.241,4.929,10.918,9.287,16.762,13.384L40.815,227.989z"/>
					<path fill="#7B987F" d="M4.041,186.313c0.225,0.846,1.113,1.331,1.888,1.11c0.791-0.227,1.189-1.022,0.983-1.801
						c-0.22-0.776-1.049-1.276-1.852-1.118C4.257,184.661,3.801,185.471,4.041,186.313z"/>
				</g>
			</g>
			<g>
				<g>
					<path fill="#7B987F" d="M41.156,227.745c-1.158-1.656-2.323-3.306-3.502-4.935c-4.461-5.71-7.839-12.204-11.551-18.35
						c-3.729-6.084-7.676-12.391-13.394-16.488l0.411-0.702c5.959,4.283,9.908,10.665,13.667,16.779
						c3.744,6.202,7.062,12.596,11.507,18.284c1.097,1.517,2.18,3.049,3.257,4.587L41.156,227.745z"/>
					<path fill="#7B987F" d="M10.785,188.493c0.811,0.464,1.897,0.223,2.449-0.64c0.556-0.87,0.211-2.155-0.853-2.766
						c-1.059-0.627-2.249-0.164-2.536,0.826C9.54,186.946,9.981,188.01,10.785,188.493z"/>
				</g>
			</g>
			<g>
				<g>
					<path fill="#7B987F" d="M41.853,227.17c-5.198-12.891-11.293-25.426-18.663-37.298l0.68-0.416
						c7.43,11.968,13.571,24.61,18.799,37.603L41.853,227.17z"/>
					<path fill="#7B987F" d="M21.176,189.33c0.545,0.888,1.687,1.183,2.553,0.659c0.865-0.523,1.116-1.682,0.56-2.588
						c-0.555-0.906-1.696-1.202-2.55-0.66C20.884,187.281,20.633,188.441,21.176,189.33z"/>
				</g>
			</g>
			<g>
				<g>
					<path fill="#7B987F" d="M40.801,227.846c-9.882-9.41-18.171-20.665-24.04-33.083l0.513-0.225
						c5.851,12.388,14.146,23.629,24.032,33.013L40.801,227.846z"/>
					<path fill="#7B987F" d="M15.335,194.052c0.351,0.77,1.16,1.161,1.807,0.874c0.648-0.288,0.901-1.122,0.564-1.863
						c-0.337-0.742-1.146-1.132-1.808-0.875C15.238,192.446,14.984,193.28,15.335,194.052z"/>
				</g>
			</g>
			<g>
				<g>
					<path fill="#7B987F" d="M42.281,226.763c-1.387-10.009-4.162-19.918-8.34-29.287l-0.516,0.22
						c4.167,9.34,6.931,19.235,8.305,29.23L42.281,226.763z"/>
					<path fill="#7B987F" d="M34.348,195.972c0.356,0.769,0.116,1.613-0.54,1.887c-0.654,0.275-1.462-0.103-1.804-0.841
						c-0.342-0.739-0.1-1.583,0.539-1.887C33.184,194.827,33.992,195.203,34.348,195.972z"/>
				</g>
			</g>
			<g>
				<g>
					<path fill="#7B987F" d="M42.96,226.803c-1.109-16.625-6.007-33.316-14.534-48.058l-0.482,0.283
						c8.51,14.706,13.389,31.408,14.46,48.018L42.96,226.803z"/>
					<path fill="#7B987F" d="M28.662,177.187c0.436,0.728,0.29,1.605-0.323,1.958c-0.614,0.353-1.45,0.072-1.868-0.627
						c-0.419-0.699-0.273-1.577,0.324-1.957C27.391,176.179,28.227,176.46,28.662,177.187z"/>
				</g>
			</g>
		</g>
		<g>
			<path fill-rule="evenodd" clip-rule="evenodd" fill="#E5C7B1" d="M126.725,178.522c4.816,1.495,12.425,0.385,16.081-0.711
				c12.754-3.829,20.618-13.488,25.571-24.951c5.529-12.795,12.107-26.245,11.493-40.515c-0.332-7.715-1.064-16.058-0.009-23.805
				c1.108-8.132,1.122-15.95-0.295-24.114c-2.531-14.591-11.253-27.554-25.365-33.289c-14.335-5.825-31.809-9.558-45.802-1.652
				c-6.848,3.869-13.802,6.663-18.53,13.18c-4.734,6.525-6.808,17.994-7.589,25.851c-1.595,16.041,2.67,32.517,5.84,47.98
				c1.793,8.75,1.999,16.543,5.62,24.806c2.862,6.531,6.705,12.147,10.541,18.028C116.915,178.698,125.596,178.171,126.725,178.522z
				"/>
			<path fill-rule="evenodd" clip-rule="evenodd" fill="#E5C7B1" d="M87.818,125.08c-3.35,3.836-9.844-11.484-10.777-13.946
				c-1.58-4.169-6.691-20.257-1.631-23.482c6.949-4.429,11.659,29.432,12.088,34.057c0.114,1.232,0.489,2.701,0.249,4.12
				c-0.457,0.108-0.757,0.281-1.159,0.482"/>
			<path fill-rule="evenodd" clip-rule="evenodd" fill="#E5C7B1" d="M186.262,117.286c-0.658,0.431-1.755,0.606-2.8,0.339
				c-2.264-5.986-0.588-15.945-0.913-22.458c-0.191-3.823,0.162-21.922,7.916-16.129c4.275,3.193,3.335,14.019,2.371,18.56
				c-1.018,4.794-1.673,15.348-5.025,18.756c-0.704,0.715-1.688,1.139-2.37,1.343"/>
			<g opacity="0.2">
				<path fill="#DE8C76" d="M107.696,131.738c0,0,0.009-0.229,0.058-0.618c0.052-0.39,0.12-0.936,0.298-1.582
					c0.165-0.65,0.401-1.398,0.722-2.158c0.155-0.384,0.318-0.781,0.523-1.165c0.193-0.39,0.406-0.778,0.616-1.167
					c0.228-0.38,0.47-0.753,0.714-1.115c0.235-0.367,0.492-0.713,0.766-1.033c0.266-0.324,0.532-0.629,0.787-0.914
					c0.276-0.273,0.551-0.519,0.803-0.742c0.259-0.219,0.479-0.427,0.725-0.571c0.23-0.156,0.442-0.276,0.612-0.376
					c0.342-0.199,0.545-0.291,0.545-0.291s-0.104,0.212-0.301,0.547c-0.099,0.166-0.215,0.37-0.36,0.585
					c-0.15,0.208-0.27,0.495-0.434,0.768c-0.157,0.281-0.336,0.574-0.522,0.883c-0.172,0.325-0.357,0.662-0.558,1.002
					c-0.101,0.169-0.204,0.342-0.308,0.516c-0.095,0.181-0.195,0.363-0.299,0.543c-0.2,0.366-0.427,0.721-0.637,1.088
					c-0.21,0.368-0.418,0.738-0.638,1.093c-0.216,0.359-0.428,0.713-0.634,1.055c-0.205,0.343-0.422,0.668-0.618,0.978
					c-0.191,0.311-0.381,0.603-0.562,0.872c-0.376,0.529-0.677,1.003-0.915,1.313C107.848,131.565,107.696,131.738,107.696,131.738z
					"/>
				<path fill="#DE8C76" d="M152.019,117.724c0,0,0.244,0.105,0.648,0.316c0.201,0.107,0.449,0.232,0.719,0.392
					c0.136,0.079,0.281,0.164,0.434,0.253c0.147,0.101,0.294,0.219,0.453,0.337c0.316,0.237,0.661,0.498,1.015,0.79
					c0.351,0.294,0.671,0.639,1.02,0.989c0.347,0.351,0.699,0.721,1.002,1.141c0.317,0.409,0.635,0.829,0.936,1.26
					c0.27,0.452,0.542,0.902,0.794,1.354c0.273,0.44,0.453,0.922,0.652,1.372c0.182,0.459,0.391,0.885,0.504,1.326
					c0.127,0.435,0.231,0.85,0.324,1.231c0.044,0.191,0.098,0.37,0.129,0.547c0.021,0.179,0.042,0.35,0.061,0.51
					c0.042,0.318,0.06,0.597,0.078,0.825c0.034,0.457,0.032,0.718,0.032,0.718s-0.149-0.226-0.372-0.622
					c-0.11-0.198-0.248-0.436-0.385-0.712c-0.136-0.277-0.302-0.582-0.497-0.908c-0.191-0.327-0.396-0.679-0.595-1.055
					c-0.185-0.383-0.459-0.749-0.685-1.152c-0.242-0.396-0.457-0.82-0.736-1.218c-0.269-0.403-0.526-0.822-0.785-1.24
					c-0.279-0.405-0.558-0.81-0.832-1.209c-0.14-0.197-0.26-0.408-0.404-0.597c-0.143-0.19-0.284-0.378-0.423-0.563
					c-0.279-0.367-0.524-0.754-0.785-1.085c-0.265-0.326-0.504-0.65-0.729-0.952c-0.221-0.301-0.43-0.587-0.64-0.824
					c-0.204-0.239-0.37-0.461-0.51-0.641C152.165,117.947,152.019,117.724,152.019,117.724z"/>
			</g>
			<g opacity="0.5">
				<path fill="#835E45" d="M121.384,86.644c0,0-0.12-0.071-0.344-0.205c-0.215-0.134-0.543-0.358-0.947-0.562
					c-0.387-0.222-0.884-0.455-1.436-0.709c-0.292-0.106-0.578-0.242-0.893-0.355c-0.327-0.096-0.639-0.235-0.994-0.325
					c-0.354-0.09-0.698-0.215-1.083-0.283c-0.186-0.043-0.376-0.087-0.568-0.131c-0.195-0.034-0.393-0.069-0.594-0.105
					c-0.395-0.076-0.815-0.122-1.231-0.184c-0.431-0.023-0.85-0.103-1.296-0.113c-0.878-0.07-1.797-0.065-2.726-0.06
					c-0.932,0.023-1.883,0.081-2.832,0.173c-0.952,0.091-1.901,0.223-2.839,0.372c-0.468,0.084-0.932,0.168-1.39,0.25
					c-0.458,0.097-0.91,0.193-1.355,0.287c-0.892,0.196-1.747,0.421-2.562,0.649c-0.404,0.119-0.805,0.229-1.183,0.357
					c-0.387,0.112-0.753,0.24-1.106,0.365c-0.713,0.239-1.359,0.494-1.937,0.732c-0.576,0.24-1.088,0.462-1.501,0.668
					c-0.421,0.198-0.758,0.362-0.98,0.487c-0.234,0.117-0.359,0.179-0.359,0.179s0.05-0.13,0.161-0.366
					c0.113-0.234,0.27-0.594,0.537-1.003c0.251-0.427,0.606-0.906,1.05-1.433c0.447-0.523,0.992-1.082,1.639-1.629
					c0.642-0.56,1.392-1.089,2.216-1.607c0.831-0.5,1.738-0.986,2.718-1.388c0.975-0.418,2.017-0.767,3.099-1.039
					c1.079-0.288,2.205-0.456,3.336-0.59c1.137-0.084,2.282-0.135,3.412-0.046c0.565,0.033,1.125,0.097,1.676,0.186
					c0.551,0.088,1.094,0.183,1.621,0.33c1.057,0.256,2.057,0.625,2.964,1.059c0.91,0.425,1.717,0.949,2.41,1.481
					c0.347,0.265,0.656,0.557,0.947,0.821c0.28,0.284,0.533,0.563,0.762,0.825c0.436,0.554,0.781,1.05,1.014,1.505
					c0.26,0.43,0.356,0.792,0.461,1.031C121.337,86.513,121.384,86.644,121.384,86.644z"/>
			</g>
			<g opacity="0.5">
				<path fill="#835E45" d="M141.885,85.666c0,0,0.299-0.466,0.868-1.218c0.145-0.184,0.305-0.389,0.48-0.611
					c0.178-0.22,0.423-0.422,0.664-0.661c0.497-0.446,1.075-1.032,1.769-1.468c0.688-0.467,1.445-0.993,2.324-1.381
					c0.433-0.212,0.883-0.428,1.354-0.618c0.475-0.176,0.971-0.327,1.474-0.493c0.253-0.074,0.505-0.18,0.768-0.229
					c0.263-0.053,0.528-0.107,0.794-0.162c0.534-0.1,1.075-0.239,1.629-0.283c0.553-0.045,1.112-0.107,1.675-0.134
					c0.563-0.045,1.127,0.009,1.693,0.011l0.847,0.043c0.282,0.019,0.56,0.069,0.84,0.103c0.558,0.073,1.112,0.16,1.657,0.268
					c1.083,0.263,2.142,0.535,3.118,0.956c0.995,0.35,1.889,0.877,2.731,1.337c0.412,0.253,0.796,0.535,1.165,0.797
					c0.364,0.273,0.724,0.511,1.028,0.814c0.617,0.583,1.185,1.08,1.592,1.641c0.415,0.545,0.793,0.976,1.011,1.425
					c0.471,0.856,0.679,1.349,0.679,1.349s-0.522-0.235-1.329-0.655c-0.383-0.23-0.927-0.41-1.477-0.669
					c-0.539-0.275-1.216-0.472-1.89-0.74c-0.332-0.143-0.707-0.241-1.083-0.353c-0.379-0.106-0.746-0.254-1.147-0.353
					c-0.81-0.182-1.621-0.437-2.502-0.577c-0.439-0.067-0.862-0.206-1.318-0.245c-0.451-0.055-0.903-0.121-1.355-0.202
					c-0.457-0.057-0.923-0.066-1.383-0.128c-0.231-0.021-0.461-0.06-0.694-0.068l-0.699-0.016c-0.932-0.084-1.861-0.028-2.783-0.035
					c-0.461,0.004-0.912,0.068-1.365,0.083c-0.453,0.025-0.902,0.048-1.337,0.116c-0.438,0.053-0.869,0.117-1.301,0.152
					c-0.426,0.054-0.829,0.164-1.24,0.222c-0.828,0.108-1.577,0.328-2.303,0.49c-0.183,0.039-0.362,0.078-0.537,0.116
					c-0.174,0.04-0.325,0.102-0.488,0.144c-0.32,0.091-0.624,0.189-0.923,0.267c-0.298,0.085-0.581,0.149-0.848,0.24
					c-0.265,0.098-0.509,0.188-0.729,0.27C142.42,85.524,141.885,85.666,141.885,85.666z"/>
			</g>
			<g opacity="0.2">
				<path fill="#DE8C76" d="M148.434,99.473c0,0,0.238,0.111,0.63,0.332c0.194,0.111,0.43,0.246,0.7,0.401
					c0.275,0.129,0.58,0.27,0.892,0.439c0.318,0.16,0.699,0.274,1.063,0.441c0.381,0.128,0.781,0.253,1.192,0.356
					c0.21,0.035,0.42,0.077,0.631,0.122c0.21,0.049,0.432,0.035,0.647,0.065l0.326,0.031l0.33-0.011
					c0.22-0.015,0.441,0.015,0.661-0.032l0.662-0.08c0.217-0.056,0.437-0.098,0.654-0.145c0.428-0.123,0.863-0.228,1.268-0.397
					c0.414-0.143,0.805-0.323,1.183-0.487c0.371-0.179,0.733-0.342,1.061-0.512c0.32-0.181,0.635-0.323,0.9-0.475
					c0.263-0.153,0.513-0.265,0.704-0.379c0.39-0.216,0.631-0.327,0.631-0.327s-0.134,0.224-0.399,0.593
					c-0.268,0.365-0.673,0.876-1.241,1.416c-0.281,0.273-0.606,0.553-0.967,0.83c-0.371,0.264-0.767,0.544-1.219,0.774
					c-0.218,0.13-0.451,0.241-0.697,0.336c-0.246,0.096-0.484,0.219-0.749,0.284c-0.262,0.073-0.526,0.152-0.794,0.217l-0.83,0.119
					c-0.276,0.046-0.562,0.015-0.841,0.024c-0.14,0-0.28-0.001-0.419-0.008l-0.412-0.062c-0.553-0.057-1.069-0.228-1.56-0.398
					c-0.249-0.075-0.467-0.21-0.69-0.317c-0.216-0.12-0.442-0.208-0.63-0.347c-0.379-0.273-0.738-0.513-1.034-0.789
					c-0.297-0.275-0.551-0.541-0.77-0.772c-0.208-0.235-0.353-0.466-0.488-0.647C148.57,99.699,148.434,99.473,148.434,99.473z"/>
				<path fill="#DE8C76" d="M104.541,99.473c0,0,0.238,0.111,0.63,0.332c0.194,0.111,0.43,0.246,0.7,0.401
					c0.275,0.129,0.58,0.27,0.892,0.439c0.318,0.16,0.699,0.274,1.063,0.441c0.381,0.128,0.781,0.253,1.192,0.356
					c0.21,0.035,0.42,0.077,0.631,0.122c0.21,0.049,0.432,0.035,0.647,0.065l0.326,0.031l0.33-0.011
					c0.22-0.015,0.441,0.015,0.661-0.032l0.662-0.08c0.217-0.056,0.437-0.098,0.654-0.145c0.428-0.123,0.863-0.228,1.268-0.397
					c0.414-0.143,0.804-0.323,1.183-0.487c0.371-0.179,0.733-0.342,1.061-0.512c0.32-0.181,0.635-0.323,0.9-0.475
					c0.263-0.153,0.513-0.265,0.704-0.379c0.39-0.216,0.631-0.327,0.631-0.327s-0.134,0.224-0.398,0.593
					c-0.268,0.365-0.673,0.876-1.242,1.416c-0.281,0.273-0.606,0.553-0.967,0.83c-0.371,0.264-0.766,0.544-1.219,0.774
					c-0.218,0.13-0.451,0.241-0.697,0.336c-0.246,0.096-0.484,0.219-0.749,0.284c-0.262,0.073-0.526,0.152-0.794,0.217l-0.83,0.119
					c-0.276,0.046-0.562,0.015-0.841,0.024c-0.14,0-0.28-0.001-0.419-0.008l-0.412-0.062c-0.553-0.057-1.069-0.228-1.56-0.398
					c-0.249-0.075-0.467-0.21-0.69-0.317c-0.216-0.12-0.442-0.208-0.63-0.347c-0.379-0.273-0.738-0.513-1.034-0.789
					c-0.297-0.275-0.551-0.541-0.77-0.772c-0.208-0.235-0.353-0.466-0.488-0.647C104.676,99.699,104.541,99.473,104.541,99.473z"/>
			</g>
			<g opacity="0.2">
				<path fill="#DE8C76" d="M118.676,91.199c0,0-0.22-0.131-0.591-0.375c-0.184-0.123-0.408-0.271-0.665-0.442
					c-0.266-0.146-0.562-0.308-0.871-0.494c-0.315-0.179-0.692-0.314-1.056-0.502c-0.185-0.092-0.393-0.137-0.594-0.21
					c-0.207-0.055-0.401-0.162-0.62-0.198c-0.214-0.046-0.432-0.094-0.652-0.141c-0.219-0.053-0.449-0.044-0.674-0.08l-0.341-0.039
					l-0.345,0.008c-0.23,0.015-0.462-0.013-0.691,0.035l-0.691,0.082c-0.227,0.053-0.453,0.107-0.677,0.159
					c-0.439,0.14-0.89,0.244-1.299,0.434c-0.418,0.163-0.812,0.354-1.19,0.535c-0.367,0.199-0.723,0.382-1.043,0.568
					c-0.314,0.196-0.618,0.357-0.872,0.525c-0.254,0.168-0.491,0.297-0.672,0.422c-0.371,0.241-0.592,0.372-0.592,0.372
					s0.153-0.204,0.437-0.549c0.289-0.34,0.719-0.815,1.302-1.322c0.289-0.256,0.62-0.516,0.984-0.774
					c0.372-0.247,0.764-0.517,1.213-0.726c0.217-0.118,0.444-0.227,0.685-0.317c0.239-0.092,0.473-0.209,0.731-0.267
					c0.255-0.067,0.513-0.135,0.771-0.203l0.801-0.117c0.267-0.045,0.542-0.012,0.811-0.02l0.404,0.004l0.398,0.054
					c0.535,0.042,1.032,0.216,1.512,0.364c0.471,0.169,0.903,0.395,1.298,0.613c0.378,0.252,0.741,0.471,1.04,0.728
					c0.3,0.257,0.562,0.502,0.79,0.717c0.218,0.22,0.378,0.438,0.523,0.606C118.523,90.994,118.676,91.199,118.676,91.199z"/>
				<path fill="#DE8C76" d="M162.57,91.199c0,0-0.22-0.131-0.591-0.375c-0.184-0.123-0.408-0.271-0.665-0.442
					c-0.266-0.146-0.562-0.308-0.871-0.494c-0.315-0.179-0.692-0.314-1.056-0.502c-0.185-0.092-0.393-0.137-0.594-0.21
					c-0.207-0.055-0.401-0.162-0.62-0.198c-0.214-0.046-0.432-0.094-0.652-0.141c-0.219-0.053-0.449-0.044-0.674-0.08l-0.341-0.039
					l-0.345,0.008c-0.23,0.015-0.462-0.013-0.691,0.035l-0.691,0.082c-0.227,0.053-0.453,0.107-0.677,0.159
					c-0.439,0.14-0.89,0.244-1.298,0.434c-0.418,0.163-0.812,0.354-1.19,0.535c-0.367,0.199-0.723,0.382-1.043,0.568
					c-0.314,0.196-0.618,0.357-0.872,0.525c-0.254,0.168-0.491,0.297-0.672,0.422c-0.371,0.241-0.592,0.372-0.592,0.372
					s0.153-0.204,0.437-0.549c0.289-0.34,0.719-0.815,1.302-1.322c0.288-0.256,0.62-0.516,0.984-0.774
					c0.372-0.247,0.764-0.517,1.213-0.726c0.217-0.118,0.444-0.227,0.685-0.317c0.239-0.092,0.473-0.209,0.731-0.267
					c0.255-0.067,0.513-0.135,0.771-0.203l0.801-0.117c0.267-0.045,0.542-0.012,0.811-0.02l0.404,0.004l0.398,0.054
					c0.535,0.042,1.032,0.216,1.512,0.364c0.471,0.169,0.903,0.395,1.298,0.613c0.378,0.252,0.741,0.471,1.04,0.728
					c0.3,0.257,0.562,0.502,0.79,0.717c0.218,0.22,0.378,0.438,0.523,0.606C162.416,90.994,162.57,91.199,162.57,91.199z"/>
			</g>
			<path opacity="0.3" fill="#835E45" d="M122.738,162.091c-0.054,0.456,0.149,1.038,0.524,1.614
				c1.093,1.675,2.757,3.145,4.522,4.079c3.28,1.736,7.139,2.107,10.657,0.933c2.169-0.724,6.84-3.515,7.075-6.151
				c0.208-2.337-3.493-1.332-4.746-1.096c-1.239,0.233-2.482,0.392-3.725,0.594c-2.829,0.458-5.663,0.132-8.472-0.296
				c-1.392-0.212-2.778-0.396-4.178-0.535C123.301,161.125,122.808,161.504,122.738,162.091z"/>
			<g opacity="0.6">
				<path fill="#DE8C76" d="M119.755,119.066c0,0,0.035,0.135,0.101,0.387c0.047,0.261,0.182,0.615,0.389,0.985
					c0.198,0.395,0.592,0.714,1.083,0.915c0.506,0.196,1.166,0.247,1.931,0.241c0.772-0.004,1.635-0.084,2.669-0.049
					c0.27,0.017,0.524,0.027,0.842,0.088c0.247,0.047,0.451,0.062,0.76,0.148c0.602,0.141,1.099,0.328,1.62,0.535
					c1.029,0.416,1.949,0.906,2.813,1.224c0.863,0.298,1.652,0.45,2.503,0.339c0.213-0.027,0.425-0.04,0.644-0.099l0.327-0.07
					l0.041-0.008l0.01-0.002c0.021-0.006-0.148,0.046-0.07,0.022l0.024-0.008l0.097-0.032l0.193-0.064
					c0.25-0.087,0.53-0.17,0.755-0.254l0.593-0.258c0.857-0.403,1.8-0.923,2.808-1.38c1.039-0.443,2.165-0.758,3.253-0.8
					l0.201-0.016l0.025-0.002c-0.006,0,0.101-0.006,0.061-0.003l0.011,0.001l0.044,0.002l0.087,0.004l0.345,0.017
					c0.251,0.022,0.539,0.046,0.765,0.081c0.449,0.069,0.861,0.139,1.23,0.186c0.759,0.096,1.319,0.108,1.822-0.112
					c0.044-0.026,0.089-0.049,0.137-0.072l0.161-0.115c0.102-0.086,0.207-0.168,0.302-0.261c0.194-0.179,0.359-0.373,0.501-0.554
					c0.278-0.367,0.491-0.68,0.608-0.905c0.126-0.224,0.157-0.353,0.137-0.356c0.015-0.011,0.059,0.141,0.026,0.405
					c-0.03,0.264-0.086,0.654-0.25,1.131c-0.081,0.239-0.182,0.504-0.33,0.786c-0.069,0.143-0.161,0.287-0.264,0.433
					c-0.056,0.072-0.114,0.146-0.173,0.22c-0.079,0.078-0.159,0.158-0.241,0.239c-0.065,0.056-0.132,0.113-0.199,0.171l-0.006,0.005
					c-0.018,0.011,0.031-0.017-0.042,0.026l-0.017,0.01l-0.035,0.02l-0.07,0.04l-0.144,0.08c-0.099,0.053-0.2,0.106-0.302,0.16
					c-0.103,0.036-0.208,0.072-0.314,0.109c-0.218,0.083-0.436,0.128-0.655,0.164c-0.227,0.047-0.444,0.07-0.666,0.092
					c-0.448,0.047-0.885,0.054-1.316,0.079c-0.189,0.014-0.382,0.028-0.578,0.043l-0.342,0.043l-0.086,0.011l-0.043,0.005
					l-0.011,0.001c-0.048,0.003,0.053-0.003,0.039-0.001l-0.018,0.005l-0.145,0.041c-0.78,0.163-1.54,0.498-2.342,0.937
					c-0.812,0.472-1.67,1.059-2.73,1.616c-0.29,0.138-0.581,0.277-0.873,0.416c-0.275,0.118-0.514,0.191-0.775,0.286l-0.192,0.067
					l-0.096,0.034l-0.024,0.008l-0.109,0.033l-0.059,0.014l-0.469,0.111c-0.308,0.083-0.638,0.122-0.966,0.161
					c-1.322,0.158-2.733-0.13-3.858-0.62c-1.127-0.484-2.029-1.077-2.855-1.514c-0.405-0.223-0.838-0.421-1.178-0.564
					c-0.154-0.082-0.431-0.152-0.648-0.227c-0.148-0.056-0.368-0.101-0.56-0.15c-0.827-0.172-1.739-0.272-2.591-0.458
					c-0.853-0.184-1.688-0.478-2.323-0.972c-0.641-0.485-0.986-1.158-1.053-1.68c-0.101-0.529-0.053-0.931-0.008-1.178
					C119.731,119.204,119.755,119.066,119.755,119.066z"/>
			</g>
			<g>
				<path fill="#DE8C76" d="M114.021,142.404c7.292,2.136,34.944,1.174,40.009,0c0,0-6.286,14.97-20.413,14.359
					C119.49,156.153,114.021,142.404,114.021,142.404z"/>
				<path opacity="0.8" fill="#FFFFFF" d="M115.844,142.809c3.115,3.545,10.957,5.53,15.455,6.028
					c8.959,0.993,13.522-0.978,21.419-5.78c-1.822-1-6.357-0.001-8.775-0.001c-3.231,0-6.301,0.171-9.523,0.327
					c-4.477,0.217-8.781,0.161-13.423-0.07C119.392,143.233,117.518,143.053,115.844,142.809"/>
				<g>
					<path fill="#DE8C76" d="M114.021,142.404c0.817,0.195,1.644,0.3,2.474,0.391c0.83,0.085,1.661,0.157,2.494,0.206
						c1.665,0.102,3.335,0.141,5.004,0.153l2.504,0.001l2.504-0.018c1.671-0.02,3.334-0.074,5.008-0.114
						c3.332-0.096,6.67-0.264,9.997-0.457c1.663-0.105,3.325-0.226,4.979-0.379c0.827-0.078,1.652-0.157,2.47-0.252
						c0.809-0.101,1.643-0.202,2.382-0.372l1.632-0.374l-0.632,1.53c-0.453,1.098-0.966,2.063-1.541,3.038
						c-0.575,0.964-1.203,1.896-1.888,2.787c-1.383,1.768-2.969,3.396-4.786,4.746c-1.804,1.36-3.829,2.454-5.986,3.152
						c-0.533,0.194-1.087,0.319-1.631,0.472c-0.554,0.113-1.104,0.251-1.664,0.324c-0.559,0.085-1.118,0.162-1.681,0.194
						c-0.561,0.059-1.124,0.061-1.686,0.07c-0.15,0-0.26,0.007-0.443,0l-0.408-0.021l-0.815-0.042
						c-0.566-0.071-1.149-0.106-1.699-0.216c-1.116-0.168-2.204-0.482-3.27-0.837c-1.061-0.378-2.08-0.858-3.056-1.407
						c-0.969-0.562-1.887-1.201-2.753-1.899c-0.871-0.692-1.663-1.476-2.405-2.294c-0.741-0.82-1.426-1.686-2.055-2.587
						C115.815,146.396,114.755,144.459,114.021,142.404z M114.021,142.404c0.456,0.989,1.003,1.93,1.585,2.843
						c0.578,0.916,1.206,1.798,1.882,2.637c1.352,1.68,2.907,3.183,4.623,4.442c0.861,0.625,1.763,1.188,2.703,1.672
						c0.947,0.47,1.924,0.87,2.924,1.192c1.008,0.294,2.029,0.552,3.073,0.669c0.521,0.086,1.029,0.093,1.544,0.143l0.816,0.012
						l0.408,0.006c0.088,0.001,0.251-0.011,0.373-0.016c0.525-0.022,1.051-0.033,1.572-0.1c0.524-0.041,1.041-0.125,1.556-0.214
						c0.518-0.078,1.022-0.219,1.532-0.333c0.499-0.154,1.007-0.277,1.493-0.468c0.988-0.335,1.932-0.786,2.85-1.277
						c0.922-0.487,1.791-1.072,2.625-1.701c1.671-1.259,3.139-2.787,4.423-4.453c0.645-0.831,1.243-1.701,1.789-2.603
						c0.539-0.892,1.05-1.855,1.434-2.766l1.001,1.156c-0.896,0.196-1.727,0.286-2.577,0.387c-0.844,0.091-1.685,0.172-2.526,0.228
						c-1.681,0.12-3.359,0.206-5.037,0.275c-1.678,0.064-3.355,0.121-5.033,0.138c-1.678,0.02-3.354,0.024-5.035,0.014
						c-1.672-0.008-3.355-0.054-5.029-0.112c-1.677-0.059-3.353-0.135-5.027-0.267c-1.674-0.127-3.346-0.281-5.012-0.497
						c-0.832-0.112-1.665-0.224-2.489-0.39C115.638,142.855,114.814,142.672,114.021,142.404z"/>
				</g>
			</g>
			<g opacity="0.1">
				<path fill="#DE8C76" d="M116.919,70.728c0,0,0.069-0.106,0.198-0.306c0.118-0.206,0.345-0.471,0.669-0.808
					c0.174-0.148,0.366-0.312,0.575-0.49c0.224-0.156,0.471-0.325,0.743-0.491c0.551-0.313,1.195-0.644,1.93-0.897
					c0.729-0.281,1.539-0.504,2.404-0.702c0.865-0.18,1.782-0.364,2.735-0.463c0.953-0.114,1.938-0.213,2.94-0.257
					c1.001-0.039,2.018-0.07,3.032-0.071c1.015,0.006,2.027,0.032,3.022,0.081c0.995,0.041,1.971,0.126,2.914,0.198
					c0.944,0.066,1.852,0.171,2.713,0.264c0.861,0.088,1.673,0.195,2.421,0.295c1.498,0.192,2.741,0.385,3.615,0.512
					c0.875,0.129,1.376,0.203,1.376,0.203s-0.502,0.08-1.387,0.15c-0.884,0.071-2.15,0.136-3.662,0.152
					c-1.513,0.027-3.272,0.014-5.151-0.015c-1.873-0.021-3.87-0.043-5.867-0.066c-0.996-0.019-1.989-0.01-2.966,0.009
					c-0.975,0.036-1.936,0.033-2.859,0.098c-0.925,0.054-1.813,0.124-2.654,0.212c-0.833,0.116-1.628,0.213-2.341,0.374
					c-0.719,0.148-1.359,0.339-1.922,0.533c-0.277,0.104-0.526,0.225-0.769,0.318c-0.228,0.121-0.438,0.232-0.627,0.332
					c-0.342,0.236-0.642,0.421-0.807,0.596C117.015,70.644,116.919,70.728,116.919,70.728z"/>
				<path fill="#DE8C76" d="M109.097,63.884c0,0-0.184,0.016-0.53,0.045c-0.086,0.008-0.181,0.017-0.286,0.026l-0.008,0.001
					c-0.001,0.133,0.001-0.181,0.001-0.149l0.004,0l0.018-0.001l0.041-0.003l0.085-0.006c0.058-0.004,0.118-0.008,0.181-0.013
					c0.253-0.014,0.527-0.048,0.854-0.083c0.642-0.077,1.429-0.141,2.317-0.257c0.437-0.078,0.902-0.162,1.393-0.25
					c0.489-0.091,1-0.155,1.538-0.289c1.073-0.239,2.232-0.489,3.461-0.793c1.225-0.289,2.527-0.624,3.878-0.928
					c1.365-0.283,2.763-0.63,4.231-0.83c0.365-0.057,0.731-0.115,1.098-0.173c0.369-0.049,0.746-0.073,1.12-0.111
					c0.754-0.055,1.492-0.17,2.267-0.175c0.738-0.01,1.475-0.019,2.21-0.029c0.74,0.004,1.493,0.043,2.231,0.064
					c0.37,0.013,0.738,0.026,1.104,0.04c0.363,0.033,0.723,0.065,1.082,0.098c0.717,0.068,1.425,0.122,2.12,0.2
					c1.385,0.188,2.727,0.344,3.981,0.604c0.628,0.119,1.239,0.234,1.83,0.346c0.587,0.13,1.151,0.276,1.693,0.406
					c0.541,0.135,1.062,0.25,1.552,0.386c0.487,0.147,0.948,0.287,1.382,0.418c0.868,0.253,1.618,0.497,2.224,0.733
					c1.218,0.451,1.905,0.723,1.905,0.723s-0.733-0.13-1.998-0.383c-0.629-0.142-1.404-0.261-2.288-0.412
					c-0.441-0.075-0.911-0.156-1.406-0.24c-0.497-0.071-1.019-0.146-1.564-0.223c-0.545-0.075-1.11-0.164-1.698-0.235
					c-0.588-0.067-1.197-0.135-1.822-0.206c-1.246-0.169-2.574-0.216-3.935-0.358c-0.683-0.047-1.378-0.07-2.081-0.107
					c-0.704-0.039-1.413-0.067-2.124-0.074c-0.714-0.009-1.424-0.039-2.153-0.033c-0.734,0.019-1.472,0.038-2.209,0.058
					c-0.702-0.008-1.429,0.095-2.14,0.136c-0.357,0.031-0.714,0.048-1.07,0.09c-0.356,0.051-0.71,0.102-1.064,0.153
					c-1.412,0.184-2.812,0.429-4.164,0.662c-1.357,0.262-2.67,0.487-3.931,0.695c-1.25,0.231-2.457,0.368-3.565,0.501
					c-1.107,0.143-2.157,0.152-3.06,0.212c-0.904,0.015-1.686-0.049-2.334-0.067c-0.318-0.012-0.62-0.023-0.868-0.057
					c-0.063-0.007-0.123-0.013-0.181-0.02l-0.085-0.01l-0.042-0.005l-0.023-0.003l-0.006-0.001
					c-0.005,0.033-0.002-0.285,0.002-0.151l0.012,0.001c0.107,0.01,0.205,0.018,0.292,0.026
					C108.913,63.866,109.097,63.884,109.097,63.884z"/>
			</g>
			<g>
				<g>
					<ellipse fill="#627F65" cx="111.281" cy="95.431" rx="3.532" ry="3.949"/>
					<path fill="#FFFFFF" d="M109.522,95.534c0,0-0.056-0.047-0.135-0.132c-0.035-0.046-0.092-0.086-0.124-0.163
						c-0.037-0.076-0.078-0.17-0.105-0.28c-0.047-0.205-0.053-0.476,0.056-0.742c0.095-0.272,0.302-0.515,0.546-0.687
						c0.124-0.085,0.257-0.151,0.395-0.196c0.138-0.043,0.277-0.074,0.415-0.075c0.272-0.018,0.531,0.061,0.718,0.172
						c0.191,0.111,0.307,0.262,0.36,0.373c0.051,0.119,0.059,0.186,0.059,0.186s-0.067,0.005-0.183,0.014
						c-0.048-0.001-0.117,0.026-0.175,0.034c-0.058,0.008-0.131,0.047-0.19,0.06c-0.257,0.113-0.513,0.255-0.728,0.408
						c-0.216,0.145-0.409,0.296-0.6,0.531c-0.072,0.096-0.168,0.226-0.211,0.336C109.564,95.474,109.522,95.534,109.522,95.534z"/>
				</g>
				<g>
					<ellipse fill="#627F65" cx="154.948" cy="95.431" rx="3.532" ry="3.949"/>
					<path fill="#FFFFFF" d="M153.189,95.534c0,0-0.056-0.047-0.135-0.132c-0.035-0.046-0.092-0.086-0.124-0.163
						c-0.037-0.076-0.078-0.17-0.105-0.28c-0.047-0.205-0.053-0.476,0.056-0.742c0.095-0.272,0.303-0.515,0.546-0.687
						c0.124-0.085,0.257-0.151,0.395-0.196c0.138-0.043,0.277-0.074,0.415-0.075c0.272-0.018,0.531,0.061,0.718,0.172
						c0.191,0.111,0.307,0.262,0.36,0.373c0.051,0.119,0.059,0.186,0.059,0.186s-0.067,0.005-0.183,0.014
						c-0.048-0.001-0.117,0.026-0.175,0.034c-0.058,0.008-0.131,0.047-0.19,0.06c-0.257,0.113-0.513,0.255-0.728,0.408
						c-0.216,0.145-0.409,0.296-0.6,0.531c-0.072,0.096-0.168,0.226-0.211,0.336C153.231,95.474,153.189,95.534,153.189,95.534z"/>
				</g>
			</g>
			<path fill="#835E45" d="M185.257,87.032c2.928-21.483,10.722-38.461-6.966-61.192C151.046-9.167,70.748,4.192,70.748,58.329
				c0,20.44,8.525,40.011,12.574,59.768c1.993,9.721,2.221,18.381,6.244,27.561c3.18,7.257,7.45,13.497,11.712,20.031
				c14.038,21.519,23.683,20.934,24.938,21.323c5.351,1.661,13.806,0.428,17.868-0.79c14.172-4.254,22.908-14.986,28.413-27.723
				c6.143-14.217,13.452-29.161,12.769-45.016C184.898,104.911,184.084,95.64,185.257,87.032z M106.622,133.446
				c-1.815-1.464-3.068-3.561-4.996-5.047c-3.737-2.88-7.88-6.022-9.208-10.78c-1.016-3.64-4.906-16.446-5.413-22.929
				c-0.271-5.855-0.097-11.666,0.176-17.664c0.447-9.8-0.029-21.962,5.176-30.64c7.329-12.221,25.369-2.668,36.121-1.093
				c9.48,1.389,24.019-10.087,32.992-5.039c15.381,8.655,14,29.53,16.769,45.251l-0.142-0.319c1.081,4.428,1.219,9.717,0.462,14.193
				c-0.835,4.939-1.789,10.994-3.853,15.552c-1.565,3.457-3.953,5.629-6.64,8.359c-1.823,1.852-3.161,4.163-4.246,6.506
				c-1.093,2.362-1.308,4.116-4.029,4.987c0.326-0.104-3.5-4.457-3.859-4.747c-1.52-1.227-3.441-2.451-5.439-2.636
				c-6.199-0.574-10.234,5.219-15.664,5.52c-5.161,0.285-9.464-6.392-16.194-4.791c-2.587,0.616-4.828,2.046-6.91,3.65
				C110.116,133.02,108.73,135.146,106.622,133.446z M134.671,175.809c-8.484,0.357-14.289-4.152-18.641-11.164
				c-0.26-0.557-0.522-1.11-0.788-1.653c-1.772-3.624-4.506-7.698-5.759-11.534c-1.725-5.282-1.905-7.631,2.685-11.733
				c1.174-1.049,3.165-1.36,4.675-1.564c3.741-0.505,7.738,0.457,11.383,1.217c1.549,0.323,3.106,0.739,4.683,0.901
				c5.122,0.525,9.631-0.329,14.353-1.757c1.958-0.592,4.426-1.615,6.626-1.205c11.262,2.096,5.972,15.944,2.902,22.679
				c-1.422,3.119-3.489,6.281-5.659,8.921c-2.342,2.85-5.348,4.912-8.923,5.88C139.778,175.455,137.182,175.703,134.671,175.809z"/>
		</g>
		<g>
			<path fill="#FFC4B0" d="M92.931,261.707c2.428-0.993,5.331,1.052,7.824,1.25c2.668,0.212,2.582-1.418,3.1-3.625
				c0.581-2.477,2.568-3.622,3.423-5.752c0.555-1.384-0.543-2.736-1.104-3.869c-0.753-1.52-1.422-2.577-3.467-1.569
				c-1.823,0.899-3.336,2.539-5.227,3.477c-0.986,0.489-2.327,1.71-3.434,1.654c-0.322-2.835,2.618-6.123,1.849-9.018
				c-0.274-1.032-1.728-1.763-2.492-2.455c-1.617-1.467-2.329-2.986-4.568-2.081c-4.38,1.77-4.417,6.327-3.101,9.996
				c0.398,1.11,1.861,3.825,0.198,4.514c-1.545-1.364-1.278-3.059-2.622-4.353c-0.743-0.714-1.135-0.727-2.084-1.064
				c-0.934-0.331-1.733-1.22-2.546-1.503c-1.781-0.62-4.962,1.319-6.289,2.559c-1.304,1.219-2.189,2.761-2.51,4.377
				c-0.378,1.907-0.728,3.865,0.891,4.813c1.201,0.703,3.453,0.879,4.839,0.78c2.631-0.188,5.328-0.815,7.997-0.918
				c-1.396,1.363-4.01,1.38-5.758,2.312c-1.208,0.644-2.228,1.462-2.977,2.65c-0.992,1.575-0.677,1.725,0.148,3.221
				c0.341,0.618,0.392,0.835,0.601,1.654c0.405,1.583,0.878,2.012,1.702,3.253c1.397,2.103,2.46,2.389,5.075,1.589
				c2.464-0.754,3.524-1.788,4.647-4.094c0.713-1.464,1.012-3.234,2.155-4.337c0.387,0.891-0.495,2.491-0.786,3.397
				c-0.595,1.852-0.946,3.628-1.249,5.552c-0.236,1.501-0.681,2.679,0.312,3.862c0.863,1.028,2.634,1.527,3.87,1.177
				c2.965-0.84,4.829-4.76,6.765-6.843c0.933-1.003,1.511-1.933,2.333-2.974c0.398-0.504,1.787-1.223,1.694-2.033
				c-0.078-0.684-2.343-1.788-2.949-2.181c-1.059-0.688-2.13-1.22-2.998-2.169c-0.554-0.606-0.841-1.332-1.55-1.714"/>
			<path fill="#EF6E5C" d="M116.933,266.368c1.905-1.419,4.688-4.828,5.437-7.106c0.437-1.327,0.572-1.634-0.149-2.747
				c-0.181-0.28-3.069-2.162-3.173-2.048c1.042-1.155,2.061-2.341,3.156-3.444c-2.152-7.386-13.151-9.248-18.578-5.273
				c-1.11,0.813-11.191,9.669-10.882,10.062c0.299,0.38,0.539,0.806,0.713,1.26c0,0,4.032-0.554,4.032-0.554
				c1.958-0.269-0.022,1.461-0.52,1.729c-0.825,0.445-2.246,0.211-3.169,0.291c-1.114,3.259,8.481,6.561,10.818,7.783
				c0.825,0.431,1.669,0.809,2.521,1.111C110.438,268.599,113.873,268.646,116.933,266.368z M87.397,282.956
				c1.235,3.481,3.843,5.636,7.31,6.826c1.607,0.551,3.638,1.104,5.27,0.33c1.08-0.512,1.449-2.117,2.411-2.663
				c1.583-0.898,2.135-0.154,4.11,0.634c2.771-3.601,5.165-8.679,4.195-13.337c-0.502-2.364-1.93-4.35-4.249-5.918
				c-0.561-0.235-1.123-0.505-1.692-0.822c-1.716-0.957-3.285-1.824-4.713-2.612c-3.043-1.586-5.439-2.844-7.236-3.788
				c-0.249,0.329-0.538,0.62-0.862,0.872c0,0,1.73,3.572,1.73,3.572c0.67,1.383-1.112,0.845-1.536,0.569
				c-0.815-0.53-1.127-2.516-1.496-3.377c-0.408,0.283-0.784,0.623-1.128,1.011C85.799,268.444,85.729,278.256,87.397,282.956z
				 M88.912,253.978c0.095-0.937,0.22-4.567,1.435-4.491c1.505,0.094,0.268,3.767,0.026,4.677c1.908,1.664,6.104-3.851,7.417-5.079
				c3.837-3.587,8.981-8.166,7.376-14.005c-1.052-3.826-4.224-7.21-7.28-9.61c-0.621,0.518-3.72,3.085-3.72,3.085l-0.383-0.657
				c0,0-1.627-2.828-2.029-3.53c-3.403,1.089-7.195,2.915-9.563,5.67c-3.984,4.636-1.805,9.619,0.451,14.443
				c0.888,1.9,3.918,10.548,6.223,9.518C88.881,253.993,88.897,253.985,88.912,253.978z M57.122,245.23
				c-0.049,3.852,0.58,7.972,2.803,11.215c2.821,4.114,7.182,4.353,11.733,3.878c1.349-0.141,12.621-1.368,12.645-1.796
				c0.011-0.206,0.027-0.407,0.065-0.621c0.034-0.192,0.089-0.387,0.143-0.572l-3.602-1.929c-0.377-0.199-0.518-0.665-0.316-1.042
				s0.662-0.517,1.04-0.315l3.571,1.914c0.279-0.382,0.605-0.716,0.979-1.001c-0.894-1.875-2.128-4.475-3.717-7.855
				c-0.724-1.467-1.528-3.069-2.412-4.823c-2.066-4.174-4.909-6.607-9.856-6.392c-2.387,0.104-5.193,1.166-7.366,2.082
				c-3.687,1.554-2.266,3.06-1.001,6.236C60.261,244.544,58.675,244.855,57.122,245.23z M61.157,271.844
				c-0.194,1.865-0.683,4.834,0.382,6.532c0.444,0.707,4.81,2.929,5.088,1.527c-1.093,5.524,2.516,6.108,7.376,6.037
				c8.695-0.128,10.627-7.271,11.828-14.502c0.586-3.527,1.058-6.278,1.411-8.305c-0.339-0.141-0.658-0.317-0.95-0.522l-2.87,2.755
				c-0.305,0.293-0.793,0.283-1.087-0.026c-0.294-0.302-0.285-0.789,0.022-1.086l2.843-2.728c-0.337-0.466-0.593-0.996-0.743-1.556
				c-2.06,0.272-4.904,0.638-8.598,1.096c-1.615,0.244-3.393,0.509-5.339,0.809c-0.64,0.096-1.244,0.215-1.812,0.361
				C64.008,263.435,61.727,266.378,61.157,271.844z"/>
		</g>
		<g>
			<path fill="#7B987F" d="M240.399,175.955c-0.018,0.029-0.041,0.053-0.058,0.082c-0.008,0.025-0.007,0.052-0.016,0.078
				C240.343,176.076,240.381,175.995,240.399,175.955z"/>
			<path fill="#7B987F" d="M243.455,182.656c0.565-1.01,1.226-1.486,2.469-1.742c1.561-0.303,2.88,0.015,4.474-0.467
				c-2.309,1.539-5.288,0.533-7.064,2.45c-0.176,0.308-0.32,0.623-0.362,0.904c-0.292,2.213,2.159,3.887,4.115,2.937
				c2.626-1.229,4.792-4.529,5.406-7.327c-1.718,0.33-2.993-0.508-4.52-1.117c-1.765-0.625-3.631-0.609-5.102,0.664
				c-0.754,0.677-1.419,1.789-1.17,2.833C241.868,182.702,242.686,182.836,243.455,182.656z"/>
			<path fill="#7B987F" d="M243.264,182.957c0.022-0.024,0.049-0.036,0.07-0.061c0.025-0.039,0.04-0.08,0.065-0.122
				C243.339,182.797,243.301,182.878,243.264,182.957z"/>
			<path fill="#7B987F" d="M239.65,176.83c0.266-0.188,0.494-0.481,0.69-0.793c0.822-2.437-1.481-4.594-1.225-7.331
				c0.324,1.619,1.227,2.624,1.709,4.118c0.353,1.241,0.276,2.039-0.329,3.028c0.182,0.77,0.717,1.408,1.582,1.124
				c1.024-0.307,1.687-1.42,1.934-2.38c0.401-1.917-0.46-3.539-1.888-4.788c-1.243-1.115-2.593-1.79-3.099-3.441
				c-2.189,1.869-4.052,5.361-3.887,8.273C235.243,176.841,237.863,178.155,239.65,176.83z"/>
			<path fill="#7B987F" d="M237.007,184.85c0.028,0.075,0.046,0.144,0.07,0.217c0.006,0.006,0.01,0.013,0.016,0.018
				C237.031,185.008,237.028,184.908,237.007,184.85z"/>
			<path fill="#7B987F" d="M235.858,197.135c0.027,0.057,0.039,0.114,0.063,0.173c0.001,0,0.001,0,0.001,0
				C235.901,197.25,235.88,197.192,235.858,197.135z"/>
			<path fill="#7B987F" d="M237.259,185.995c0.024-0.309-0.068-0.608-0.182-0.928c-1.459-2.216-4.583-1.581-6.697-3.439
				c1.53,0.71,2.876,0.552,4.34,1.087c1.222,0.42,1.815,0.938,2.243,2.017c0.745,0.295,1.536,0.272,1.848-0.61
				c0.368-1.003-0.123-2.159-0.8-2.915c-1.274-1.471-3.127-1.696-4.944-1.365c-1.638,0.367-2.968,1.02-4.63,0.495
				c0.241,2.852,1.934,6.375,4.403,8.009C234.623,189.565,237.285,188.256,237.259,185.995z"/>
			<path fill="#7B987F" d="M236.128,198.237c0.01-0.287-0.081-0.611-0.206-0.929c-1.436-2.18-4.552-1.573-6.671-3.436
				c1.49,0.691,2.857,0.592,4.34,1.085c1.224,0.421,1.797,0.98,2.226,2.057c0.742,0.296,1.554,0.233,1.846-0.609
				c0.369-1.003-0.103-2.201-0.78-2.956c-1.275-1.472-3.149-1.754-4.945-1.365c-1.638,0.367-2.987,1.062-4.629,0.495
				c0.241,2.852,1.912,6.416,4.384,8.051C233.493,201.81,236.155,200.499,236.128,198.237z"/>
			<path fill="#7B987F" d="M252.24,191.767c-1.719,0.332-2.935-0.529-4.52-1.118c-1.766-0.621-3.632-0.609-5.103,0.667
				c-0.755,0.678-1.417,1.79-1.168,2.832c0.166,0.909,0.984,1.045,1.772,0.822c0.548-0.968,1.209-1.444,2.453-1.699
				c1.557-0.303,2.876,0.016,4.472-0.469c-2.337,1.557-5.366,0.494-7.075,2.49c0.018-0.04,0.056-0.121,0.074-0.16
				c-0.207,0.344-0.375,0.706-0.385,1.044c-0.312,2.254,2.098,3.909,4.055,2.959C249.46,197.864,251.626,194.564,252.24,191.767z"/>
			<path fill="#7B987F" d="M240.325,177.484c-0.586,11.176-1.422,25.948-7.59,35.658c-3.967,6.232-7.102,10.084-11.852,13.997
				l1.811,0.84c3.999-3.135,6.783-6.542,9.773-11.097c9.18-13.988,8.258-28.985,8.305-38.994L240.325,177.484z"/>
		</g>
		<g>
			<path fill="#FFC4B0" d="M137.408,285.71c0.649-0.743,0.619-2.117,0.984-3.031c0.409-1.023,0.898-1.586,1.623-2.433
				c0.766-0.895,1.988-2.699,2.157-3.838c-2.062,0.178-2.284,1.469-3.586,2.845c-0.8,0.846-1.907,1.882-3.035,1.982
				c-2.013,0.179-3.405-0.889-4.567-2.39c-1.51-1.95-3.21-5.009-3.336-7.51c-0.129-2.56,0.252-3.23,2.962-3.693
				c2.175-0.371,4.551-0.455,6.708,0.063c1.058,0.254,2.148,0.817,3.214,0.881c-0.814-2.587-4.317-3.525-6.377-4.828
				c-1.479-0.935-2.685-2.377-2.552-4.277c0.127-1.805,0.963-4.087,2.409-5.18c1.838-1.389,3.701-1.825,5.854-0.755
				c1.937,0.963,2.517,2.512,3.312,4.362c0.948,2.206,2.335,4.067,3.402,6.139c0.734-1.612,0.862-3.911,1.239-5.68
				c0.171-0.802,0.062-1.47,0.659-2.1c0.741-0.782,2.226-1.569,3.26-1.975c2.786-1.093,5.242-1.036,7.633,0.872
				c1.379,1.101,2.901,3.24,2.561,5.136c-0.418,2.33-4.376,4.068-5.933,5.682c-0.639,0.662-1.407,1.609-1.844,2.443
				c-0.205,0.392-0.748,0.482-0.389,1.026c0.543,0.825,2.77-0.163,3.356-0.404c1.572-0.646,3.098-1.729,4.766-2.083
				c1.751-0.372,3.731,1.079,5.025,2.172c1.638,1.383,2.917,3.765,2.693,5.877c-0.136,1.28,0.02,2.568-0.721,3.431
				c-0.484,0.564-1.378,1.048-2.081,1.216c-2.881,0.689-5.408-1.312-7.848-2.342c-1.672-0.705-4.217-2.578-6.011-2.342
				c0.448,1.267,2.273,1.688,3.277,2.34c1.07,0.695,1.918,1.916,2.741,2.856c1.144,1.307,3.419,3.168,3.279,5.091
				c-0.138,1.902-2.188,2.905-3.707,3.542c-1.762,0.738-3.413,0.704-5.08-0.204c-1.25-0.681-1.87-2.036-2.837-3.043
				c-0.7-0.728-1.341-1.436-1.863-2.251c-0.385-0.602-0.781-1.61-1.244-2.083c0.226,3.728,3.849,8.444,0.05,11.276
				c-2.037,1.518-4.534,2.565-6.423,0.304c-1.306-1.563-2.661-3.655-3.083-5.684c-0.088-0.425-0.228-1.749-0.378-1.406"/>
			<g>
				<path fill="#92B89A" d="M142.981,268.333c-0.055-0.055-0.113-0.11-0.168-0.165c0.021-0.02,0.043-0.046,0.063-0.059
					C142.911,268.181,142.949,268.258,142.981,268.333z"/>
				<path fill="#92B89A" d="M143.932,267.568c-0.048-0.099-0.095-0.193-0.144-0.286c0.039-0.026,0.075-0.051,0.111-0.079
					C143.909,267.327,143.919,267.446,143.932,267.568z"/>
				<path fill="#92B89A" d="M152.33,275.591c0.065,0.055,0.129,0.112,0.19,0.168c-0.013,0.008-0.031,0.023-0.045,0.033
					C152.426,275.726,152.379,275.657,152.33,275.591z"/>
				<path fill="#DE8C76" d="M128.162,251.976c3.549-3.991,9.292-8.494,14.575-4.078c3.554,2.971,1.949,10.167,3.43,14.481
					c0.022,0.97,0.085,1.938,0.183,2.898c-0.016,0.011-0.03,0.02-0.046,0.028c-0.379-1.408-0.786-2.845-1.39-4.23
					c-0.307-0.848-1.039-1.807-1.677-2.328c-0.584-0.658-1.148-1.383-1.521-2.218l-0.132-0.269l0.074,0.287
					c0.178,0.91,0.603,1.768,1.124,2.567c0.66,0.791,0.966,1.383,1.252,2.302c0.49,1.511,0.835,3.084,1.253,4.671
					c-0.034,0.033-0.065,0.064-0.093,0.096c-1.432-1.923-3.357-3.135-4.857-4.717c-0.443-0.457-0.873-0.927-1.16-1.452
					c-0.359-0.603-0.813-1.167-1.307-1.607c-0.977-0.927-2.054-1.676-3.072-2.495l-0.329-0.269l0.286,0.313
					c0.883,0.972,1.858,1.868,2.687,2.853c0.439,0.489,0.758,0.998,1.028,1.556c0.299,0.666,0.736,1.212,1.169,1.736
					c1.549,1.83,3.58,3.277,4.79,5.042c-0.017,0.025-0.033,0.05-0.056,0.075c-1.295-0.913-2.614-1.391-3.844-2.154
					c-1.305-1.294-3.325-1.988-4.994-2.697l-0.278-0.124l0.249,0.182c1.574,1.131,3.192,1.901,4.496,3.419
					c1.061,0.774,2.307,1.421,3.336,2.088c-0.757,0.11-2.03-0.287-4.696-1.579c-2.349-1.14-4.39-2.023-6.882-2.5
					c-3.205-0.613-5.352-1.402-5.727-4.919C125.769,256.464,126.464,253.886,128.162,251.976z"/>
				<path fill="#92B89A" d="M144.167,263.971l0.05,2.335c-0.023,0.013-0.046,0.024-0.065,0.035
					c-0.098-0.961-0.161-1.928-0.183-2.898C144.029,263.626,144.093,263.802,144.167,263.971z"/>
				<g>
					<path fill="#DE8C76" d="M147.687,266.01l-0.671-0.924c0.929-3.43-0.043-15.003,4.227-17.14c2.69-1.349,4.828-3.261,7.929-2.972
						c3.148,0.294,4.467,2.486,6.24,4.827c1.426,1.88,3.847,5.258,2.388,7.834c-1.293,2.277-3.604,0.965-5.362,3.211
						c-1.614,2.068-7.229,6.1-8.678,8.085c-0.245,0.34-0.783-0.133-1.14-0.146c1.191-1.436,2.75-2.644,4.167-4.028
						c1.568-1.607,2.944-3.214,4.496-4.757l0.247-0.257l-0.286,0.212c-1.773,1.223-3.443,2.745-5.044,4.152
						c-1.646,1.384-3.502,2.666-4.87,4.532c-0.05,0.066-0.068,0.131-0.064,0.193c-0.292,0.009-0.578-0.002-0.855-0.066
						c1.034-1.827,2.651-3.893,3.856-5.91c1.414-2.241,2.658-4.54,4.047-6.758l0.233-0.357l-0.318,0.282
						c-1.992,1.741-3.711,3.79-5.383,5.81c-1.426,1.843-2.896,3.392-4.173,5.541l-0.256-0.356c0.018-0.021,0.034-0.044,0.046-0.068
						c1.824-3.792,3.816-7.588,5.655-11.386l0.148-0.308l-0.2,0.279C151.669,258.809,149.491,262.313,147.687,266.01z"/>
					<path fill="#DE8C76" d="M173.764,275.085c-0.79,1.853-2.222,3.758-2.688,5.62c-1.35,5.361-4.941,1.85-7.181,0.529
						c-4.692-2.756-5.828-3.662-11.513-6.618l0.2-0.68c4.22,1.122,8.097,3.518,12.233,5.027l0.34,0.13l-0.327-0.163
						c-3.911-1.934-7.663-4.502-12.044-5.683l0.065-0.225c4.874,1.848,9.942,2.663,14.87,3.787l0.4,0.097l-0.383-0.155
						c-4.703-1.91-9.804-3.078-14.476-4.844c-0.027-0.012-0.052-0.017-0.076-0.022l0.023-0.086c1.783,0.089,3.636,0.61,5.55,0.84
						c2.159,0.181,4.286,0.452,6.439,0.366l0.345-0.026l-0.345-0.034c-2.088-0.323-4.184-0.878-6.287-1.231
						c-1.731-0.352-3.474-0.931-5.359-1.078l0.171-0.584c5.065-1.055,8.622-10.535,15.182-6.992
						C174.647,266.159,175.674,270.596,173.764,275.085z"/>
					<path fill="#DE8C76" d="M141.285,269.061c-3.337,0.406-6.849,0.255-10.251,0.764l-0.325,0.04l0.328,0.021
						c3.713,0.205,7.513,0.791,11.364,0.22c0.12,0.153,0.227,0.307,0.321,0.47c-3.953,0.663-7.99,1.413-11.928,2.191l-0.378,0.053
						l0.376,0.042c4.151,0.288,8.313,0.025,12.465-0.579c0.016,0.08,0.027,0.163,0.036,0.241c-3.874,1.012-7.071,3.348-10.344,5.238
						l-0.286,0.167l0.31-0.11c3.531-1.179,6.835-3.124,10.315-4.065c-2.549,1.949-3.232,2.69-4.042,4.889
						c-1.143,3.102-3.569,4.085-6.23,5.555c-2.798,1.544-4.566,2.552-7.715,1.401c-2.986-1.092-4.659-1.929-5.762-5.138
						c-0.873-2.526-2.691-5.825-1.072-8.446c1.147-1.854,4.433-4.405,6.132-5.817c4.91-4.08,7.551-1.04,12.746,1.025
						C137.345,267.224,139.589,267.813,141.285,269.061z"/>
					<path fill="#DE8C76" d="M135.235,297.868c-1.899-1.888-5.248-6.706-4.56-9.758c0.501-2.244,5.652-3.213,7.001-4.985
						c1.342-1.755,3.361-5.686,5.208-6.909l0.344,0.13c-0.523,1.362-1.131,2.693-1.776,4.019c-0.906,1.392-0.909,3.232-2.079,4.286
						l-0.209,0.16l0.24-0.112c1.534-0.865,1.829-2.692,2.829-3.897c0.812-1.282,1.517-2.646,2.066-4.065l0.081,0.03
						c-0.844,2.202-1.536,4.461-2.444,6.641l-0.078,0.179l0.127-0.145c1.559-1.772,2.579-3.964,3.408-6.139
						c0.048,0.051,0.095,0.094,0.141,0.133c-0.943,1.928-1.489,3.893-2.098,5.836c-0.642,2.079-1.358,4.254-1.841,6.406
						l-0.085,0.351l0.166-0.321c1.003-1.992,2.032-3.913,2.945-6.011c0.721-1.67,1.332-3.404,2.064-4.984
						c-0.158,0.755-0.267,1.506-0.382,2.244c-0.092,1.198-0.711,2.486-0.319,3.793l0.064,0.195l-0.004-0.205
						c0.003-1.25,0.841-2.296,1.138-3.591c0.271-0.91,0.469-1.824,0.713-2.691c-0.952,3.474,1.606,9.447,2.16,11.896
						c0.549,2.402,2.158,5.19,0.634,7.608c-0.902,1.433-6.062,3.276-7.731,2.889C141.329,300.464,136.438,299.068,135.235,297.868z"
						/>
					<path fill="#DE8C76" d="M154.596,276.359c1.646,1.548,4.104,2.833,5.997,4.012c3.62,2.26,9.291,6.231,5.32,10.732
						c-0.733,0.833-2.097,2.04-3.075,2.588c-1.597,0.903-2.008,0.303-3.624,0.11c-2.111-0.256-4.683,0.182-6.603-1.027
						c-2.319-1.465-1.57-4.832-2.755-7.076c-0.977-1.856-2.304-4.235-1.218-7.562l0.272-0.107c0.78,1.347,1.396,2.933,2.429,4.217
						l0.111,0.145l-0.067-0.166c-0.638-1.63-0.93-3.424-1.865-5.047c0.057-0.079,0.113-0.154,0.167-0.228
						c0.961,1.413,1.996,2.675,2.798,4.027c1.105,1.869,2.383,3.526,3.723,5.164l0.22,0.266l-0.13-0.317
						c-0.733-1.957-1.621-3.902-2.397-5.795c-0.744-1.789-1.854-3.31-2.792-4.789c0.011-0.009,0.027-0.019,0.041-0.026
						c1.694,1.618,3.163,3.632,4.886,5.338l0.158,0.164l-0.115-0.195c-1.169-1.918-2.288-3.93-3.886-5.642
						C152.89,275.123,153.67,275.484,154.596,276.359z"/>
				</g>
			</g>
			<path fill="#EF6E5C" d="M147.372,275.467c-1.534,1.71-2.792-1.832-3.445-2.479c1.086-0.964-0.559-1.389-0.312-2.393
				c0.183-0.745,1.659-0.424,1.011-1.497c1.344-0.678,2.941-0.499,4.029,0.457c0.301,0.264,0.519,1.098,0.921,1.277
				c0.857,0.381,0.803-0.397,1.699,0.308c1.433,1.129-0.457,2.654-1.691,3.505c-0.692,0.478-2.062,0.703-2.388,1.049"/>
		</g>
		<g>
			<path fill="#EBE8CC" d="M222.705,252.68c0.631-0.267-0.077-0.672,0.376-1.181c0.515-0.578,1.559-0.931,2.22-1.455
				c2.017-1.599,5.323-3.658,6.144-6.145c0.847-2.567,0.281-6.281-0.167-8.908c-0.531-3.113-0.298-5.877-1.772-8.809
				c-1.632-3.248-4.703-6.367-8.374-4.515c-1.745,0.881-1.981,2.84-2.042,4.646c-0.053,1.577,0.348,4.963-1.849,3.54
				c-0.961-0.622-1.76-1.607-2.86-2.253c-2.316-1.36-3.721-1.945-6.35-2.233c-1.968-0.215-3.137-0.662-5.072,0.043
				c-1.559,0.568-3.438,1.176-4.867,2.031c-0.895,0.536-2.243,1.492-2.842,2.355c-0.559,0.804-0.593,2.46-1.325,3.134
				c-1.003,0.924-1.942,0.083-3.186,0.079c-5.183-0.017-6.264,5.692-6.787,9.973c-0.364,2.971-1.471,4.94-1.116,7.996
				c0.365,3.139,1.2,6.336,2.087,9.356c0.93,3.167,4.453,5.258,7.488,6.159c2.505,0.743,5.556,0.658,8.333,1.117
				c3.464,0.573,6.675-0.798,10.038-1.693c1.912-0.509,3.905-0.791,5.762-1.453c2.472-0.882,2.565-1.392,3.866-3.331
				c0.84-1.252,1.964-2.151,2.435-3.683c0.587-1.906,0.205-4.244,0.433-6.201"/>
			<path fill="#F7B164" d="M241.481,226.334c1.837,2.708,1.48,5.682-1.07,8.923l1.882,2.34c1.535,4.825,1.903,7.524,1.122,8.112
				c-1.483,3.716-4.109,6.439-7.858,8.095l-8.536,0.048l-4.53-2.156c4.096-4.47,6.224-10.404,6.389-17.832
				c-1.098-5.485-3.85-9.18-8.253-11.111c-0.266-0.758,1.472-1.772,5.186-3.096l8.446,0.463
				C237.013,220.82,239.43,222.895,241.481,226.334z M229.662,267.49c-1.693,7.966-7.483,10.456-17.402,7.521l-5.078,6.805
				l-6.129,1.906c-8.115-0.245-12.193-4.822-12.187-13.698l-0.993-0.118c-2.049,1.867-4.779,2.27-8.185,1.181l-4.397-2.702
				l-1.7-3.905c-0.248-3.948,0.838-7.018,3.28-9.194l-3.788-4.176c-1.144-2.267-1.351-5.137-0.581-8.604
				c2.525-6.443,8.224-9.472,17.04-9.1l0.348,1.589l-3.347,6.043l-1.612,8.847l1.781,7.107l1.821,2.923l6.935,4.011l6.88,0.294
				l9.407-3.121l9.603-8.99l1.59,0.184C228.094,256.819,230.334,261.904,229.662,267.49z M226.518,239.94
				c-1.918,4.434-4.204,7.337-6.85,8.775l-4.502,2.102L207.689,251c10.376-3.708,14.764-12.41,13.225-26.132l1.592,0.19
				C226.303,228.722,227.645,233.69,226.518,239.94z M220.427,251.447l-8.998,7.977l-8.355,3.249l-7.35-0.872
				c-7.473-2.663-10.07-9.005-7.844-19.05l4.27-8.489c-2.014-1.325-3.22-3.065-3.648-5.247l0.322-2.659
				c0.209-1.721,1.904-3.998,5.096-6.812c2.297-1.487,5.12-1.333,8.451,0.479c2.221-3.668,5.712-5.013,10.574-4.071
				c4.711,2.356,6.791,7.235,6.207,14.599l-1.786,1.931L211,227.476l-4.666-0.56c-2.154,0.104-4.972,1.182-8.419,3.234
				c-2.836,2.877-4.217,7.141-4.187,12.832C196.833,252.904,205.723,255.705,220.427,251.447z M217.164,238.814l-1.806,1.414
				l-1.596-0.199c-2.62-4.598-4.705-6.262-6.293-5.015l-3.321,1.17l-1.432,3.07c0.717,2.901,1.956,4.314,3.743,4.163l5.915-0.365
				l0.273,2.2c-2.013,1.859-4.807,2.775-8.345,2.716c-3.136-0.383-4.793-1.137-5.017-2.25c-2.506-2.753-3.456-5.344-2.857-7.768
				c0.587-4.897,5.371-7.698,14.325-8.418C213.987,229.205,216.127,232.309,217.164,238.814z M209.969,240.669
				c-0.116,1.023-1.573,1.18-4.312,0.501c-1.345-0.511-1.717-1.822-1.11-3.872l2.738-0.741
				C208.957,237.125,209.85,238.508,209.969,240.669z"/>
			<path fill="#92B89A" d="M265.896,253.731l-11.53,7.135c-4.497,2.29-8.361,3.252-11.487,2.875
				c-0.545-1.452-3.633-4.137-9.188-7.997l1.061,0.124l10.83-5.651c1.834-0.82,4.501-0.839,7.971-0.042l9.739,3.238l2.731-0.741
				L265.896,253.731z"/>
			<path fill="#7B987F" d="M243.621,266.533c2.623,4.547,2.931,10.959,0.856,19.225l0.224,2.654
				c-4.347-1.899-7.781-5.87-10.262-11.818l-3.091-14.247l-2.157-4.499l-1.764-2.859l1.074,0.129
				C235.279,257.687,240.31,261.505,243.621,266.533z"/>
		</g>
		<g>
			<path fill="#92B89A" d="M186.804,274.5c0,0-3.734,9.147-5.866,16.519c-0.921,1.671-4.782,5.474-6.43,7.348
				c-0.499-0.126-1.043-0.108-1.56,0.084c-1.359,0.509-2.048,2.022-1.541,3.379c0.507,1.36,2.019,2.049,3.377,1.542
				c1.358-0.508,2.048-2.018,1.539-3.378c-0.267-0.716-0.818-1.246-1.477-1.512c0.803-0.896,4.53-3.865,5.629-5.793
				c-0.491,1.874-0.845,3.562-0.953,4.857c0,0,1.902-6.661,3.977-12.683c0.628,1.583,2.654,6.751,3.142,8.873
				c-0.536,0.066-1.056,0.305-1.457,0.731c-0.918,0.961-0.88,2.486,0.082,3.402c0.962,0.917,2.488,0.881,3.404-0.08
				c0.917-0.966,0.881-2.488-0.081-3.404c-0.395-0.377-0.88-0.59-1.379-0.648c-0.453-1.501-2.341-7.658-3.494-9.499
				c1.482-4.245,3.305-8.238,4.272-8.952l-0.458-1.913c-0.295,0.057-4.324,1.238-5.66,5.3
				C181.871,278.674,185.115,274.386,186.804,274.5"/>
			<circle fill="#92B89A" cx="179.853" cy="279.427" r="2.152"/>
		</g>
		<g>
			<path fill="#EAE1C3" d="M57.746,238.389c-1.441,1.3-9.236-5.913-10.581-7.186c-2.444-2.313-5.148-4.439-7.873-6.404
				c-3.55-2.56-4.121-7.161-7.005-10.138c-1.83-1.889-2.766-3.627-2.823-6.423c2.791,0.179,5.226,3.68,7.209,5.386
				c2.433,2.092,5.206,3.723,7.732,5.704c2.372,1.86,4.648,4.24,6.516,6.62c1.445,1.842,3.108,3.044,4.787,4.664
				c0.678,0.655,0.995,1.281,1.46,2.048c0.36,0.594,1.172,1.383,1.426,2.057c0.5,1.324,0.065,4.872-2.04,3.726"/>
			<path fill-rule="evenodd" clip-rule="evenodd" fill="#92B89A" d="M32.079,210.893c6.163,7.602,20.889,22.169,26.151,24.138
				c0.753,0.279,1.169-0.767,1.027-2.009c-1.173-10.145-3.479-12.009-7.473-11.636c-1.692,0.145-2.282-0.211-2.185-1.987
				c0.314-5.447-1.919-9.662-6.404-9.719c-1.404-0.017-1.881-0.323-2.111-1.574c-1.026-5.549-4.508-8.059-7.231-6.146
				c-1.276,0.895-1.553,0.576-2.163-0.377c-0.983-1.491-4.462-2.539-6.134-0.607c-2.354,2.693-1.29,4.299,0.462,7.391
				c0.458,0.816,0.366,1.395-0.398,1.622c-2.725,0.785-3.801,5.707,1.261,7.597c0.75,0.288,1.115,1.269,0.188,1.787
				c-2.535,1.433-1.855,4.653-0.828,5.751c1.84,1.973,4.24,1.731,5.703,0.915c1.447-0.837,2.257,0.134,1.581,1.377
				c-0.875,1.597-1.659,4.514,0.499,6.127c2.469,1.85,4.808,1.359,6.227,0.745c1.457-0.621,2.063,0.182,1.634,1.247
				c-0.425,1.059,0.2,3.263,1.865,4.057c1.918,0.905,4.538,0.701,6.277-0.877c0.537-0.493,1.248-0.736,1.752,0.368
				c0.947,2.14,4.845,3.104,6.516,0.063c0.287-0.536,0.254-0.901-0.322-1.344c-12.647-9.76-18.942-15.814-26.746-26.264
				C30.46,210.516,31.16,209.766,32.079,210.893z"/>
		</g>
		<g>
			<path fill-rule="evenodd" clip-rule="evenodd" fill="#EAE1C3" d="M57.639,263.16c0.856,0.73,2.275-0.843,1.96-1.846
				c-0.394-1.253-2.118-1.047-3.134-1.163c-7.494-0.858-14.54,0.134-21.846,1.704c-1.904,0.409-3.967,1.491-2.071,3.586
				c2.361,2.609,8.997,1.701,11.976,1.482c3.276-0.24,7.149-0.779,10.262-1.836c0.849-0.288,3.715-0.842,3.59-1.678"/>
			<path fill-rule="evenodd" clip-rule="evenodd" fill="#92B89A" d="M32.84,263.322c6.848,0.196,21.299-0.977,24.746-2.872
				c0.491-0.272,0.126-0.971-0.598-1.461c-5.921-4.006-7.963-3.632-9.587-1.341c-0.695,0.965-1.154,1.115-2.052,0.254
				c-2.749-2.652-6.005-3.389-8.082-1.034c-0.65,0.737-1.03,0.852-1.798,0.403c-3.414-1.987-6.336-1.283-6.562,1.035
				c-0.107,1.086-0.402,1.087-1.187,0.977c-1.24-0.159-3.384,1.211-3.121,2.98c0.356,2.479,1.694,2.646,4.135,3.127
				c0.642,0.129,0.908,0.442,0.679,0.951c-0.827,1.805,1.296,4.622,4.609,2.796c0.495-0.267,1.183-0.013,1.035,0.716
				c-0.395,2,1.624,3.107,2.675,3.064c1.887-0.077,2.853-1.462,3.087-2.61c0.216-1.15,1.101-1.137,1.452-0.211
				c0.449,1.193,1.64,2.94,3.481,2.53c2.109-0.467,2.915-1.933,3.236-2.966c0.335-1.057,1.038-1.012,1.407-0.299
				c0.369,0.709,1.823,1.382,3.005,0.861c1.355-0.605,2.443-2.089,2.398-3.733c-0.017-0.51,0.179-0.999,0.995-0.763
				c1.568,0.474,3.858-1.156,3.006-3.431c-0.153-0.397-0.363-0.546-0.86-0.442c-10.952,2.262-17.037,2.843-26.146,2.218
				C31.902,264.01,31.823,263.296,32.84,263.322z"/>
		</g>
	</g>
</g>
</svg>
