<?xml version="1.0" encoding="utf-8"?>
<!-- Generator: Adobe Illustrator 17.0.0, SVG Export Plug-In . SVG Version: 6.00 Build 0)  -->
<!DOCTYPE svg PUBLIC "-//W3C//DTD SVG 1.1//EN" "http://www.w3.org/Graphics/SVG/1.1/DTD/svg11.dtd">
<svg version="1.1" id="Layer_1" xmlns="http://www.w3.org/2000/svg" xmlns:xlink="http://www.w3.org/1999/xlink" x="0px" y="0px"
	 width="91px" height="59px" viewBox="0 0 91 59" enable-background="new 0 0 91 59" xml:space="preserve">
<g>
	<polygon fill-rule="evenodd" clip-rule="evenodd" fill="#908F87" points="12.406,58.481 12.406,58.225 11.987,58.225 
		11.987,54.033 12.406,54.033 12.406,53.776 10.467,53.776 10.467,54.045 10.892,54.045 10.892,55.903 9.09,55.903 9.09,54.033 
		9.516,54.033 9.516,53.776 7.576,53.776 7.576,54.033 7.995,54.033 7.995,58.225 7.576,58.225 7.576,58.481 9.503,58.481 
		9.503,58.225 9.09,58.225 9.09,56.166 10.892,56.166 10.892,58.225 10.467,58.225 10.467,58.481 12.406,58.481 12.406,58.481 	"/>
	<path fill-rule="evenodd" clip-rule="evenodd" fill="#908F87" d="M18.01,56.166c0.056-1.452-0.801-2.509-2.309-2.509
		c-1.07,0-2.303,0.576-2.371,2.484c-0.037,0.926,0.601,2.458,2.371,2.458C17.491,58.6,17.973,57.024,18.01,56.166L18.01,56.166
		L18.01,56.166L18.01,56.166z M16.859,56.179c0,1.314-0.319,2.184-1.157,2.184c-0.889,0-1.195-1.126-1.195-2.184
		c0-1.095,0.231-2.39,1.195-2.39C16.633,53.789,16.859,55.14,16.859,56.179L16.859,56.179L16.859,56.179z"/>
	<path fill-rule="evenodd" clip-rule="evenodd" fill="#908F87" d="M23.078,55.566v-1.79h-4.161v1.79h0.125
		c0-1.402,0.92-1.533,1.239-1.533h0.106v4.192h-0.425v0.257h1.94v-0.257h-0.419v-4.192h0.125c0.263,0,1.345,0.131,1.345,1.533
		H23.078L23.078,55.566L23.078,55.566z"/>
	<path fill-rule="evenodd" clip-rule="evenodd" fill="#908F87" d="M28.262,58.481v-1.658h-0.15c0,0.92-0.745,1.402-1.264,1.402
		h-1.352v-2.04h0.557c0.482,0.025,0.795,0.213,0.795,1.013h0.144v-2.19h-0.144c0,0.463-0.325,0.957-0.795,0.957h-0.557v-1.933h1.039
		c1.101,0,1.314,0.275,1.501,1.452h0.119v-1.708h-4.173v0.257h0.419v4.192c-0.15,0-0.256,0-0.419,0v0.257H28.262L28.262,58.481
		L28.262,58.481z"/>
	<path fill-rule="evenodd" clip-rule="evenodd" fill="#908F87" d="M32.939,58.481v-1.871h-0.138
		c-0.132,0.719-0.369,1.614-1.589,1.614c-0.188,0-0.344,0-0.532,0v-4.192h0.426v-0.257h-1.94v0.257h0.419v4.192h-0.419v0.257H32.939
		L32.939,58.481L32.939,58.481z"/>
	<path fill-rule="evenodd" clip-rule="evenodd" fill="#908F87" d="M37.876,56.973c0-0.939-0.663-1.571-1.696-1.608
		c-0.976-0.037-1.721-0.037-1.721-0.732c0-0.644,0.651-0.763,1.157-0.763c1.326,0,1.714,1.226,1.771,1.446h0.181v-1.539h-0.181
		c-0.006,0.144,0,0.344-0.175,0.344c-0.232,0-0.67-0.463-1.658-0.463c-0.964,0-1.658,0.651-1.658,1.546
		c0,0.795,0.657,1.476,1.614,1.489c0.914,0.013,1.739,0.063,1.739,0.801c0,0.669-0.72,0.844-1.376,0.857
		c-1.139,0.013-1.645-0.751-1.858-1.564H33.84v1.696h0.175c0,0,0.037-0.344,0.244-0.344c0.382,0,0.544,0.463,1.639,0.463
		C37.194,58.6,37.876,57.843,37.876,56.973L37.876,56.973L37.876,56.973z"/>
	<path fill-rule="evenodd" clip-rule="evenodd" fill="#908F87" d="M45.036,57.211h-0.169c0,0.225-0.013,0.613-0.313,0.613
		c-0.306,0-0.625-0.469-0.625-0.469c0.081-0.144,0.319-0.601,0.319-1.452c0-0.138-0.025-0.269-0.05-0.401l-0.257,0.05
		c0.031,0.669,0.069,1.201-0.2,1.646l-1.508-1.527c0.225-0.144,0.826-0.438,0.826-1.057c0-0.425-0.25-0.958-1.045-0.958
		c-0.732,0-1.389,0.519-1.389,1.226c0,0.457,0.188,0.682,0.538,1.126c-0.257,0.119-1.126,0.544-1.126,1.389
		c0,0.494,0.363,1.201,1.564,1.201c1.201,0,1.577-0.375,1.646-0.425c0.106,0.094,0.294,0.282,0.738,0.282
		c0.907,0,1.014-0.62,1.039-0.832C45.048,57.455,45.036,57.211,45.036,57.211L45.036,57.211L45.036,57.211L45.036,57.211z
		 M42.589,54.615c0,0.325-0.106,0.588-0.532,0.882c0,0-0.644-0.569-0.644-1.063c0-0.294,0.231-0.607,0.601-0.607
		C42.376,53.826,42.589,54.226,42.589,54.615L42.589,54.615L42.589,54.615L42.589,54.615z M43.084,58.012
		c-0.188,0.175-0.732,0.294-0.907,0.294c-0.638,0-1.12-0.576-1.12-1.257c0-0.25,0.106-0.67,0.332-0.801L43.084,58.012L43.084,58.012
		L43.084,58.012z"/>
	<path fill-rule="evenodd" clip-rule="evenodd" fill="#908F87" d="M52.124,57.361h-0.156c0,0.307-0.094,0.789-0.332,0.789
		c-0.294,0-0.232-0.294-0.281-0.951c-0.056-0.882-0.644-1.02-0.939-1.07c0.2-0.056,1.07-0.15,1.07-1.139
		c0-0.669-0.282-1.214-1.47-1.214h-2.809v0.257h0.419v4.192h-0.419v0.257h1.94v-0.257H48.72v-1.99h0.732
		c0.726,0,0.726,0.319,0.726,1.201c0,0.926,0.507,1.164,0.989,1.164C51.911,58.6,52.124,58.118,52.124,57.361L52.124,57.361
		L52.124,57.361L52.124,57.361z M50.391,55.059c0,0.563-0.257,0.92-0.938,0.92H48.72v-1.946h0.801
		C50.159,54.033,50.391,54.495,50.391,55.059L50.391,55.059L50.391,55.059z"/>
	<path fill-rule="evenodd" clip-rule="evenodd" fill="#908F87" d="M57.31,58.481v-1.658h-0.15c0,0.92-0.744,1.402-1.264,1.402
		h-1.352v-2.04h0.557c0.482,0.025,0.795,0.213,0.795,1.013h0.144v-2.19h-0.144c0,0.463-0.325,0.957-0.795,0.957h-0.557v-1.933h1.039
		c1.101,0,1.314,0.275,1.502,1.452h0.119v-1.708h-4.173v0.257h0.419v4.192c-0.15,0-0.257,0-0.419,0v0.257H57.31L57.31,58.481
		L57.31,58.481z"/>
	<path fill-rule="evenodd" clip-rule="evenodd" fill="#908F87" d="M62.251,56.973c0-0.939-0.663-1.571-1.696-1.608
		c-0.976-0.037-1.721-0.037-1.721-0.732c0-0.644,0.651-0.763,1.158-0.763c1.326,0,1.714,1.226,1.771,1.446h0.182v-1.539h-0.182
		c-0.006,0.144,0,0.344-0.175,0.344c-0.232,0-0.67-0.463-1.658-0.463c-0.964,0-1.658,0.651-1.658,1.546
		c0,0.795,0.657,1.476,1.614,1.489c0.913,0.013,1.739,0.063,1.739,0.801c0,0.669-0.72,0.844-1.376,0.857
		c-1.139,0.013-1.646-0.751-1.858-1.564h-0.175v1.696h0.175c0,0,0.037-0.344,0.244-0.344c0.382,0,0.544,0.463,1.639,0.463
		C61.568,58.6,62.251,57.843,62.251,56.973L62.251,56.973L62.251,56.973z"/>
	<path fill-rule="evenodd" clip-rule="evenodd" fill="#908F87" d="M67.83,56.166c0.056-1.452-0.801-2.509-2.309-2.509
		c-1.07,0-2.303,0.576-2.371,2.484c-0.038,0.926,0.601,2.458,2.371,2.458C67.31,58.6,67.792,57.024,67.83,56.166L67.83,56.166
		L67.83,56.166L67.83,56.166z M66.678,56.179c0,1.314-0.319,2.184-1.157,2.184c-0.889,0-1.195-1.126-1.195-2.184
		c0-1.095,0.231-2.39,1.195-2.39C66.453,53.789,66.678,55.14,66.678,56.179L66.678,56.179L66.678,56.179z"/>
	<path fill-rule="evenodd" clip-rule="evenodd" fill="#908F87" d="M73.655,57.361h-0.156c0,0.307-0.094,0.789-0.332,0.789
		c-0.294,0-0.231-0.294-0.282-0.951c-0.056-0.882-0.644-1.02-0.938-1.07c0.2-0.056,1.07-0.15,1.07-1.139
		c0-0.669-0.281-1.214-1.47-1.214h-2.809v0.257h0.419v4.192h-0.419v0.257h1.94v-0.257h-0.425v-1.99h0.732
		c0.726,0,0.726,0.319,0.726,1.201c0,0.926,0.507,1.164,0.989,1.164C73.442,58.6,73.655,58.118,73.655,57.361L73.655,57.361
		L73.655,57.361L73.655,57.361z M71.922,55.059c0,0.563-0.257,0.92-0.938,0.92h-0.732v-1.946h0.801
		C71.69,54.033,71.922,54.495,71.922,55.059L71.922,55.059L71.922,55.059z"/>
	<path fill-rule="evenodd" clip-rule="evenodd" fill="#908F87" d="M78.723,55.566v-1.79h-4.161v1.79h0.125
		c0-1.402,0.92-1.533,1.239-1.533h0.107v4.192h-0.425v0.257h1.94v-0.257h-0.419v-4.192h0.125c0.263,0,1.345,0.131,1.345,1.533
		H78.723L78.723,55.566L78.723,55.566z"/>
	<path fill-rule="evenodd" clip-rule="evenodd" fill="#908F87" d="M83.662,56.973c0-0.939-0.663-1.571-1.696-1.608
		c-0.976-0.037-1.72-0.037-1.72-0.732c0-0.644,0.651-0.763,1.158-0.763c1.326,0,1.714,1.226,1.771,1.446h0.181v-1.539h-0.181
		c-0.007,0.144,0,0.344-0.175,0.344c-0.231,0-0.67-0.463-1.658-0.463c-0.964,0-1.658,0.651-1.658,1.546
		c0,0.795,0.657,1.476,1.614,1.489c0.913,0.013,1.739,0.063,1.739,0.801c0,0.669-0.72,0.844-1.376,0.857
		c-1.139,0.013-1.646-0.751-1.858-1.564h-0.175v1.696h0.175c0,0,0.037-0.344,0.244-0.344c0.382,0,0.545,0.463,1.639,0.463
		C82.98,58.6,83.662,57.843,83.662,56.973L83.662,56.973L83.662,56.973z"/>
	<path fill-rule="evenodd" clip-rule="evenodd" fill="#908F87" d="M42.337,30.288c-0.908,0-1.644,0.368-2.134,0.491
		c-0.27,0.074-1.055,0.294-1.693,0c-0.123-0.049-0.515-0.074-0.049,0.442c0.123,0.147,0.368,0.294,0.662,0.441
		c1.57,0.761,2.968,0.442,4.661-0.318c0.417-0.197,1.104-0.172,1.104-0.393c-0.025-0.221-0.368-0.368-0.613-0.711
		c-0.932-1.325-2.085-2.429-3.483-2.944c-0.736-0.294-1.079-0.074-0.859,0.123c0.54,0.515,0.81,1.472,1.521,2.281
		C41.675,29.944,41.994,30.19,42.337,30.288L42.337,30.288L42.337,30.288z"/>
	<path fill-rule="evenodd" clip-rule="evenodd" fill="#908F87" d="M44.741,29.577c0-0.515,0.785-1.3,0.932-1.766
		c0.172,0.466,0.932,1.251,0.932,1.766c0,0.515-0.417,0.932-0.932,0.932S44.741,30.092,44.741,29.577L44.741,29.577L44.741,29.577z"
		/>
	<path fill-rule="evenodd" clip-rule="evenodd" fill="#908F87" d="M44.741,32.128c0,0.515,0.785,1.325,0.932,1.791
		c0.172-0.466,0.932-1.276,0.932-1.791c0-0.515-0.417-0.932-0.932-0.932S44.741,31.612,44.741,32.128L44.741,32.128L44.741,32.128z"
		/>
	<path fill-rule="evenodd" clip-rule="evenodd" fill="#908F87" d="M37.701,28.35c-0.834-0.295-1.619-0.221-2.134-0.27
		c-0.27-0.049-1.03-0.074-1.521-0.54c-0.098-0.098-0.442-0.27-0.196,0.393c0.049,0.147,0.221,0.344,0.442,0.589
		c1.202,1.227,2.576,1.398,4.342,1.251c0.466-0.025,1.226,0.147,1.276-0.074c0.049-0.196-0.319-0.392-0.442-0.761
		c-0.417-1.521-1.079-2.919-2.183-3.851c-0.564-0.491-0.981-0.392-0.834-0.147c0.319,0.638,0.245,1.594,0.638,2.576
		C37.21,27.81,37.431,28.129,37.701,28.35L37.701,28.35L37.701,28.35z"/>
	<path fill-rule="evenodd" clip-rule="evenodd" fill="#908F87" d="M33.899,24.891c-0.663-0.515-1.423-0.662-1.865-0.834
		c-0.27-0.123-0.932-0.368-1.251-0.932c-0.074-0.123-0.343-0.368-0.319,0.294c0.025,0.147,0.123,0.392,0.27,0.711
		c0.736,1.423,1.963,1.987,3.631,2.331c0.417,0.122,1.079,0.466,1.177,0.294c0.123-0.147-0.196-0.442-0.172-0.834
		c0.024-1.497-0.196-2.968-0.957-4.121c-0.343-0.638-0.76-0.662-0.687-0.368c0.098,0.662-0.221,1.521-0.147,2.527
		C33.604,24.278,33.727,24.621,33.899,24.891L33.899,24.891L33.899,24.891z"/>
	<path fill-rule="evenodd" clip-rule="evenodd" fill="#908F87" d="M31.593,20.721c-0.466-0.662-1.104-1.03-1.447-1.325
		c-0.221-0.172-0.761-0.613-0.859-1.227c-0.049-0.122-0.221-0.417-0.393,0.197c0,0.147,0,0.392,0.049,0.711
		c0.245,1.546,1.202,2.404,2.6,3.214c0.368,0.245,0.859,0.736,1.006,0.638c0.147-0.123-0.049-0.466,0.074-0.81
		c0.49-1.374,0.711-2.796,0.368-4.072c-0.147-0.687-0.515-0.81-0.515-0.54c-0.123,0.638-0.662,1.325-0.883,2.281
		C31.519,20.059,31.519,20.427,31.593,20.721L31.593,20.721L31.593,20.721z"/>
	<path fill-rule="evenodd" clip-rule="evenodd" fill="#908F87" d="M30.808,15.987c-0.172-0.711-0.638-1.251-0.834-1.644
		c-0.098-0.221-0.442-0.785-0.319-1.374c0-0.098-0.049-0.442-0.392,0.049c-0.074,0.123-0.147,0.368-0.221,0.638
		c-0.294,1.423,0.27,2.502,1.202,3.704c0.245,0.319,0.49,0.957,0.638,0.883c0.171-0.049,0.147-0.417,0.368-0.662
		c0.859-1.055,1.545-2.232,1.644-3.459c0.098-0.638-0.172-0.908-0.245-0.662c-0.319,0.54-1.055,0.957-1.521,1.717
		C30.955,15.373,30.808,15.717,30.808,15.987L30.808,15.987L30.808,15.987z"/>
	<path fill-rule="evenodd" clip-rule="evenodd" fill="#908F87" d="M31.421,11.546c0-0.711-0.27-1.325-0.368-1.717
		c-0.049-0.245-0.196-0.834,0.049-1.325c0.024-0.123,0.049-0.442-0.392-0.074c-0.074,0.098-0.196,0.294-0.343,0.54
		c-0.613,1.227-0.368,2.38,0.196,3.704c0.147,0.343,0.221,0.981,0.368,0.957c0.171,0,0.245-0.343,0.49-0.539
		c1.055-0.761,1.963-1.644,2.38-2.748c0.245-0.564,0.049-0.883-0.074-0.687c-0.417,0.417-1.178,0.613-1.815,1.227
		C31.691,11.007,31.495,11.301,31.421,11.546L31.421,11.546L31.421,11.546z"/>
	<path fill-rule="evenodd" clip-rule="evenodd" fill="#908F87" d="M33.187,7.597c0.221-0.687,0.123-1.349,0.147-1.766
		c0-0.245,0.024-0.858,0.393-1.276c0.074-0.073,0.172-0.368-0.319-0.147c-0.123,0.049-0.295,0.196-0.491,0.417
		c-0.957,1.006-1.03,2.183-0.858,3.606c0.049,0.393-0.049,1.006,0.098,1.03c0.172,0.049,0.319-0.27,0.638-0.392
		c1.202-0.417,2.331-1.031,3.018-1.963c0.392-0.491,0.319-0.834,0.123-0.687c-0.515,0.27-1.3,0.27-2.085,0.662
		C33.604,7.155,33.334,7.376,33.187,7.597L33.187,7.597L33.187,7.597z"/>
	<path fill-rule="evenodd" clip-rule="evenodd" fill="#908F87" d="M35.91,4.457c0.393-0.515,0.54-1.079,0.662-1.423
		c0.098-0.172,0.294-0.687,0.736-0.883c0.098-0.074,0.27-0.294-0.221-0.245c-0.098,0-0.319,0.074-0.54,0.172
		c-1.079,0.54-1.521,1.472-1.84,2.698c-0.074,0.319-0.343,0.81-0.221,0.883c0.123,0.074,0.343-0.123,0.613-0.123
		c1.153,0.025,2.281-0.123,3.116-0.687c0.466-0.27,0.515-0.564,0.319-0.515c-0.515,0.074-1.153-0.172-1.913-0.123
		C36.376,4.212,36.106,4.31,35.91,4.457L35.91,4.457L35.91,4.457z"/>
	<path fill-rule="evenodd" clip-rule="evenodd" fill="#908F87" d="M39.001,2.372c0.417-0.343,0.638-0.81,0.834-1.079
		c0.098-0.123,0.368-0.54,0.785-0.638c0.098-0.025,0.27-0.196-0.147-0.245c-0.098-0.025-0.27,0-0.491,0.049
		c-1.03,0.245-1.595,0.981-2.085,2.012c-0.123,0.245-0.466,0.638-0.344,0.711c0.074,0.073,0.319-0.074,0.564,0
		c0.957,0.245,1.963,0.319,2.797-0.024c0.442-0.147,0.54-0.393,0.368-0.368c-0.466-0.049-0.957-0.368-1.644-0.466
		C39.442,2.274,39.173,2.298,39.001,2.372L39.001,2.372L39.001,2.372z"/>
	<path fill-rule="evenodd" clip-rule="evenodd" fill="#908F87" d="M43.809,0.728c-0.319,0.687-1.129,0.908-1.374,0.981
		c-0.196,0.074-1.03,0.294-1.644-0.123c0.319-0.687,1.128-0.908,1.349-0.981C42.362,0.557,43.171,0.311,43.809,0.728L43.809,0.728
		L43.809,0.728z"/>
	<path fill-rule="evenodd" clip-rule="evenodd" fill="#908F87" d="M50.727,7.72c0.54,0.196,1.006-0.049,1.202-0.491
		c0.098-0.196,0.147-0.319,0.147-0.515h0.711v5.764h-0.515c-0.883-2.404-3.091-4.734-5.667-5.298
		c-2.551-0.392-5.519-0.344-6.991,1.889c-0.417,0.613-0.196,1.864,0.589,2.306c2.625,1.594,5.495,0.859,8.978,1.349
		c1.766,0.245,3.704,1.251,4.489,3.214c0.76,1.889,0.613,3.827-0.147,5.102c-1.79,3.066-5.127,3.361-7.261,3.361
		c-2.232,0-4.464-1.03-6.231-1.668c-0.54-0.196-1.006,0.049-1.202,0.49c-0.098,0.196-0.147,0.344-0.147,0.515h-0.711
		c0-1.84,0-3.925,0-6.084c0.196,0,0.417,0,0.711,0.025c0.687,2.796,2.895,4.857,5.102,5.495c2.551,0.761,5.103,0.638,7.089-0.761
		c0.785-0.539,1.079-1.717,0.785-2.747c-0.441-1.546-2.821-1.962-4.538-1.987c-3.68-0.098-8.144-0.049-9.469-4.097
		c-0.515-1.938-0.196-4.072,1.202-5.519c2.306-2.257,6.182-2.33,9.126-1.423C49.034,6.861,49.745,7.425,50.727,7.72L50.727,7.72
		L50.727,7.72z"/>
	<path fill-rule="evenodd" clip-rule="evenodd" fill="#908F87" d="M49.009,30.288c0.908,0,1.644,0.368,2.159,0.491
		c0.27,0.074,1.03,0.294,1.668,0c0.123-0.049,0.515-0.074,0.049,0.442c-0.123,0.147-0.368,0.294-0.663,0.441
		c-1.57,0.761-2.968,0.442-4.636-0.318c-0.442-0.197-1.129-0.172-1.104-0.393c0-0.221,0.343-0.368,0.589-0.711
		c0.932-1.325,2.085-2.429,3.484-2.944c0.736-0.294,1.079-0.074,0.858,0.123c-0.54,0.515-0.785,1.472-1.521,2.281
		C49.672,29.944,49.353,30.19,49.009,30.288L49.009,30.288L49.009,30.288z"/>
	<path fill-rule="evenodd" clip-rule="evenodd" fill="#908F87" d="M53.646,28.35c0.834-0.295,1.619-0.221,2.134-0.27
		c0.27-0.049,1.055-0.074,1.521-0.54c0.098-0.098,0.441-0.27,0.196,0.393c-0.049,0.147-0.221,0.344-0.442,0.589
		c-1.202,1.227-2.575,1.398-4.342,1.251c-0.466-0.025-1.202,0.147-1.276-0.074c-0.049-0.196,0.319-0.392,0.441-0.761
		c0.417-1.521,1.079-2.919,2.184-3.851c0.564-0.491,0.981-0.392,0.834-0.147c-0.319,0.638-0.245,1.594-0.638,2.576
		C54.137,27.81,53.916,28.129,53.646,28.35L53.646,28.35L53.646,28.35z"/>
	<path fill-rule="evenodd" clip-rule="evenodd" fill="#908F87" d="M57.448,24.891c0.662-0.515,1.423-0.662,1.864-0.834
		c0.27-0.123,0.957-0.368,1.251-0.932c0.074-0.123,0.344-0.368,0.319,0.294c-0.025,0.147-0.123,0.392-0.27,0.711
		c-0.736,1.423-1.963,1.987-3.631,2.331c-0.417,0.122-1.079,0.466-1.178,0.294c-0.098-0.147,0.196-0.442,0.172-0.834
		c-0.025-1.497,0.196-2.968,0.957-4.121c0.368-0.638,0.761-0.662,0.687-0.368c-0.098,0.662,0.221,1.521,0.147,2.527
		C57.742,24.278,57.62,24.621,57.448,24.891L57.448,24.891L57.448,24.891z"/>
	<path fill-rule="evenodd" clip-rule="evenodd" fill="#908F87" d="M59.754,20.721c0.466-0.662,1.104-1.03,1.472-1.325
		c0.196-0.172,0.736-0.613,0.859-1.227c0.025-0.122,0.196-0.417,0.368,0.197c0.025,0.147,0,0.392-0.025,0.711
		c-0.245,1.546-1.227,2.404-2.625,3.214c-0.368,0.245-0.859,0.736-0.981,0.638c-0.147-0.123,0.025-0.466-0.098-0.81
		c-0.466-1.374-0.711-2.796-0.368-4.072c0.172-0.687,0.515-0.81,0.515-0.54c0.123,0.638,0.687,1.325,0.883,2.281
		C59.852,20.059,59.852,20.427,59.754,20.721L59.754,20.721L59.754,20.721z"/>
	<path fill-rule="evenodd" clip-rule="evenodd" fill="#908F87" d="M60.539,15.987c0.196-0.711,0.637-1.251,0.834-1.644
		c0.098-0.221,0.441-0.785,0.319-1.374c0-0.098,0.074-0.442,0.417,0.049c0.074,0.123,0.123,0.368,0.196,0.638
		c0.294,1.423-0.27,2.502-1.177,3.704c-0.27,0.319-0.515,0.957-0.662,0.883c-0.172-0.049-0.123-0.417-0.344-0.662
		c-0.883-1.055-1.545-2.232-1.668-3.459c-0.098-0.638,0.172-0.908,0.245-0.662c0.319,0.54,1.055,0.957,1.521,1.717
		C60.416,15.373,60.539,15.717,60.539,15.987L60.539,15.987L60.539,15.987z"/>
	<path fill-rule="evenodd" clip-rule="evenodd" fill="#908F87" d="M59.95,11.546c-0.025-0.711,0.245-1.325,0.343-1.717
		c0.049-0.245,0.221-0.834-0.024-1.325c-0.049-0.123-0.073-0.442,0.368-0.074c0.098,0.098,0.196,0.294,0.343,0.54
		c0.638,1.227,0.368,2.38-0.172,3.704c-0.147,0.343-0.245,0.981-0.393,0.957c-0.172,0-0.221-0.343-0.491-0.539
		c-1.03-0.761-1.962-1.644-2.38-2.748c-0.221-0.564-0.049-0.883,0.098-0.687c0.393,0.417,1.177,0.613,1.815,1.227
		C59.656,11.007,59.876,11.301,59.95,11.546L59.95,11.546L59.95,11.546z"/>
	<path fill-rule="evenodd" clip-rule="evenodd" fill="#908F87" d="M58.159,7.597c-0.221-0.687-0.122-1.349-0.122-1.766
		c-0.025-0.245-0.049-0.858-0.417-1.276c-0.049-0.073-0.172-0.368,0.343-0.147c0.098,0.049,0.27,0.196,0.466,0.417
		c0.957,1.006,1.03,2.183,0.859,3.606c-0.049,0.393,0.049,1.006-0.098,1.03c-0.172,0.049-0.319-0.27-0.613-0.392
		c-1.226-0.417-2.355-1.031-3.042-1.963c-0.392-0.491-0.294-0.834-0.123-0.687c0.515,0.27,1.3,0.27,2.085,0.662
		C57.742,7.155,58.012,7.376,58.159,7.597L58.159,7.597L58.159,7.597z"/>
	<path fill-rule="evenodd" clip-rule="evenodd" fill="#908F87" d="M55.486,4.433c-0.368-0.515-0.515-1.079-0.638-1.423
		c-0.098-0.172-0.319-0.687-0.736-0.884c-0.098-0.073-0.27-0.294,0.221-0.245c0.098,0,0.294,0.074,0.54,0.172
		c1.079,0.54,1.521,1.472,1.815,2.699c0.074,0.343,0.368,0.809,0.245,0.883c-0.123,0.098-0.343-0.123-0.638-0.123
		c-1.128,0.049-2.257-0.123-3.091-0.662c-0.491-0.295-0.515-0.589-0.343-0.54c0.54,0.073,1.178-0.172,1.938-0.123
		C55.019,4.187,55.314,4.285,55.486,4.433L55.486,4.433L55.486,4.433z"/>
	<path fill-rule="evenodd" clip-rule="evenodd" fill="#908F87" d="M52.37,2.372c-0.417-0.343-0.638-0.81-0.834-1.104
		c-0.098-0.122-0.368-0.515-0.785-0.638c-0.098-0.025-0.27-0.172,0.147-0.221c0.098-0.025,0.294,0,0.49,0.049
		c1.031,0.245,1.595,0.981,2.085,1.987c0.123,0.27,0.466,0.638,0.343,0.711c-0.073,0.098-0.319-0.049-0.564,0.024
		c-0.957,0.245-1.962,0.294-2.772-0.024c-0.466-0.147-0.564-0.417-0.392-0.393c0.466-0.049,0.957-0.368,1.644-0.466
		C51.929,2.249,52.198,2.298,52.37,2.372L52.37,2.372L52.37,2.372z"/>
	<path fill-rule="evenodd" clip-rule="evenodd" fill="#908F87" d="M47.538,0.728c0.319,0.687,1.128,0.908,1.374,0.981
		c0.196,0.074,1.03,0.294,1.644-0.123c-0.319-0.687-1.128-0.908-1.349-0.981C48.985,0.557,48.175,0.311,47.538,0.728L47.538,0.728
		L47.538,0.728z"/>
	<path fill-rule="evenodd" clip-rule="evenodd" fill="#908F87" d="M12.399,45.265c0-2.781-1.966-4.654-5.025-4.766
		c-2.893-0.111-5.1-0.111-5.1-2.17c0-1.91,1.929-2.262,3.431-2.262c3.931,0,5.081,3.635,5.248,4.284h0.538V35.79h-0.538
		c-0.018,0.427,0,1.02-0.519,1.02c-0.686,0-1.984-1.372-4.914-1.372c-2.856,0-4.914,1.929-4.914,4.581
		c0,2.355,1.947,4.377,4.784,4.414c2.708,0.037,5.155,0.185,5.155,2.374c0,1.984-2.133,2.503-4.08,2.541
		c-3.375,0.037-4.877-2.225-5.508-4.636H0.438v5.026h0.519c0,0,0.111-1.02,0.723-1.02c1.131,0,1.613,1.372,4.859,1.372
		C10.378,50.087,12.399,47.843,12.399,45.265L12.399,45.265L12.399,45.265z"/>
	<path fill-rule="evenodd" clip-rule="evenodd" fill="#908F87" d="M25.9,49.735v-0.668h-1.187V43.04c0-1.78-1.428-3.486-3.894-3.486
		c-1.984,0-2.856,0.835-3.598,1.539V35.79h-4.395v0.668h1.131v12.61h-1.224v0.668h5.638v-0.668h-1.15v-5.712
		c0-1.391,0.779-2.856,2.374-2.856c1.038,0,1.706,1.002,1.706,1.91v6.657h-1.224v0.668H25.9L25.9,49.735L25.9,49.735z"/>
	<path fill-rule="evenodd" clip-rule="evenodd" fill="#908F87" d="M36.309,44.709v-0.723c0-2.262-1.613-4.599-5.025-4.599
		c-3.097,0-5.396,1.873-5.396,5.433c0,3.523,2.541,5.267,5.6,5.267c1.966,0,4.432-0.872,4.747-3.913H35.79
		c0,0.779-0.983,3.041-3.394,3.041c-2.893,0-3.264-2.17-3.264-4.506H36.309L36.309,44.709L36.309,44.709L36.309,44.709z
		 M33.268,44.06h-4.135c0,0-0.111-4.08,2.114-4.08C33.657,39.98,33.268,44.06,33.268,44.06L33.268,44.06L33.268,44.06z"/>
	<path fill-rule="evenodd" clip-rule="evenodd" fill="#908F87" d="M46.333,41.779c0-1.038-0.668-2.262-2.021-2.262
		c-1.688,0-2.726,1.298-3.004,1.669v-1.446H36.95v0.649h0.983v8.679h-1.224v0.668h5.674v-0.668h-1.187v-4.358
		c0-2.225,1.261-4.562,3.041-4.562c0.352,0,0.519,0.111,0.723,0.352c-0.649-0.204-1.706,0.445-1.706,1.539
		c0,0.872,0.835,1.484,1.576,1.484C45.666,43.523,46.333,42.651,46.333,41.779L46.333,41.779L46.333,41.779z"/>
	<path fill-rule="evenodd" clip-rule="evenodd" fill="#908F87" d="M58.739,47.287v-0.76H58.22c0,0.519,0,2.373-0.797,2.373
		c-0.501,0-0.779-0.315-0.779-0.797v-3.245c0-1.854,0.464-5.47-4.766-5.47c-3.078,0-4.636,1.224-4.636,2.652
		c0,0.445,0.204,1.558,1.558,1.558c0.631,0,1.465-0.686,1.465-1.539c0-1.075-1.001-1.521-1.001-1.521
		c0.482-0.241,0.946-0.427,1.632-0.427c1.261,0,2.411,0.742,2.411,2.021c0,3.412-6.657,0.705-6.657,5.137
		c0,1.168,0.667,2.819,3.264,2.819c2.559,0,3.041-1.02,3.523-1.743c0.593,1.002,1.057,1.706,2.448,1.706
		C57.979,50.05,58.739,49.067,58.739,47.287L58.739,47.287L58.739,47.287L58.739,47.287z M53.194,47.083
		c0,1.113-1.224,2.058-1.78,2.058c-0.909,0-1.502-0.983-1.502-1.947c0-2.3,1.966-2.132,3.282-3.245V47.083L53.194,47.083
		L53.194,47.083z"/>
	<path fill-rule="evenodd" clip-rule="evenodd" fill="#908F87" d="M65.682,47.194v-0.593h-0.501c0,0.723,0,2.262-1.205,2.262
		c-0.538,0-1.131-0.389-1.131-1.316v-7.158H64.7v-0.649h-1.855v-3.468h-0.482c-0.315,1.613-1.391,3.468-3.653,3.468v0.649h1.224
		v7.158c0,1.316,1.038,2.54,2.856,2.54C65.182,50.087,65.682,48.14,65.682,47.194L65.682,47.194L65.682,47.194z"/>
	<path fill-rule="evenodd" clip-rule="evenodd" fill="#908F87" d="M77.253,44.821c0-2.782-1.502-5.433-5.693-5.433
		c-3.56,0-5.396,2.374-5.396,5.433c0,3.412,2.188,5.267,5.582,5.267C74.657,50.087,77.253,48.437,77.253,44.821L77.253,44.821
		L77.253,44.821L77.253,44.821z M74.101,44.654c0,1.947-0.371,4.728-2.466,4.728c-2.207,0-2.411-3.449-2.411-4.488
		c0-1.687,0.352-4.877,2.578-4.877C73.692,40.018,74.101,42.558,74.101,44.654L74.101,44.654L74.101,44.654z"/>
	<path fill-rule="evenodd" clip-rule="evenodd" fill="#908F87" d="M90.562,49.735v-0.668h-1.113v-6.064
		c0-1.873-1.317-3.561-3.931-3.561c-2.022,0-3.041,0.946-3.635,1.687v-1.391h-4.395v0.649h1.131v8.679h-1.224v0.668h5.675v-0.668
		h-1.187V43.56c0-1.391,0.835-3.023,2.337-3.023c0.835,0,1.78,0.519,1.78,1.669v6.862h-1.224v0.668H90.562L90.562,49.735
		L90.562,49.735z"/>
</g>
</svg>
