<?xml version="1.0" encoding="utf-8"?>
<!-- Generator: Adobe Illustrator 17.0.0, SVG Export Plug-In . SVG Version: 6.00 Build 0)  -->
<!DOCTYPE svg PUBLIC "-//W3C//DTD SVG 1.1//EN" "http://www.w3.org/Graphics/SVG/1.1/DTD/svg11.dtd">
<svg version="1.1" id="Layer_1" xmlns="http://www.w3.org/2000/svg" xmlns:xlink="http://www.w3.org/1999/xlink" x="0px" y="0px"
	 width="312px" height="50px" viewBox="-1.414 -2.5 312 50" enable-background="new -1.414 -2.5 312 50" xml:space="preserve">
<g>
	<g>
		<path fill="#EBE8DB" d="M95.416,23.677c-3.089-4.959-13.913-7.551-16.697-0.962c-2.197,5.199,3.401,11.91,8.678,8.179
			c1.977-1.398,2.857-4.317,1.172-6.178c-2.154-2.38-3.201,2.156-4.294,2.837c-0.097,0.06-0.173,0.13-0.24,0.204
			c-0.562,0.164-1.127,0.336-1.678,0.592c-0.028,0.013-0.049,0.031-0.073,0.047c-0.541-0.24-1.066-0.538-1.629-0.708
			c-0.986-1.94-0.559-4.727,1.232-5.952c3.159-2.161,8.258-0.452,10.822,1.866c5.299,4.79-1.096,11.431-5.973,12.919
			c-3.893,1.188-8.231,0.95-12.232,0.677c-5.459-0.373-10.894-1.029-16.278-2.003c-9.445-1.709-18.154-6.007-27.338-8.654
			c-6.857-1.976-15.675-3.328-22.478-0.395C3.21,28.388-0.5,33.273,0.612,39.119c0.997,5.238,6.853,6.063,11.088,4.721
			c3.757-1.191,6.137-4.378,4.868-8.278c-1.286-3.952-5.635-3.183-7.645-0.478c-0.153,0.206-0.049,0.431,0.129,0.552
			c-0.364,1.407,0.49,2.455,2.018,2.986c0.775,0.269,1.594,0.39,2.376,0.638c0.084,0.027,0.144,0.057,0.192,0.083
			c-0.15,0.248-0.424,0.669-0.47,0.851c-0.033,0.132-0.023,0.259,0.004,0.382c-0.465,0.558-0.986,1.078-1.532,1.607
			c-3.383,1.498-7.825,0.94-9.368-2.825c-1.41-3.441,0.626-7.417,3.106-9.733c3.55-3.316,8.959-3.622,13.536-3.482
			c9.664,0.296,18.72,4.394,27.689,7.573c9.018,3.196,18.394,4.485,27.9,5.213c6.421,0.493,15.039,0.709,19.554-4.787
			C96.534,31.131,97.571,27.136,95.416,23.677z"/>
		<path fill="#EBE8DB" d="M214.584,23.677c3.089-4.959,13.913-7.551,16.697-0.962c2.197,5.199-3.401,11.91-8.678,8.179
			c-1.977-1.398-2.857-4.317-1.172-6.178c2.154-2.38,3.201,2.156,4.294,2.837c0.097,0.06,0.173,0.13,0.24,0.204
			c0.562,0.164,1.127,0.336,1.678,0.592c0.028,0.013,0.049,0.031,0.073,0.047c0.541-0.24,1.066-0.538,1.629-0.708
			c0.986-1.94,0.559-4.727-1.232-5.952c-3.159-2.161-8.258-0.452-10.822,1.866c-5.299,4.79,1.096,11.431,5.973,12.919
			c3.893,1.188,8.231,0.95,12.232,0.677c5.459-0.373,10.894-1.029,16.278-2.003c9.445-1.709,18.154-6.007,27.338-8.654
			c6.857-1.976,15.675-3.328,22.478-0.395c5.201,2.242,8.911,7.127,7.799,12.973c-0.997,5.238-6.853,6.063-11.088,4.721
			c-3.757-1.191-6.137-4.378-4.868-8.278c1.286-3.952,5.635-3.183,7.645-0.478c0.153,0.206,0.049,0.431-0.129,0.552
			c0.364,1.407-0.49,2.455-2.018,2.986c-0.775,0.269-1.594,0.39-2.376,0.638c-0.084,0.027-0.144,0.057-0.192,0.083
			c0.15,0.248,0.424,0.669,0.47,0.851c0.033,0.132,0.023,0.259-0.004,0.382c0.465,0.558,0.986,1.078,1.532,1.607
			c3.383,1.498,7.825,0.94,9.368-2.825c1.41-3.441-0.626-7.417-3.106-9.733c-3.55-3.316-8.959-3.622-13.536-3.482
			c-9.664,0.296-18.72,4.394-27.689,7.573c-9.018,3.196-18.394,4.485-27.9,5.213c-6.421,0.493-15.039,0.709-19.554-4.787
			C213.466,31.131,212.429,27.136,214.584,23.677z"/>
	</g>
	<g>
		<path fill="#EAE1C3" d="M164.796,24.454c-0.642-2.239-4.372-3.942-5.749-3.889c-3.255,0.126-4.348,1.324-4.032,4.639
			c0.247,2.586-0.146,5.37,0.422,7.913c0.405,1.812,2.648,2.644,3.111,0.308c0.616-3.106-0.08-6.457,0.075-9.643
			c1.165-0.149,3.275,2.721,4.943,2.077C164.251,25.593,164.991,25.136,164.796,24.454z"/>
		<path fill="#EAE1C3" d="M173.623,38.665c0.15-1.391,1.838-2.952,2.409-4.096c3.802-7.615,2.617-19.202-4.188-24.797
			c-6.136-5.045-15.861-7.245-23.201-3.637c-4.985,2.451-9.565,7.034-11.193,12.429c-0.834,2.765-1.256,6.524-0.685,9.383
			c0.382,1.912,1.005,3.795,1.819,5.564c0.672,1.459,2.093,3.139,2.302,4.757c0.31,2.405-3.138,3.174-2.908,5.641
			c0.124,1.327,1.406,2.265,2.701,2.101c0.781-0.099,4.385-4.021,4.178-4.177c7.684,5.814,17.236,4.774,25.066,0.044
			c0.967,1.277,1.989,3.334,3.556,3.945c2.338,0.911,3.927-1.531,2.818-3.449c-0.617-1.059-2.188-1.885-2.593-2.983
			C173.618,39.157,173.596,38.914,173.623,38.665z M141.821,25.154c-0.057-4.488,1.694-8.96,5.418-11.701
			c2.505-1.844,6.983-3.859,10.152-3.859c8.358,0,15.56,7.179,15.56,15.561c0,9.255-9.855,18.123-19.09,15.12
			c-2.414-0.785-5.895-2.587-7.542-4.565C143.916,32.822,141.869,28.974,141.821,25.154z"/>
		<path fill="#EAE1C3" d="M147.066,0.237c-1.006-3-5.252,0.667-6.693,1.084c-1.279,0.37-2.065-0.167-3.025,0.992
			c-1.25,1.508-2.173,3.303-3.409,4.853c-1.878,2.356,1.176,4.404,3.27,3.129c2.01-1.224,3.152-3.333,5.012-4.689
			c1.569-1.144,5.383-2.279,4.988-4.771C147.173,0.611,147.125,0.413,147.066,0.237z"/>
		<path fill="#EAE1C3" d="M180.455,7.411c-0.765-1.135-1.851-2.278-2.268-2.97c-0.418-0.693-0.554-1.761-1.12-2.345
			c-0.788-0.814-1.721-0.492-2.678-0.867c-1.157-0.453-2.268-1.44-3.407-1.998c-2.398-1.179-4.172,1.921-2.587,3.742
			c1.105,1.269,2.733,1.731,4.104,2.616c1.558,1.005,2.633,2.505,3.901,3.824C178.552,11.654,182.872,11,180.455,7.411z"/>
	</g>
</g>
</svg>
