<?xml version="1.0" encoding="utf-8"?>
<!-- Generator: Adobe Illustrator 17.0.0, SVG Export Plug-In . SVG Version: 6.00 Build 0)  -->
<!DOCTYPE svg PUBLIC "-//W3C//DTD SVG 1.1//EN" "http://www.w3.org/Graphics/SVG/1.1/DTD/svg11.dtd">
<svg version="1.1" id="Layer_1" xmlns="http://www.w3.org/2000/svg" xmlns:xlink="http://www.w3.org/1999/xlink" x="0px" y="0px"
	 width="259px" height="44px" viewBox="26.5 3 259 44" enable-background="new 26.5 3 259 44" xml:space="preserve">
<g>
	<g>
		<path fill="#EBE8DB" d="M107.333,25.942c-2.471-3.967-11.13-6.041-13.358-0.77c-1.758,4.159,2.721,9.528,6.942,6.543
			c1.582-1.118,2.286-3.454,0.938-4.942c-1.723-1.904-2.561,1.725-3.435,2.27c-0.078,0.048-0.138,0.104-0.192,0.163
			c-0.45,0.131-0.902,0.269-1.342,0.474c-0.022,0.01-0.039,0.025-0.058,0.038c-0.433-0.192-0.853-0.43-1.303-0.566
			c-0.789-1.552-0.447-3.782,0.986-4.762c2.527-1.729,6.606-0.362,8.658,1.493c4.239,3.832-0.877,9.145-4.778,10.335
			c-3.114,0.95-6.585,0.76-9.786,0.542c-4.367-0.298-8.715-0.823-13.022-1.602c-7.556-1.367-14.523-4.806-21.87-6.923
			c-5.486-1.581-12.54-2.662-17.982-0.316c-4.16,1.794-7.128,5.702-6.238,10.378c0.798,4.19,5.482,4.85,8.87,3.777
			c3.006-0.953,4.91-3.502,3.894-6.622c-1.029-3.162-4.508-2.546-6.116-0.382c-0.122,0.165-0.039,0.345,0.103,0.442
			c-0.291,1.126,0.392,1.964,1.614,2.389c0.62,0.215,1.275,0.312,1.901,0.51c0.067,0.022,0.115,0.046,0.154,0.066
			c-0.12,0.198-0.339,0.535-0.376,0.681c-0.026,0.106-0.018,0.207,0.003,0.306c-0.372,0.446-0.789,0.862-1.226,1.286
			c-2.706,1.198-6.26,0.752-7.494-2.26c-1.128-2.753,0.501-5.934,2.485-7.786c2.84-2.653,7.167-2.898,10.829-2.786
			c7.731,0.237,14.976,3.515,22.151,6.058c7.214,2.557,14.715,3.588,22.32,4.17c5.137,0.394,12.031,0.567,15.643-3.83
			C108.227,31.905,109.057,28.709,107.333,25.942z"/>
		<path fill="#EBE8DB" d="M202.667,25.942c2.471-3.967,11.13-6.041,13.358-0.77c1.758,4.159-2.721,9.528-6.942,6.543
			c-1.582-1.118-2.286-3.454-0.938-4.942c1.723-1.904,2.561,1.725,3.435,2.27c0.078,0.048,0.138,0.104,0.192,0.163
			c0.45,0.131,0.902,0.269,1.342,0.474c0.022,0.01,0.039,0.025,0.058,0.038c0.433-0.192,0.853-0.43,1.303-0.566
			c0.789-1.552,0.447-3.782-0.986-4.762c-2.527-1.729-6.606-0.362-8.658,1.493c-4.239,3.832,0.877,9.145,4.778,10.335
			c3.114,0.95,6.585,0.76,9.786,0.542c4.367-0.298,8.715-0.823,13.022-1.602c7.556-1.367,14.523-4.806,21.87-6.923
			c5.486-1.581,12.54-2.662,17.982-0.316c4.161,1.794,7.129,5.702,6.239,10.378c-0.798,4.19-5.482,4.85-8.87,3.777
			c-3.006-0.953-4.91-3.502-3.894-6.622c1.029-3.162,4.508-2.546,6.116-0.382c0.122,0.165,0.039,0.345-0.103,0.442
			c0.291,1.126-0.392,1.964-1.614,2.389c-0.62,0.215-1.275,0.312-1.901,0.51c-0.067,0.022-0.115,0.046-0.154,0.066
			c0.12,0.198,0.339,0.535,0.376,0.681c0.026,0.106,0.018,0.207-0.003,0.306c0.372,0.446,0.789,0.862,1.226,1.286
			c2.706,1.198,6.26,0.752,7.494-2.26c1.128-2.753-0.501-5.934-2.485-7.786c-2.84-2.653-7.167-2.898-10.829-2.786
			c-7.731,0.237-14.976,3.515-22.151,6.058c-7.214,2.557-14.715,3.588-22.32,4.17c-5.137,0.394-12.031,0.567-15.643-3.83
			C201.773,31.905,200.943,28.709,202.667,25.942z"/>
	</g>
	<g>
		<path fill="#EAE1C3" d="M162.837,26.564c-0.514-1.791-3.498-3.154-4.599-3.111c-2.604,0.101-3.478,1.059-3.226,3.711
			c0.198,2.069-0.117,4.296,0.338,6.33c0.324,1.45,2.118,2.115,2.489,0.246c0.493-2.485-0.064-5.166,0.06-7.714
			c0.932-0.119,2.62,2.177,3.954,1.662C162.401,27.475,162.993,27.109,162.837,26.564z"/>
		<path fill="#EAE1C3" d="M169.898,37.932c0.12-1.113,1.47-2.362,1.927-3.277c3.042-6.092,2.094-15.362-3.35-19.838
			c-4.909-4.036-12.689-5.796-18.561-2.91c-3.988,1.961-7.652,5.627-8.954,9.943c-0.667,2.212-1.005,5.219-0.548,7.506
			c0.306,1.53,0.804,3.036,1.455,4.451c0.538,1.167,1.674,2.511,1.842,3.806c0.248,1.924-2.51,2.539-2.326,4.513
			c0.099,1.062,1.125,1.812,2.161,1.681c0.625-0.079,3.508-3.217,3.342-3.342c6.147,4.651,13.789,3.819,20.053,0.035
			c0.774,1.022,1.591,2.667,2.845,3.156c1.87,0.729,3.142-1.225,2.254-2.759c-0.494-0.847-1.75-1.508-2.074-2.386
			C169.895,38.326,169.877,38.132,169.898,37.932z M144.457,27.124c-0.046-3.59,1.355-7.168,4.334-9.361
			c2.004-1.475,5.586-3.087,8.122-3.087c6.686,0,12.448,5.743,12.448,12.449c0,7.404-7.884,14.498-15.272,12.096
			c-1.931-0.628-4.716-2.07-6.034-3.652C146.133,33.258,144.495,30.18,144.457,27.124z"/>
		<path fill="#EAE1C3" d="M148.653,7.19c-0.805-2.4-4.202,0.534-5.354,0.867c-1.023,0.296-1.652-0.134-2.42,0.794
			c-1,1.206-1.738,2.642-2.727,3.882c-1.502,1.885,0.941,3.523,2.616,2.503c1.608-0.979,2.522-2.666,4.01-3.751
			c1.255-0.915,4.306-1.823,3.99-3.817C148.739,7.489,148.7,7.331,148.653,7.19z"/>
		<path fill="#EAE1C3" d="M175.364,12.929c-0.612-0.908-1.481-1.822-1.814-2.376c-0.334-0.554-0.443-1.409-0.896-1.876
			c-0.63-0.651-1.377-0.394-2.142-0.694c-0.926-0.362-1.814-1.152-2.726-1.598c-1.918-0.943-3.338,1.537-2.07,2.994
			c0.884,1.015,2.186,1.385,3.283,2.093c1.246,0.804,2.106,2.004,3.121,3.059C173.842,16.324,177.298,15.8,175.364,12.929z"/>
	</g>
</g>
</svg>
