<?xml version="1.0" encoding="utf-8"?>
<!-- Generator: Adobe Illustrator 17.0.0, SVG Export Plug-In . SVG Version: 6.00 Build 0)  -->
<!DOCTYPE svg PUBLIC "-//W3C//DTD SVG 1.1//EN" "http://www.w3.org/Graphics/SVG/1.1/DTD/svg11.dtd">
<svg version="1.1" id="Layer_1" xmlns="http://www.w3.org/2000/svg" xmlns:xlink="http://www.w3.org/1999/xlink" x="0px" y="0px"
	 width="168.218px" height="118.032px" viewBox="0 0 168.218 118.032" enable-background="new 0 0 168.218 118.032"
	 xml:space="preserve">
<g>
	<path fill="#ECE9DC" d="M5.311,115.077c10.261,0.105,20.368-1.573,30.507-2.927c0.648-0.086,1.373-0.694,1.073-1.439
		c-2.001-4.961-7.744-6.874-12.786-8.156c15.328-8.823,30.609-17.995,45.154-28.044c0.495-0.342,0.05-1.079-0.483-0.797
		c-15.436,8.139-29.897,18.053-45.051,26.714c1.205-3.908,1.439-8.062,2.972-11.892c0.306-0.764-0.262-1.894-1.229-1.537
		c-4.814,1.773-7.438,6.543-9.798,10.797c-3.055,5.502-6.875,10.844-11.171,15.436C3.84,113.935,4.369,115.068,5.311,115.077z"/>
	<path fill="#F06E5C" d="M84.085,47.217c-2.645,2.566-4.757,6.589-6.027,10.675c-0.719-3.864-2.678-7.426-5.785-10.428
		c-4.201-4.059-10.918-6.137-16.287-3.366c-6.044,3.118-4.988,11.587-2.726,16.6c4.796,10.626,16.06,16.935,21.307,27.374
		c0.224,0.445,0.532,0.729,0.874,0.885c0.565,1.137,2.324,0.985,2.992-0.038c1.648-2.523,2.718-5.434,4.445-7.989
		c2.438-3.605,5.042-7.095,7.466-10.71c3.615-5.388,8.654-13.052,6.026-19.817C94.073,44.491,88.621,42.816,84.085,47.217z"/>
	<path opacity="0.7" fill="#F06E5C" d="M84.049,65.313c-0.018,0.334-0.095,0.668-0.223,0.98c-0.85,2.078-4.157,2.908-5.261,0.581
		c-0.538-1.134-0.232-3.311,0.752-4.152c1.297-1.108,3.612-0.091,4.388,1.168C83.971,64.322,84.076,64.818,84.049,65.313z"/>
	<path fill="#ECE9DC" d="M81.447,66.238c4.153-1.64,7.944-4.757,11.628-7.247c4.109-2.779,8.199-5.591,12.376-8.267
		c5.365-3.437,12.478-6.047,16.883-10.888c2.709,1.858,6.023,3.601,9.329,3.991c3.474,0.41,5.77-0.743,8.506-2.868
		c3.23-2.507,5.982-5.612,9.11-8.246c2.355-1.983,5.066-3.71,7.598-5.479c2.061-1.44,4.211-2.782,6.178-4.351
		c1.181-0.941,1.227-1.998,0.375-3.277c-2.255-3.383-8.5-3.228-12.282-3.8c0.02-0.059,0.033-0.123,0.03-0.194
		c-0.196-4.032,0.888-8.166-0.508-12.065c-0.165-0.462-0.56-0.664-1.033-0.577c-3.716,0.675-6.224,5.101-8.9,7.423
		c-2.479,2.152-4.798,4.553-7.628,6.258c-1.452,0.875-2.903,1.755-4.323,2.682c-2.217,1.444-6.273,3.452-7.136,6.205
		c-1.117,3.561,0.489,7.157-0.13,10.708c-0.072,0.416,0.085,0.746,0.337,0.963c-0.537,0.246-0.923,0.998-0.323,1.434
		c0.05,0.037,0.103,0.064,0.155,0.094c-5.805,4.485-13.019,7.325-19.162,11.282c-3.867,2.491-7.656,5.096-11.473,7.661
		c-3.45,2.319-7.381,4.336-10.505,7.075C79.891,65.329,80.631,66.561,81.447,66.238z M149.946,15.444
		c-0.434-0.194-1.002-0.064-1.141,0.547c-0.636,2.778-3.798,5.176-5.83,6.964c-1.988,1.749-4.071,3.382-6.085,5.1
		c-4.065,3.467-8.161,7.711-13.447,8.854c0.02-0.055,0.039-0.112,0.051-0.178c0.591-3.179-0.82-6.455-0.161-9.624
		c0.653-3.145,5.108-5.226,7.618-6.815c3.474-2.199,6.563-4.455,9.601-7.252c1.627-1.5,3.186-2.943,4.665-4.59
		c1.153-1.284,2.441-2.956,4.102-3.634C150.286,8.254,149.443,11.917,149.946,15.444z M124.615,39.06
		c1.699-0.4,3.451-1.508,4.606-2.272c3.022-1.996,5.753-4.367,8.48-6.739c2.389-2.08,4.918-4.006,7.227-6.176
		c1.951-1.832,4.571-4.083,5.365-6.803c1.857,0.476,3.772,0.681,5.648,1.071c1.747,0.364,5.434,0.776,6.269,2.677
		c0.512,1.166-6.969,5.397-8.172,6.339c-1.951,1.527-4.248,2.615-6.07,4.32c-2.463,2.304-4.986,4.627-7.531,6.842
		c-2.96,2.575-5.787,4.527-9.833,3.377C128.478,41.09,126.49,40.194,124.615,39.06z"/>
</g>
</svg>
