<?xml version="1.0" encoding="utf-8"?>
<!-- Generator: Adobe Illustrator 17.0.0, SVG Export Plug-In . SVG Version: 6.00 Build 0)  -->
<!DOCTYPE svg PUBLIC "-//W3C//DTD SVG 1.1//EN" "http://www.w3.org/Graphics/SVG/1.1/DTD/svg11.dtd">
<svg version="1.1" id="Layer_1" xmlns="http://www.w3.org/2000/svg" xmlns:xlink="http://www.w3.org/1999/xlink" x="0px" y="0px"
	 width="920.104px" height="8.4px" viewBox="0 0 920.104 8.4" enable-background="new 0 0 920.104 8.4" xml:space="preserve">
<g>
	<polygon fill="#BF967A" points="68.227,0 59.827,8.4 85.377,8.4 93.777,0 	"/>
	<g>
		<g>
			<polygon fill="#93B99B" points="119.327,0 110.927,8.4 136.477,8.4 144.877,0 			"/>
			<polygon fill="#93B99B" points="221.527,0 213.127,8.4 238.677,8.4 247.077,0 			"/>
			<polygon fill="#93B99B" points="323.727,0 315.327,8.4 340.877,8.4 349.277,0 			"/>
			<polygon fill="#93B99B" points="425.927,0 417.527,8.4 443.077,8.4 451.477,0 			"/>
			<polygon fill="#93B99B" points="528.127,0 519.727,8.4 545.277,8.4 553.677,0 			"/>
			<polygon fill="#93B99B" points="630.327,0 621.927,8.4 647.477,8.4 655.877,0 			"/>
			<polygon fill="#93B99B" points="732.527,0 724.127,8.4 749.677,8.4 758.077,0 			"/>
		</g>
		<g>
			<polygon fill="#BF967A" points="170.427,0 162.027,8.4 187.577,8.4 195.977,0 			"/>
			<polygon fill="#BF967A" points="272.627,0 264.227,8.4 289.777,8.4 298.177,0 			"/>
			<polygon fill="#BF967A" points="374.827,0 366.427,8.4 391.977,8.4 400.377,0 			"/>
			<polygon fill="#BF967A" points="477.027,0 468.627,8.4 494.177,8.4 502.577,0 			"/>
			<polygon fill="#BF967A" points="579.227,0 570.827,8.4 596.377,8.4 604.777,0 			"/>
			<polygon fill="#BF967A" points="681.427,0 673.027,8.4 698.577,8.4 706.977,0 			"/>
			<polygon fill="#BF967A" points="783.627,0 775.227,8.4 800.777,8.4 809.177,0 			"/>
		</g>
		<polygon fill="#93B99B" points="834.727,0 826.327,8.4 851.877,8.4 860.277,0 		"/>
		<polygon fill="#BF967A" points="885.827,0 877.427,8.4 902.977,8.4 911.377,0 		"/>
	</g>
	<polygon fill="#93B99B" points="17.127,0 8.727,8.4 34.277,8.4 42.677,0 	"/>
</g>
</svg>
