<?xml version="1.0" encoding="utf-8"?>
<!-- Generator: Adobe Illustrator 17.0.0, SVG Export Plug-In . SVG Version: 6.00 Build 0)  -->
<!DOCTYPE svg PUBLIC "-//W3C//DTD SVG 1.1//EN" "http://www.w3.org/Graphics/SVG/1.1/DTD/svg11.dtd">
<svg version="1.1" id="Layer_1" xmlns="http://www.w3.org/2000/svg" xmlns:xlink="http://www.w3.org/1999/xlink" x="0px" y="0px"
	 width="902.65px" height="8.4px" viewBox="0 0 902.65 8.4" enable-background="new 0 0 902.65 8.4" xml:space="preserve">
<g>
	<polygon fill="#BF967A" points="59.5,0 51.1,8.4 76.65,8.4 85.05,0 	"/>
	<g>
		<g>
			<polygon fill="#93B99B" points="8.4,0 0,8.4 25.55,8.4 33.95,0 			"/>
			<polygon fill="#93B99B" points="110.6,0 102.2,8.4 127.75,8.4 136.15,0 			"/>
			<polygon fill="#93B99B" points="212.8,0 204.4,8.4 229.95,8.4 238.35,0 			"/>
			<polygon fill="#93B99B" points="315,0 306.6,8.4 332.15,8.4 340.55,0 			"/>
			<polygon fill="#93B99B" points="417.2,0 408.8,8.4 434.35,8.4 442.75,0 			"/>
			<polygon fill="#93B99B" points="519.4,0 511,8.4 536.55,8.4 544.95,0 			"/>
			<polygon fill="#93B99B" points="621.6,0 613.2,8.4 638.75,8.4 647.15,0 			"/>
			<polygon fill="#93B99B" points="723.8,0 715.4,8.4 740.95,8.4 749.35,0 			"/>
			<polygon fill="#93B99B" points="826,0 817.6,8.4 843.15,8.4 851.55,0 			"/>
		</g>
		<g>
			<polygon fill="#BF967A" points="161.7,0 153.3,8.4 178.85,8.4 187.25,0 			"/>
			<polygon fill="#BF967A" points="263.9,0 255.5,8.4 281.05,8.4 289.45,0 			"/>
			<polygon fill="#BF967A" points="366.1,0 357.7,8.4 383.25,8.4 391.65,0 			"/>
			<polygon fill="#BF967A" points="468.3,0 459.9,8.4 485.45,8.4 493.85,0 			"/>
			<polygon fill="#BF967A" points="570.5,0 562.1,8.4 587.65,8.4 596.05,0 			"/>
			<polygon fill="#BF967A" points="672.7,0 664.3,8.4 689.85,8.4 698.25,0 			"/>
			<polygon fill="#BF967A" points="774.9,0 766.5,8.4 792.05,8.4 800.45,0 			"/>
		</g>
	</g>
	<polygon fill="#BF967A" points="877.1,0 868.7,8.4 894.25,8.4 902.651,0 	"/>
</g>
</svg>
