<?xml version="1.0" encoding="utf-8"?>
<!-- Generator: Adobe Illustrator 17.0.0, SVG Export Plug-In . SVG Version: 6.00 Build 0)  -->
<!DOCTYPE svg PUBLIC "-//W3C//DTD SVG 1.1//EN" "http://www.w3.org/Graphics/SVG/1.1/DTD/svg11.dtd">
<svg version="1.1" id="Layer_1" xmlns="http://www.w3.org/2000/svg" xmlns:xlink="http://www.w3.org/1999/xlink" x="0px" y="0px"
	 width="420px" height="510px" viewBox="0 0 420 510" enable-background="new 0 0 420 510" xml:space="preserve">
<g>
	<path fill="#5D7A60" d="M204.058,239.915c-8.303-8.037-17.118-9.648-27.772-6.061c-10.858,3.655-24.893,7.393-36.198,7.113
		c-7.48-0.185-14.552,0.896-21.504-2.859c-7.184-3.881-13.248-10.475-18.679-16.506c-9.343-10.375-17.016-24.511-27.695-33.204
		c-7.381-6.008-14.986-8.639-20.737-17.034c-3.149-4.597-6.508-10.576-8.081-15.994c-1.31-4.51-0.407-9.313-1.191-13.947
		c-3.062-18.085-20.031-17.601-32.927-25.325c6.234,3.629,12.412-0.02,17.977-2.757c8.822-4.339,18.237-8.131,27.969-9.572
		c10.402-1.54,19.818-0.303,30.032,0.48c3.403,0.261,6.871-0.706,10.271-0.846c4.796-0.197,9.212,0.742,13.544,0.978
		c4.031,0.219,7.969-0.795,12.114-0.104c4.476,0.746,8.723,2.428,13.081,4.19c7.977,3.225,16.885,8.207,23.905,13.301
		c5.159,3.743,9.186,9.29,13.975,13.658c5.11,4.66,10.794,8.268,16.322,12.139c8.763,6.136,12.706,14.874,14.975,25.276
		c0.997,4.568,0.978,9.003,2.046,13.464c0.852,3.56,2.47,6.775,2.121,10.241c-0.301,2.99-1.825,6.624-2.548,9.782
		c-0.989,4.325-0.818,8.371-0.945,12.87c-0.108,3.814,0.803,7.904,0.371,11.76c-0.418,3.726-1.687,6.313-0.876,10.115"/>
	<path fill="#CE9142" d="M212.893,250.589c-8.587-27.564-42.795-41.726-62.789-60.126c-13.539-12.46-27.373-22.553-39.93-36.421
		c-7.878-8.7-25.43-13.039-29.451-24.224c1.25-0.715,2.378-1.156,3.722-1.64c2.843,6.073,3.793,7.093,9.329,10.857
		c6.89,4.685,16.884,11.127,22.325,17.11c10.301,11.328,26.64,27.14,38.553,36.463c22.572,17.665,50.728,28.679,60.275,57.432"/>
	<path fill="#5D7A60" d="M337.836,504.436c0,0-8.35-22.519-13.331-32.554c-5.215-10.506-13.848-17.785-19.07-27.485
		c1.733-0.22,3.153-1.256,5.008-1.296c-4.039-7.696-12.44-15.234-16.046-22.601c-1.57-3.206-2.662-7.509-4.469-11.52
		c-2.042-4.534-5.437-7.992-8.019-12.096c-9.948-15.812-21.792-27.806-29.773-46.032c-8.084-18.459-16.548-34.798-24.369-52.733
		c-3.858-8.846-3.951-18.616-6.43-27.747c-1.722-6.345-12.327-18.045-11.659-24.375c0.034-0.326-2.03-0.497-1.1-2.971
		c1.387-0.377,5.56-1.133,7.2-1.166c7.367,14.418,12.151,24.963,15.301,39.186c2.994,13.519,12.839,30.91,18.01,43.728
		c6.297,15.61,15.889,31.928,24.803,45.658c4.013,6.181,28.081,27.578,24.831,31.29c3.474,9.672,10.936,17.065,15.157,26.773
		c3.057,7.029,9.164,23.454,15.643,25.416c0.404-1.535,1.433-2.919,1.867-4.149c2.35,2.871,4.011,5.747,5.362,9.33
		c-7.971,7.243,11.002,41.038,11.002,41.038L337.836,504.436z"/>
	<path fill="#7B987F" d="M122.723,451.457c11.486-40.416,57.708-65.084,98.118-61.137c10.744,1.049,16.897,6.271,26.041,10.859
		c3.853,1.933-5.64,25.765-10.728,33.807c-6.493,10.264-15.543,18.989-26.236,24.792c-11.75,6.376-22.699,6.129-35.516,7.09
		c-19.292,1.447-39.99,6.602-55.818,18.31c1.356-1.003,0.628-11.048,0.786-13.01c0.472-5.86,1.174-11.71,2.509-17.442
		C122.135,453.625,122.417,452.535,122.723,451.457z"/>
	<path fill="#7B987F" d="M217.169,361.291c-0.891,6.584-11.503,13.151-16.364,16.668c-9.106,6.587-19.243,10.027-30.195,12.21
		c-8.377,1.67-16.502,5.282-25.098,5.72c-8.32,0.424-15.263-3.277-23.045-5.611c-13.097-3.929-25.98-4.565-37.283-13.102
		c-11.186-8.45-24.36-24.144-39.977-22.143c0.426-0.055,9.315-15.963,10.992-17.714c4.924-5.14,10.968-9.208,17.152-12.679
		c14.17-7.955,30.619-11.918,46.676-13.638c11.641-1.246,20.993,4.274,30.33,10.451c22.192,14.682,58.499,8.069,69.791,37.249
		C218.446,358.765,217.169,361.289,217.169,361.291z"/>
	<path fill="#7B987F" d="M168.58,286.896c-5.206-1.518-17.536,4.163-24.668,5.415c-12.322,2.163-24.177,3.137-36.812,2.221
		c-6.331-0.459-10.661-0.12-16.469-3.123c-4.071-2.105-8.777-7.404-13.227-8.234c-8.842-1.648-17.551,9.17-24.174,12.852
		c5.404-12.439,17.415-23.433,26.691-33.139c11.662-12.203,34.477-18.258,50.879-18.234c16.273,0.024,27.58,4.946,35.155,19.787
		c3.191,6.253,11.235,16.213,4.357,22.294L168.58,286.896z"/>
	<path fill="#7B987F" d="M247.246,246.648c-12.917-2.264-26.289-14.34-29.259-28.024c-1.786-8.227,3.026-14.272,7.653-20.214
		c5.11-6.563,8.841-15.142,10.548-23.273c1.721-8.198,0.502-18.95,5.574-25.904c2.183-2.993,6.095-4.696,8.105-7.814
		c2.468-3.828,3.206-9.458,4.683-13.742c2.576-7.472,6.717-14.71,8.858-22.153c2.308-8.025,0.471-17.72,1.828-26.169
		c2.356-14.662,11.882-24.363,23.473-32.581c8.554-6.066,16.176-11.517,26.549-14.357c9.39-2.571,10.136-7.903,17.002-13.605
		c3.222-2.675,7.032-3.79,10.636-5.88c3.559-2.063,5.919-5.974,9.806-7.366c-3.319,3.32-4.975,8.655-7.71,12.453
		c-2.012,2.793-4.841,5.275-6.458,8.348c-2.95,5.605-4.772,14.09-5.745,20.455c-1.536,10.052-1.032,20.543-3.325,30.541
		c-2.312,10.078-0.727,20.55-3.065,30.627c-2.006,8.648-5.714,16.718-9.525,24.64c-4.206,8.743-7.945,19.933-13.814,27.564
		c-3.787,4.924-8.882,8.74-12.771,13.554c-5.114,6.33-10.988,11.898-16.031,18.308C262.322,207.224,247.246,246.648,247.246,246.648
		z"/>
	<path fill="#5D7A60" d="M270.116,256.916c-23.791-20.591,14.135-46.823,29.167-59.073c12.518-10.202,26.906-17.86,42.028-23.869
		c13.558-5.388,27.101-10.877,41.782-7.559c7.771,1.756,15.516,5.52,23.026,7.965c-4.865,2.004-11.245,3.853-14.834,7.527
		c-5.046,5.165-8.136,9.622-14.796,13.271c-5.375,2.944-10.971,3.076-16.499,5.433c-5.421,2.311-8.862,5.456-13.208,9.259
		c-4.529,3.962-9.58,4.226-14.102,7.517c-3.866,2.813-5.421,6.826-9.643,9.641c-3.972,2.649-5.625,6.257-9.011,9.573
		c-3.353,3.284-8.657,6.58-12.795,9.049c-10.042,5.993-21.007,11.883-32.502,9.473"/>
	<path fill="#5D754D" d="M264.927,282.023c-0.532-7.682-5.462-12.32-2.819-20.357c3.093-9.406,12.411-12.538,21.685-14.23
		c8.355-1.524,14.335-3.177,21.405-7.753c5.97-3.864,13.044-6.315,16.693-12.497c0.338,4.844-7.692,11.187-11.05,14.403
		c-5.251,5.028-13.076,7.185-19.442,10.751c-8.442,4.729-12.836,8.419-18.101,16.229c-2.632,3.905-7.619,9.79-7.153,14.718
		c0.732-0.904,0.312-1.537,0.575-2.652"/>
	<path fill="#7B987F" d="M334.606,367.848c-8.916,10.345-22.643,3.844-30.374-3.752c-1.471-1.445-4.632-3.844-5.207-5.854
		c-1.368-4.789,1.567-2.436,2.725-5.242c1.317-3.19,0.376-2.237-2.753-5.934c-2.786-3.291-5.284-7.584-6.325-11.661
		c-1.829-7.163-2.265-16.614-2.434-23.938c-0.183-7.95,1.409-15.997,5.076-23.123c4.337-8.429,11.684-15.464,16.671-23.612
		c4.177-6.826,7.845-13.663,15.324-17.856c3.153-1.768,7.18-2.228,10.452-3.985c3.032-1.628,5.489-4.239,8.994-5.341
		c3.153-0.992,5.627-1.649,8.69-2.988c2.587-1.131,5.462-3.674,7.964-4.45c2.009-0.624,7.976-0.143,10.171-0.385
		c3.188-0.352,6.614-0.363,9.986-0.963c6.016-1.07,18.255-6.491,24.416-4.289c7.162,2.56-1.745,5.11-3.598,8.786
		c-1.914,3.796,0.208,10.714-0.527,15.197c-1.174,7.157-3.546,14.481-5.921,21.44c-2.611,7.651-3.474,14.789-7.786,21.618
		c-4.365,6.915-8.847,13.838-12.007,21.535c-1.596,3.889-2.266,8.083-4.408,12.014c-3.296,6.051-8.845,10.857-10.941,17.492
		c-3.286,10.401-7.16,15.785-17.033,20.704c-2.983,1.486-5.779,3.264-8.843,4.522c-1.251,0.514-2.346,1.346-3.835,1.693
		c-0.836,0.195-6.805-0.125-4.276-0.299"/>
	<path fill="#CE9142" d="M249.089,324.774c-4.396-3.132-3.123-17.156-3.244-21.59c-0.714-26.357,0.339-52.752,2.798-78.999
		c0.905-9.664,0.694-19.956,3.588-29.296c2.662-8.593,8.602-15.697,10.971-24.411c2.479-9.119,2.693-17.885,6.735-26.642
		c-0.958,10.251-3.544,20.044-6.897,29.76c-2.956,8.566-7.983,16.679-9.959,25.533c-2.783,12.47-2.515,25.781-3.076,38.511
		c-1.141,25.88-2.776,51.781-1.977,77.697C248.109,317.967,247.646,322.369,249.089,324.774"/>
	<path fill="#CE9142" d="M240.295,325.219c-10.217-4.672-33.56-18.18-56.65-22.063c-22.051-3.709-42.163-4.601-49.296-5.126
		c12.59-1.828,23.145,0.123,37.183-0.538c8.148-0.384,25.231,7.269,66.585,23.143L240.295,325.219z"/>
	<path fill="#CE9142" d="M260.661,366.554c-17.881-10.77-78.654-5.539-93.652-4.498c-19.286,1.338-36.352-2.661-53.887-9.99
		c0.57-1.078,0.347-1.049,1.227-2.086c20.75,7.34,33.943,12.288,55.577,9.731c12.705-1.501,78.841-5.193,88.585,3.388"/>
	<path fill="#CE9142" d="M159.143,440.008c3.466-4.31,30.939-20.258,42.1-24.503c14.303-5.44,64.512-19.787,79.194-20.908
		c-11.026-3.032-69.386,15.564-81.737,19.933C190.821,417.315,165.258,432.403,159.143,440.008z"/>
	<path fill="#CE9142" d="M283.097,370.009c18.204-8.615,42.551-43.083,52.767-57.522c11.417-16.136,20.348-30.688,34.547-44.76
		c-12.756,6.79-29.009,32.861-36.982,44.18c-11.104,15.763-21.484,28.94-35.052,43.485L283.097,370.009z"/>
	<path fill="#5D7A60" d="M282.252,381.115c-4.397-3.073-8.931-25.599-11.7-35.443c-3.706-13.176-6.073-26.318-8.272-39.948
		c-0.642-3.977-6.867-41.768,2.78-34.444c5.683,4.314,0.391,32.005,5.959,40.097c1.231-0.447,2.659-0.812,3.854-1.33
		c1.041,7.111-1.757,13.645-0.004,21.447c1.923,8.56,3.686,16.01,5.024,24.492c2.963,18.776,19.368,32.691,19.814,51.874
		c-5.513-3.992-7.067-11.015-10.574-16.614c-1.454-2.32-8.747-13.983-6.439-9.124"/>
	<g>
		<path fill="#EAE1C3" d="M237.365,119.909c4.746-4.301,3.698-12.252,4.956-17.965c1.8-8.174,6.216-13.11-0.693-20.115
			c-4.794-4.861-10.94-5.588-17.206-5.698c-5.471-0.096-11.919-0.271-17.396,0.378c-0.062,6.69-15.999,5.969-20.544,9.161
			c-6.517,4.578-10.249,14.08-9.534,22.056c0.728,8.13,0.672,13.609,7.916,18.212c4.468,2.839,7.449,3.887,12.652,5.214
			c5.182,1.321,7.679,3.863,12.001,6.606c6.373,4.046,16.856,10.408,24.686,10.634c3.89,0.112,3.928,0.06,3.905-4.406
			c-0.021-4.099-1.485-8.237-1.657-12.364c-0.255-6.111,1.531-10.395,3.341-15.788"/>
		<path fill="#EAE1C3" d="M215.459,170.906c2.318-11.347-32.257-23.677-26.858,2.853c0.886,4.353,0.483,6.192,4.258,8.693
			c2.073,1.373,7.837,3.935,10.556,3.733c6.128-0.456,10.716-11.55,11.748-16.267c-0.171,0.782-0.342,1.564-0.513,2.347"/>
		<path fill="#5D7A60" d="M237.68,249.471c4.36-4.599,5.312-15.933,6.405-22.255c0.663-3.835,0.741-7.917,2.053-11.723
			c1.268-3.677,4.249-6.525,5.172-10.078c-1.544,0.963-2.906,2.138-4.461,2.488c0.635-11.042,2.976-21.399,1.747-32.418
			c-1.052-9.428-4.018-18.23-4.544-27.422c4.251,1.038,9.309-2.612,11.09-6.352c2.572-5.399-0.145-10.797-3.521-14.959
			c-2.582-3.184-6.355-5.576-9.567-7.74c-3.354-2.26-6.976-6.635-10.357-7.943c-1.599,6.758-3.884,11.589-3.139,18.682
			c0.544,5.177,6.991,12.453,5.421,16.977c-11.907-1.569-18.507-11.467-31.623-9.273c2.305,2.432,6.845,2.856,9.567,5.038
			c2.581,2.07,4.639,5.28,6.327,8.051c4.874,8.002,5.989,12.228,15.222,5.352c1.315-0.979,1.456-3.862,3.794-2.662
			c1.127,0.579,1.459,5.781,1.893,7.015c1.226,3.489,3.147,6.565,3.908,10.155c1.798,8.483,0.792,17.355,0.077,25.968
			c-0.282,3.398,0.283,6.073,0.591,9.214c-0.53-2.101-1.031-9.875-3.276-10.811c-4.969-2.072-1.357,4.957-1.585,6.768
			c-2.042-0.201-10.795-5.089-12.155-6.781c-2.514-3.128-0.041-9.205-1.198-13.07c-1.217-4.063-4.376-9.548-8.583-10.477
			c-3.031-0.669-10.525,1.609-6.491,4.22c-11.978-4.204-11.551,12.676-3.222,16.724c4.2,2.041,10.242,2.497,14.076,2.928
			c2.794,0.314,3.018,0.115,5.689,2.01c2.321,1.646,3.258,3.615,6.405,3.938c3.035,0.913,4.316,4.007,5.96,5.744
			c1.38,3.015,2.339,6.69,2.173,9.24c-0.302,4.648-3.307,9.222-3.689,14.076c-0.792,10.062-1.928,17.772-6.285,27.194
			c6.452-0.781,6.568-5.161,7.851-11.025"/>
	</g>
	<g>
		<path fill="#EAE1C3" d="M238.281,322.887c10.097,4.669,5.015,27.781,0.092,33.541c-9.675,11.32-29.531,11.11-41.883,12.439
			c-9.152,0.985-31.327,2.666-26.491-14.715c1.005-3.614,5.859-5.994,7.53-9.606c1.466-3.168,1.052-8.66,2.596-10.375
			c4.342-4.824,1.928-2.215-7.019-3.353c-9.559-1.216-20.855-0.324-29.647-4.978c-9.135-4.836-39.005-47.831-15.319-48.378
			c-3.335-12.762,7.263-9.366,15.4-10.946c6.872-1.334,16.134-10.629,20.235-0.445c-6.197-9.119-4.107-23.193,1.956-31.803
			c2.35-3.337,7.974-9.669,12.787-10.067c6.739-0.557,8.821,7.177,15.307,5.827c1.419-0.295,0.65-4.752,2.575-5.905
			c2.427-1.453,6.488-0.15,8.081-1.731c3.622-3.595,1.42-10.066,6.441-13.413c13.774-9.179,29.54,12.518,36.558,20.661
			c6.1-1.662,5.945-8.486,10.638-11.9c5.714-4.156,11.936-2.308,18.348-3.585c12.967-2.583,22.166-4.012,25.748,12.73
			c2.797,13.072-0.16,23.659-7.878,33.887c-5.261,6.972-30.034,16.32-23.958,25.63c7.369-2.902,9.621-10.922,16.532-13.801
			c2.236-0.931,5.297,1.366,8.03,0.482c2.978-0.964,5.344-3.855,8.395-5.169c9.551,7.725,23.431,11.115,23.419,23.837
			c-0.01,11.654-8.804,24.217-15.991,32.682c-3.755,4.423-11.66,9.774-16.613,12.025c-4.746,2.157-5.063,2.52-10.76,2.654
			c-7.832,0.184-8.948-2.959-14.332-5.743c-5.38-2.781-10.293-4.633-15.556-6.924"/>
		<path fill="#CE9142" d="M230.557,278.634c2.592,8.996-5.983,10.801-11.58,12.579c-9.455,3.004-12.173,2.932-11.105-8.157
			c0.712-7.395,3.442-13.571,12.943-13.201C220.815,269.855,227.965,269.639,230.557,278.634z"/>
	</g>
</g>
</svg>
