<?xml version="1.0" encoding="utf-8"?>
<!-- Generator: Adobe Illustrator 17.0.0, SVG Export Plug-In . SVG Version: 6.00 Build 0)  -->
<!DOCTYPE svg PUBLIC "-//W3C//DTD SVG 1.1//EN" "http://www.w3.org/Graphics/SVG/1.1/DTD/svg11.dtd">
<svg version="1.1" id="Layer_1" xmlns="http://www.w3.org/2000/svg" xmlns:xlink="http://www.w3.org/1999/xlink" x="0px" y="0px"
	 width="34px" height="22px" viewBox="-0.646 -0.125 34 22" enable-background="new -0.646 -0.125 34 22" xml:space="preserve">
<path fill="#E18C78" d="M15.488,20.484c6.187,2.453,13.549,1.609,16.619-4.885c0.143-0.123,0.212-0.302,0.212-0.482
	c2.015-4.546-4.32-9.524-7.606-11.4C21.41,1.832,17.692,1.21,13.928,0.999c-2.451-0.137-4.907-0.153-7.35-0.413
	C4.551,0.37,2.517-0.007,0.475,0C-0.198,0.003-0.11,0.964,0.452,1.111C1.3,2.572,1.65,4.395,2.397,5.895
	c0.988,1.983,2.02,3.953,3.286,5.777C8.205,15.306,11.281,18.816,15.488,20.484z M18.273,13.659c0.955,0.38,1.934,0.732,2.928,1.042
	c-3.304,1.13-7.216,3.149-10.403,1.195c-0.785-0.736-1.525-1.537-2.216-2.382C11.503,14.655,15.324,14.495,18.273,13.659z
	 M5.871,9.689c2.151,1.005,4.7,1.148,7.065,1.367c1.03,0.624,2.097,1.19,3.208,1.697c-0.923,0.135-1.848,0.283-2.779,0.309
	c-1.981,0.057-3.766-0.185-5.635-0.864c-0.069-0.025-0.132-0.032-0.191-0.029C6.946,11.359,6.391,10.526,5.871,9.689z M8.665,7.981
	c0.826,0.698,1.676,1.35,2.552,1.96C9.198,9.78,7.153,9.555,5.321,8.783C5.165,8.519,5.012,8.256,4.864,7.995
	c-0.273-0.481-0.53-0.968-0.78-1.457C5.645,6.886,7.125,7.546,8.665,7.981z M1.502,1.321C2.838,3.224,4.821,4.84,6.707,6.368
	c-0.98-0.287-1.968-0.511-2.951-0.487c-0.517-1.045-1.011-2.1-1.532-3.15C1.993,2.264,1.743,1.763,1.436,1.31
	C1.457,1.315,1.48,1.317,1.502,1.321z M8.145,2.035c0.675,1.221,1.6,2.327,2.329,3.508c0.548,0.888,1.593,2.38,1.788,3.682
	c-0.643-0.422-1.273-0.862-1.891-1.326c0.047-0.245-0.069-0.532-0.386-0.594C9.808,7.27,9.629,7.228,9.45,7.184
	C9.16,6.953,8.872,6.717,8.586,6.476C8.264,6.205,7.93,5.938,7.593,5.673C7.711,5.057,7.55,4.368,7.376,3.786
	c-0.19-0.637-0.451-1.248-0.741-1.845C7.138,1.977,7.642,2.007,8.145,2.035z M5.503,1.85c0.333,0.606,0.646,1.222,0.919,1.858
	C6.6,4.122,6.831,4.642,6.929,5.156C5.368,3.959,3.732,2.784,2.324,1.461C3.376,1.634,4.437,1.755,5.503,1.85z M12.541,2.243
	c2.13,2.04,5.795,6.476,4.761,9.706c-0.319-0.14-0.637-0.281-0.949-0.427c-0.679-0.318-1.338-0.659-1.984-1.018
	c-0.042-0.168-0.168-0.309-0.395-0.333c-0.076-0.008-0.153-0.015-0.23-0.023c-0.326-0.191-0.647-0.388-0.965-0.589
	c0.284-1.189-0.334-2.483-0.927-3.595C11.14,4.628,10.277,3.378,9.46,2.101C10.49,2.149,11.519,2.191,12.541,2.243z M16.452,2.525
	c-0.046,0.156,0.004,0.333,0.195,0.416c1.994,0.864,3.236,3.159,4.077,5.039c0.625,1.398,1.794,3.936,1.31,5.7
	c-1.029-0.295-2.043-0.639-3.034-1.024c-0.092-0.08-0.209-0.133-0.341-0.137c-0.171-0.068-0.339-0.141-0.51-0.212
	c1.469-2.46-1.724-7.615-3.931-9.967C14.959,2.388,15.705,2.444,16.452,2.525z M22.982,4.403c0.238,0.656,0.881,1.213,1.23,1.828
	c0.603,1.064,1.125,2.203,1.509,3.365c0.403,1.219,1.242,3.649,0.438,4.95c-1.15-0.145-2.294-0.377-3.423-0.672
	c0.807-1.672-0.272-4.566-0.848-5.925c-0.517-1.221-1.665-3.871-3.178-5.095c1.474,0.28,2.911,0.699,4.253,1.357
	C22.954,4.272,22.958,4.338,22.982,4.403z M27.147,14.647c0.584-1.15,0.343-2.977,0.057-4.196c-0.348-1.483-0.977-2.961-1.742-4.275
	c-0.137-0.236-0.299-0.541-0.488-0.852c3.399,2.078,6.65,5.167,6.683,9.189c-0.003,0-0.004,0-0.007,0
	C30.161,14.742,28.652,14.77,27.147,14.647z M19.443,20.255c2.559-0.656,4.922-2.654,6.911-4.223c0.07-0.055,0.12-0.117,0.156-0.182
	c1.394,0.155,2.794,0.183,4.179,0.041C28.273,19.85,23.779,20.98,19.443,20.255z M17.062,19.669
	c-1.154-0.378-2.265-0.883-3.287-1.494c-0.395-0.236-0.777-0.495-1.152-0.767c3.048,0.739,7.504-1.273,9.816-2.15
	c0.09-0.034,0.155-0.085,0.201-0.143c0.784,0.207,1.575,0.378,2.37,0.517c0.003,0.004,0.005,0.008,0.008,0.012
	C22.645,17.53,20.121,19.501,17.062,19.669z"/>
</svg>
