<?xml version="1.0" encoding="utf-8"?>
<!-- Generator: Adobe Illustrator 17.0.0, SVG Export Plug-In . SVG Version: 6.00 Build 0)  -->
<!DOCTYPE svg PUBLIC "-//W3C//DTD SVG 1.1//EN" "http://www.w3.org/Graphics/SVG/1.1/DTD/svg11.dtd">
<svg version="1.1" id="Layer_1" xmlns="http://www.w3.org/2000/svg" xmlns:xlink="http://www.w3.org/1999/xlink" x="0px" y="0px"
	 width="77.636px" height="36.954px" viewBox="0 0 77.636 36.954" enable-background="new 0 0 77.636 36.954" xml:space="preserve">
<path fill="#EBE2C4" d="M77.024,9.748C74.79,1.496,63.624-3.448,56.895,2.86c-4.516,4.232-3.525,11.988,2.205,14.448
	c4.32,1.854,10.61,0.481,10.186-5.243c-0.034-0.459-0.355-0.739-0.704-0.811c-0.311-0.492-0.888-0.856-1.784-0.977
	c-0.296-0.04-0.585,0.198-0.675,0.464c-0.401,1.192-0.744,2.364-0.903,3.594c-0.184,0.239-0.379,0.47-0.593,0.687
	c-0.722,0.734-1.589,0.912-2.485,1.161c-0.878-0.1-1.767-0.357-2.589-0.756c-4.91-2.379-4.382-8.764-0.523-11.911
	c4.467-3.642,11.349-0.926,14.452,3.145c2.755,3.615,2.713,8.741,1.488,12.903c-1.536,5.219-5.08,8.308-9.711,10.832
	c-5.987,3.263-12.801,5.512-19.68,4.725c-5.174-0.592-8.917-3.4-11.533-7.524c2.563-2.604,6.147-8.126,2.453-11.129
	c-3.259-2.649-6.382,2.642-6.283,5.469c0.067,1.918,0.769,3.828,1.782,5.598c-3.605,3.376-8.398,4.971-13.351,3.941
	c-4.618-0.961-8.715-4.299-9.618-9.051C9,22.272,8.978,22.121,8.958,21.969c2.528-0.647,5.112-2.441,6.729-3.755
	c1.823-1.481,4.971-4.877,2.782-7.237c-2.014-2.171-5.752-0.291-7.411,1.3c-2.317,2.221-3.377,5.865-3.248,9.098
	C6.551,21.3,5.359,21.372,4.233,20.73c-0.013-0.032-0.027-0.064-0.052-0.095c-0.735-0.903-1.343-1.502-1.725-2.643
	c-0.21-0.625-0.473-1.174-0.901-1.676c-0.187-0.22-0.516-0.221-0.73-0.044c-3.212,2.66,3.78,7.57,6.956,5.908
	c0.028-0.003,0.055-0.004,0.083-0.007c0.017,0.164,0.034,0.327,0.057,0.488c1.039,7.107,8.945,10.921,15.476,10.401
	c3.621-0.288,6.682-1.992,9.37-4.293c1.012,1.5,2.21,2.867,3.379,4.001c3.753,3.64,9.661,4.481,14.655,4.1
	c6.129-0.467,12.004-3.031,17.274-6.055C75.288,26.677,79.232,17.902,77.024,9.748z M10.879,14.271
	c1.21-1.996,4.355-4.131,6.69-2.692c2.506,1.543-2.142,5.66-3.346,6.597c-1.282,0.998-3.315,2.351-5.332,3.019
	C8.785,18.772,9.647,16.303,10.879,14.271z M33.255,26.24c-0.098-0.181-0.198-0.359-0.292-0.544
	c-1.081-2.119-1.903-5.028-0.138-7.014c2.19-2.463,3.567,0.073,3.487,2.341C36.248,22.851,34.46,24.892,33.255,26.24z"/>
</svg>
