<?xml version="1.0" encoding="utf-8"?>
<!-- Generator: Adobe Illustrator 17.0.0, SVG Export Plug-In . SVG Version: 6.00 Build 0)  -->
<!DOCTYPE svg PUBLIC "-//W3C//DTD SVG 1.1//EN" "http://www.w3.org/Graphics/SVG/1.1/DTD/svg11.dtd">
<svg version="1.1" id="Layer_1" xmlns="http://www.w3.org/2000/svg" xmlns:xlink="http://www.w3.org/1999/xlink" x="0px" y="0px"
	 width="77.636px" height="36.954px" viewBox="0 0 77.636 36.954" enable-background="new 0 0 77.636 36.954" xml:space="preserve">
<path fill="#EBE2C4" d="M9.561,30.816c5.27,3.024,11.144,5.588,17.274,6.055c4.994,0.38,10.902-0.46,14.655-4.1
	c1.169-1.134,2.367-2.501,3.379-4.001c2.688,2.301,5.748,4.005,9.37,4.293c6.531,0.52,14.437-3.295,15.476-10.401
	c0.024-0.16,0.04-0.324,0.057-0.488c0.028,0.003,0.055,0.005,0.083,0.007c3.176,1.662,10.169-3.248,6.956-5.908
	c-0.214-0.177-0.543-0.176-0.73,0.044c-0.428,0.502-0.691,1.051-0.901,1.676c-0.383,1.141-0.991,1.74-1.725,2.643
	c-0.025,0.031-0.04,0.063-0.052,0.095c-1.126,0.642-2.318,0.57-3.576,0.645c0.129-3.233-0.931-6.877-3.248-9.098
	c-1.659-1.591-5.397-3.471-7.411-1.3c-2.19,2.36,0.959,5.756,2.782,7.237c1.617,1.314,4.2,3.109,6.729,3.755
	c-0.02,0.151-0.043,0.303-0.071,0.453c-0.902,4.752-5,8.09-9.618,9.051c-4.953,1.03-9.746-0.565-13.351-3.941
	c1.013-1.77,1.714-3.68,1.782-5.598c0.099-2.826-3.024-8.118-6.283-5.469c-3.695,3.004-0.111,8.525,2.453,11.129
	c-2.616,4.124-6.358,6.932-11.533,7.524c-6.879,0.788-13.693-1.462-19.68-4.725c-4.631-2.524-8.174-5.613-9.711-10.832
	C1.442,15.402,1.4,10.276,4.155,6.661c3.102-4.071,9.985-6.787,14.452-3.145c3.859,3.147,4.387,9.532-0.523,11.911
	c-0.823,0.399-1.712,0.656-2.589,0.756c-0.896-0.249-1.763-0.427-2.485-1.161c-0.214-0.217-0.409-0.448-0.593-0.687
	c-0.159-1.229-0.502-2.402-0.903-3.594c-0.089-0.267-0.379-0.504-0.675-0.464c-0.896,0.121-1.473,0.484-1.784,0.977
	c-0.349,0.072-0.67,0.352-0.704,0.811c-0.424,5.724,5.866,7.097,10.186,5.243c5.731-2.46,6.721-10.215,2.205-14.448
	C14.012-3.448,2.847,1.496,0.612,9.748C-1.596,17.902,2.349,26.677,9.561,30.816z M68.745,21.194
	c-2.017-0.668-4.05-2.02-5.332-3.019c-1.203-0.937-5.851-5.054-3.346-6.597c2.335-1.439,5.479,0.696,6.69,2.692
	C67.989,16.303,68.852,18.772,68.745,21.194z M41.324,21.024c-0.08-2.268,1.297-4.804,3.487-2.341
	c1.765,1.985,0.943,4.894-0.138,7.014c-0.094,0.185-0.194,0.363-0.292,0.544C43.176,24.892,41.388,22.851,41.324,21.024z"/>
</svg>
