<?xml version="1.0" encoding="utf-8"?>
<!-- Generator: Adobe Illustrator 17.0.0, SVG Export Plug-In . SVG Version: 6.00 Build 0)  -->
<!DOCTYPE svg PUBLIC "-//W3C//DTD SVG 1.1//EN" "http://www.w3.org/Graphics/SVG/1.1/DTD/svg11.dtd">
<svg version="1.1" id="Layer_1" xmlns="http://www.w3.org/2000/svg" xmlns:xlink="http://www.w3.org/1999/xlink" x="0px" y="0px"
	 width="200px" height="110px" viewBox="-48.775 -23.388 200 110" enable-background="new -48.775 -23.388 200 110"
	 xml:space="preserve">
<g>
	<path fill="#BCD3BE" d="M117.998-17.211c0.189,0.561,0.493,2.1,0.921,4.648c2.083-1.72,4.855-2.64,8.379-2.759
		c-1.335,0.893-2.505,1.848-3.511,2.864c-1.661,1.68-2.876,3.552-3.65,5.626c-0.497,1.358-0.849,3.537-1.044,6.569
		c-0.176,3.03-0.678,5.369-1.444,7.041c-0.775,1.673-1.734,3.074-2.886,4.239c-2.349,2.376-4.727,3.056-7.126,2.055
		c-1.111-0.452-2.014-1.012-2.724-1.714c-1.898-1.876-2.375-4.458-1.433-7.769c0.731-2.593,2.157-4.933,4.274-7.074
		c0.459-0.464,1.175-1.144,2.129-2.035c0.973-0.878,1.681-1.551,2.141-2.016c1.112-1.124,1.952-2.199,2.536-3.282
		c0.875-1.426,1.385-3.188,1.508-5.262c-0.014-0.932-0.092-2.756-0.243-5.483C116.792-20.317,117.53-18.868,117.998-17.211z
		 M86.548,32.874c-1.252,1.266-2.627,2.519-4.145,3.77c0.508-1.887,0.558-4.491,0.199-7.798c-0.374-3.307-0.192-6.196,0.541-8.702
		c0.542-1.677,2.445-4.786,5.693-9.398c2.944-4.168,4.395-7.082,4.389-8.748C98.271,12.963,96.048,23.265,86.548,32.874z
		 M115.859,20.383l1.247,1.232c-10.666,9.863-22.819,16.161-36.485,18.914l-0.357-1.721
		C93.495,36.216,105.354,30.072,115.859,20.383z M107.372,14.748c-1.464,3.415-3.634,6.734-6.532,9.941
		c-1.878,2.19-4.771,5.024-8.681,8.506l-1.256-1.368c3.849-3.458,6.739-6.223,8.624-8.307c2.79-3.203,4.859-6.365,6.164-9.467
		L107.372,14.748z M127.479,4.166c4.379-1.562,7.312-3.074,8.783-4.563c1.417-1.433,2.926-4.267,4.521-8.479
		c0.414,1.515,0.471,3.172,0.158,4.99c-0.04,0.6-0.368,2.186-1.015,4.777c2.873-0.75,5.945-0.514,9.229,0.716
		c-4.382,0.72-7.907,2.436-10.565,5.124c-1.059,1.072-2.323,3.018-3.79,5.829c-1.461,2.842-2.896,4.877-4.326,6.137
		c-2.164,1.909-4.401,3.081-6.703,3.504c-2.302,0.439-4.161-0.098-5.564-1.57c-3.193-3.25-3.192-6.83,0.019-10.738
		C120.257,7.478,123.32,5.572,127.479,4.166z"/>
	<path fill="#BCD3BE" d="M-25.023,7.978c0.077,1.91,0.144,3.186,0.196,3.837c0.224,1.437,0.697,2.631,1.401,3.566
		c0.479,0.716,1.136,1.409,1.985,2.118c0.352,0.294,0.89,0.715,1.626,1.262c0.724,0.557,1.268,0.983,1.619,1.276
		c1.617,1.351,2.767,2.887,3.449,4.645c0.877,2.244,0.717,4.075-0.481,5.509c-0.448,0.536-1.04,0.987-1.784,1.376
		c-1.605,0.858-3.307,0.542-5.102-0.957c-0.88-0.735-1.642-1.648-2.293-2.762c-0.645-1.115-1.151-2.711-1.475-4.81
		c-0.338-2.099-0.729-3.594-1.165-4.508c-0.677-1.394-1.649-2.617-2.918-3.677c-0.768-0.641-1.647-1.229-2.637-1.762
		c2.464-0.152,4.457,0.305,6.023,1.364c0.129-1.805,0.238-2.897,0.332-3.301C-26.03,9.969-25.613,8.909-25.023,7.978z M-7.705,22.89
		c0.107,1.161,1.312,3.095,3.641,5.804c2.57,2.998,4.104,5.037,4.593,6.17c0.678,1.697,0.997,3.699,0.957,6.028
		c-0.03,2.328,0.179,4.139,0.658,5.42c-1.141-0.771-2.183-1.552-3.14-2.351C-8.255,37.897-10.49,30.866-7.705,22.89z M3.779,47.677
		L3.645,48.9c-9.706-1.008-18.594-4.588-26.683-10.75l0.787-0.942C-14.286,43.26-5.614,46.751,3.779,47.677z M-15.588,32.12
		c1.116,2.075,2.768,4.141,4.926,6.187c1.452,1.327,3.65,3.061,6.563,5.214l-0.784,1.037c-2.956-2.166-5.161-3.948-6.616-5.349
		c-2.233-2.041-3.966-4.21-5.214-6.492L-15.588,32.12z M-24.6,30.056c2.498,2.51,2.737,5.004,0.729,7.481
		c-0.88,1.119-2.139,1.617-3.773,1.464c-1.633-0.142-3.269-0.809-4.904-1.995c-1.081-0.782-2.216-2.105-3.423-3.988
		c-1.21-1.861-2.22-3.133-3.029-3.81c-2.031-1.697-4.602-2.657-7.704-2.867c2.207-1.076,4.332-1.445,6.384-1.114
		c-0.623-1.762-0.958-2.846-1.026-3.261c-0.339-1.246-0.41-2.404-0.222-3.487c1.392,2.829,2.632,4.703,3.715,5.607
		c1.125,0.939,3.269,1.798,6.424,2.595C-28.437,27.384-26.176,28.508-24.6,30.056z"/>
	<g>
		<path fill="#EBE8DB" d="M-5.078,62.681l2.53-0.354l6.936-6.147c2.598-1.894,4.82-2.825,6.633-2.795l10.999,0.846l0.837-0.48
			c-3.242,5.178-4.852,8.504-4.789,9.903c-2.462,1.423-6.011,1.996-10.558,1.692l-12.107-1.829L-5.078,62.681z M26.946,51.388
			l0.846-0.489l-0.449,3.001l-0.193,4.502l2.493,12.927c0.053,5.819-1.389,10.336-4.324,13.457l-0.757-2.283
			c-4.659-6.127-6.68-11.56-6.117-16.267C19.408,60.884,22.23,55.928,26.946,51.388z M37.97,28.441l2.536-0.357
			c1.232,1.487,1.389,2.708,0.454,3.609c-2.033,1.537-3.299,1.923-3.759,1.115C36.533,30.973,36.783,29.507,37.97,28.441z
			 M67.071,50.24c7.716,2.517,12.672,5.339,14.868,8.509c3.461,5.372,6.053,10.483,7.761,15.377
			c-5.123,0.044-9.727-1.903-13.795-5.819l-5.96-10.321C70.427,56.941,69.466,54.391,67.071,50.24z M107.804,52.058l-6.958,1.297
			l-7.997,2.371c-7.795,0.48-14.591-1.086-20.371-4.745l11.646-5.606l6.367-0.392l6.958,1.525
			C103.371,50.372,106.842,52.237,107.804,52.058z M47.971-19.183c10.851,12.453,12.953,24.08,6.377,34.89l-4.204-5.29
			c-2.216-3.84-3.564-7.476-4.072-10.866l1.474-18.494L47.971-19.183z M60.233-6.458c1.234-1.089,4.37-2.33,9.43-3.776
			c2.447,0.41,3.786,0.208,4.035-0.644c-1.895,1.809-3.009,3.73-3.334,5.77L65.215,11.65l-1.625,1.996l-5.574,2.731l-1.976-0.536
			c1.27-2.236,2.374-6.378,3.324-12.432L58.66-4.432L60.233-6.458z"/>
		<g>
			<path opacity="0.5" fill="#EBE8DB" d="M9.737,24.372l6.848-3.384c3.554-0.219,5.357,0.006,5.405,0.729
				c-2.97,3.167-3.943,7.213-2.907,12.157c2.775,6.109,6.649,10.281,11.637,12.537l-2.996,3.399l-7.104,2.992
				c-3.701-0.044-6.848-1.373-9.399-3.931c-0.858-0.211-1.51-2.582-1.95-7.134l0.732-2.611c-3.268-1.786-4.621-4.128-4.057-7.029
				C6.427,28.514,7.698,25.932,9.737,24.372z"/>
			<path opacity="0.5" fill="#EBE8DB" d="M30.552,47.067l1.254-0.717l11.166,4.054l8.919-0.749l5.609-2.687l4.334-5.793l0.474-3.074
				l-1.045-6.534l-4.48-6.774l-4.925-3.829l-0.275-1.443c7.188-3.439,12.996-2.948,17.38,1.505c1.871,2.605,2.718,5.061,2.573,7.35
				l-1.662,4.812c2.801,0.94,4.793,3.103,5.989,6.469l-0.025,3.846l-2.691,3.805c-2.441,2.114-4.852,2.749-7.216,1.926l-0.783,0.451
				c3.157,7.368,1.396,12.617-5.254,15.702l-5.765,0.594l-6.633-3.846c-7.194,5.96-12.886,5.948-17.12-0.064
				C27.833,57.673,27.887,52.655,30.552,47.067z"/>
			<path opacity="0.5" fill="#EBE8DB" d="M21.248,24.299l1.254-0.723c3.595,11.94,10.329,17.607,20.261,17.001L36.49,43.08
				l-4.485-0.146c-2.708-0.255-5.637-1.853-8.804-4.854C20.046,33.292,19.396,28.69,21.248,24.299z"/>
			<path opacity="0.5" fill="#EBE8DB" d="M51.508,28.962c-1.996-4.736-4.657-7.786-8.034-9.168c-3.592-0.48-6.314-0.375-8.139,0.304
				l-3.675,2.122l-3.508,6.417l-2.169-0.969c-3.1-5.907-3.106-10.696-0.031-14.326c3.702-2.509,7.078-2.632,10.225-0.375
				c2.122-2.687,4.411-3.817,6.847-3.399c3.65,1.203,5.866,2.491,6.651,3.846l1.212,2.093c0.42,1.964,0.037,3.837-1.165,5.652
				l6.56,5.533c5.415,7.55,5.511,13.738,0.252,18.603L50.74,48.63L42.649,48.9l-10.304-3.428
				C46.067,43.786,52.454,38.303,51.508,28.962z"/>
			<path opacity="0.5" fill="#EBE8DB" d="M32.595,23.84c7.69-2.582,12.658-1.956,14.884,1.903c1.358,1.8,1.49,4.289,0.386,7.465
				c0.209,1.004-0.899,2.219-3.367,3.65c-2.917,1.306-5.562,1.537-7.893,0.709l-0.555-1.923l5.041-1.797
				c1.537-0.51,2.064-2.123,1.629-4.786l-2.279-2.04l-3.173,0.208c-1.761-0.471-2.901,1.651-3.444,6.399l-1.254,0.732l-2.002-0.533
				C29.119,28.055,29.794,24.718,32.595,23.84z"/>
		</g>
	</g>
</g>
</svg>
