<?xml version="1.0" encoding="utf-8"?>
<!-- Generator: Adobe Illustrator 17.0.0, SVG Export Plug-In . SVG Version: 6.00 Build 0)  -->
<!DOCTYPE svg PUBLIC "-//W3C//DTD SVG 1.1//EN" "http://www.w3.org/Graphics/SVG/1.1/DTD/svg11.dtd">
<svg version="1.1" id="Layer_1" xmlns="http://www.w3.org/2000/svg" xmlns:xlink="http://www.w3.org/1999/xlink" x="0px" y="0px"
	 width="102.451px" height="63.224px" viewBox="0 0 102.451 63.224" enable-background="new 0 0 102.451 63.224"
	 xml:space="preserve">
<g>
	<g>
		<g opacity="0.5">
			<path fill="#ECE9DC" d="M42.503,31.93c-0.01-2.618-0.202-5.623,0.665-8.124c0.58-1.67,2.398-2.777,4.357-3.193
				c0.598-0.071,1.213-0.049,1.865,0.122c0.792,0.21,1.404,0.417,2.128,0.331c0.014,0.033,0.046,0.062,0.084,0.059
				c0.111-0.007,0.526,0.06,0.681,0.058c0.215-0.003,0.466-0.271,0.259-0.471c-0.03-0.03-0.062-0.057-0.093-0.085
				c0.075-0.199,0.04-0.446-0.077-0.625c-5.461-8.231-17.316-1.477-21.22,4.8c-2.293,3.687-2.489,8.111,0.229,11.624
				c1.767,2.283,4.233,3.952,7.178,3.021C41.885,38.395,42.516,34.946,42.503,31.93z"/>
			<path fill="#ECE9DC" d="M56.44,31.775c1.358-2.916,0.587-7.675-3.031-7.724c-2.572-0.819-5.954-1.297-7.637,1.052
				c-0.951,1.327-0.218,3.489,0.146,4.865c0.646,2.438,0.506,4.955,0.474,7.448c-0.006,0.376,0.254,0.646,0.638,0.617
				C50.902,37.729,54.801,35.299,56.44,31.775z"/>
			<path fill="#ECE9DC" d="M57.039,47.612c0.68-1.921,3.345-1.801,4.762-3.049c2.239-1.972,3.209-5.706,2.625-8.584
				c-0.502-2.48-2.599-3.118-4.73-2.098c-1.798,0.862-3.2,2.516-4.772,3.707c-2.035,1.541-4.179,1.727-6.618,1.606
				c-0.875-0.043-1.77-0.07-2.634,0.055c-0.096-0.118-0.249-0.183-0.454-0.125c-1.988,0.551-4.199,2.485-4.864,4.582
				c-0.058,0.046-0.116,0.094-0.177,0.138c-0.159,0.11-0.096,0.333,0.038,0.422c-0.007,0.037-0.017,0.075-0.022,0.112
				c-0.462,3.109,2.813,4.67,5.281,5.491c1.449,0.483,3.004,0.713,4.502,0.994c1.554,0.291,3.283,0.434,4.769-0.2
				C56.17,50.056,56.553,48.987,57.039,47.612z"/>
			<path fill="#ECE9DC" d="M64.194,22.027c-1.753-2.64-4.57-4.652-6.933-6.707c-1.654-1.439-3.518-2.226-5.649-1.382
				c-0.231,0.093-0.415,0.385-0.355,0.637c0.565,2.348,1.58,5.488,3.652,6.913c1.571,1.081,3.531,1.132,4.548,2.958
				c1.04,1.867,1.233,4.377,0.169,6.262c-0.157,0.279,0.072,0.565,0.312,0.561c0.077,0.195,0.193,0.397,0.348,0.619
				c0.219,0.315,0.626,0.279,0.911,0.101C64.924,29.651,66.825,25.989,64.194,22.027z"/>
			<path fill="#ECE9DC" d="M52.786,10.565c1.07-0.729,1.523-2.098,1.417-3.575c-0.172-2.388-1.831-4.771-3.765-6.09
				c-2.134-1.455-4.868-1.146-6.414,0.923c-1.172,1.571-2.127,2.046-4.141,1.88c-1.678-0.138-3.311-0.447-5.003-0.376
				c-3.519,0.149-4.914,2.97-4.539,6.161c0.114,0.955,0.273,1.73,0.134,2.697c-0.139,0.963-0.259,1.922-0.295,2.896
				c-0.045,1.23,0.233,2.511,1.244,3.301c1.714,1.339,4.269-1.174,5.451-2.157c2.084-1.73,4.47-2.006,7.081-2.444
				C46.612,13.336,50.725,12.641,52.786,10.565z"/>
			<path fill="#ECE9DC" d="M34.485,53.272c2.249-2.549,3.791-5.443,2.732-8.885c-1.159-3.767-6.234-5.24-9.147-7.276
				c-1.679-1.173-2.98-2.668-3.233-4.751c-0.189-1.555,0.611-3.073,1.384-4.354c1.337-2.214,3.413-4.613,2.63-7.381
				c-0.395-1.399-0.853-2.412-0.828-3.92c0.017-0.979,0.087-1.954-0.042-2.929c-0.271-2.04-1.76-1.733-2.908-0.828
				c-2.896,0.459-5.605,2.459-6.988,5.005c-1.521,2.797-0.702,6.212-0.549,9.214c0.1,1.952-0.759,3.682-1,5.583
				c-0.218,1.727,0.554,3.598,1.267,5.125c0.656,1.406,1.567,2.962,2.736,4c1.355,1.2,3.031,1.844,4.525,2.835
				c1.793,1.191,1.929,3.005,1.644,4.954c-0.179,1.211-0.393,2.726,0.441,3.769C29.19,55.983,32.47,55.557,34.485,53.272z"/>
			<path fill="#ECE9DC" d="M74.041,45.846c0.411-1.341,0.956-2.891,0.64-4.301c-0.309-1.392-1.829-2.075-3.109-2.233
				c-2.774-0.343-5.993,1.868-7.063,4.327c-0.382,0.876-0.42,1.907-0.558,2.84c-0.246,1.671-1.438,2.033-2.867,2.529
				c-2.005,0.694-3.558,2.283-5.273,3.482c-4.059,2.834-8.717-0.352-13.105-1.177c-2.092-0.79-4.718-0.267-6.163,1.455
				c-1.923,2.292-1.943,5.631,0.097,7.787c2,2.115,5.849,3.222,8.642,2.394c1.368-0.404,2.509-1.19,3.666-2.001
				c1.821-1.276,3.674-2.033,5.854-2.493c4.248-0.897,9.006-0.277,12.827-2.667C71.233,53.533,72.846,49.765,74.041,45.846z"/>
			<path fill="#ECE9DC" d="M76.214,28.11c0.468-2.843,0.466-5.795,0.137-8.653c-0.236-2.054-0.671-4.388-1.951-6.076
				c-1.409-1.86-3.743-2.47-5.884-3.035c-1.26-0.332-2.495-0.715-3.611-1.402c-1.164-0.715-1.981-1.85-3.177-2.545
				c-0.67-0.388-1.4-0.558-2.041-0.427C59.565,5.94,59.505,5.89,59.362,5.97c-0.05,0.029-0.065,0.036-0.068,0.032
				C59.292,6,60.102,7.012,60.102,7.012s0.011-0.008,0.003-0.002c-0.44,0.352-1.377,0.301-1.681,0.797
				c-0.332,0.471-0.812,0.784-0.863,1.397c-0.014,0.168-0.135,0.228-0.122,0.396c-0.001,0.051-0.06,0.049-0.056,0.102
				c-0.313,1.305-0.041,2.707,0.963,3.886c1.188,1.398,3.194,2.061,4.743,2.949c1.797,1.028,3.444,2.891,4.38,4.726
				c1.759,3.444-0.514,6.414-1.615,9.581c-0.863,2.481-0.299,4.703,2.234,5.758C73.295,38.77,75.597,31.859,76.214,28.11z"/>
		</g>
		<path fill="#ECE9DC" d="M99.603,23.947c0.103-1.476-1.11-2.579-2.467-2.825c-1.789-0.325-3.855,1.024-5.318,1.859
			c-2.23,1.275-4.095,2.539-5.862,4.444c-0.192,0.208-0.382,0.415-0.57,0.621c-0.679,0.652-1.376,1.289-2.148,1.848
			c-1.725,1.251-3.807,2.325-4.749,4.335c-0.194,0.117-0.181,0.333-0.059,0.447c0.051,0.215,0.2,0.413,0.406,0.47
			c4.506,1.252,9.086-0.264,12.997-2.549C94.847,30.837,99.331,27.849,99.603,23.947z"/>
		<path fill="#ECE9DC" d="M102.2,46.148c-0.86-2.75-2.789-4.682-5.353-5.908c-2.661-1.271-5.805-1.474-8.705-1.475
			c-1.346,0-2.764,0.081-4.152,0.014c-1.539-0.666-3.208-1.01-4.848-1.372c-0.009-0.009-0.02-0.013-0.03-0.019
			c-0.073-0.05-0.151-0.05-0.22-0.022c-0.378-0.004-0.707,0.412-0.638,0.775c0.616,3.236,2.57,5.593,5.133,7.557
			c2.051,1.569,4.455,3.041,6.838,4.064c3.053,1.314,8.012,2.663,11.016,0.6C102.599,49.431,102.645,47.568,102.2,46.148z"/>
		<path fill="#ECE9DC" d="M22.634,53.654c0.224-0.967-0.07-2.025-0.31-2.957c-0.297-1.152-0.305-2.047-0.127-3.212
			c0.061-0.398-0.362-0.636-0.685-0.523c0.047-0.223-0.258-0.404-0.428-0.19C19.138,49.199,4.741,55.72,8.976,60.024
			c2.973,3.023,7.697,0.067,10.309-1.986C20.733,56.899,22.205,55.503,22.634,53.654z"/>
		<path fill="#ECE9DC" d="M20.08,45.029c-0.027-0.018-0.053-0.037-0.081-0.054c-0.675-2.007-2.73-3.409-4.561-4.3
			c-0.153-0.075-0.319-0.061-0.458,0.004c-1.262-1.223-2.538-2.431-3.989-3.436c-2.92-2.022-7.615-2.41-10.305,0.311
			c-2.265,2.296,1.66,4.917,3.388,5.788c1.744,0.878,3.543,1.152,5.461,1.415c3.295,0.45,6.613,0.734,9.925,1.047
			c0.218,0.021,0.429-0.122,0.534-0.315C20.192,45.449,20.283,45.158,20.08,45.029z"/>
	</g>
</g>
</svg>
