<?xml version="1.0" encoding="utf-8"?>
<!-- Generator: Adobe Illustrator 17.0.0, SVG Export Plug-In . SVG Version: 6.00 Build 0)  -->
<!DOCTYPE svg PUBLIC "-//W3C//DTD SVG 1.1//EN" "http://www.w3.org/Graphics/SVG/1.1/DTD/svg11.dtd">
<svg version="1.1" id="Layer_1" xmlns="http://www.w3.org/2000/svg" xmlns:xlink="http://www.w3.org/1999/xlink" x="0px" y="0px"
	 width="270px" height="310px" viewBox="0 0 270 310" enable-background="new 0 0 270 310" xml:space="preserve">
<g>
	<ellipse fill="#92B89A" cx="136" cy="150.016" rx="110" ry="126"/>
	<g>
		<path fill="#332D2B" d="M88.213,198.381c-0.097-0.367-0.212-1.112-0.343-2.179c-1.738-14.221-6.172-85.738-6.172-85.738
			s29.799-12.896,31.898-12.896s66.23,3.15,66.23,3.15v70.35v28.696c0,0-77.255,16.263-78.305,14.784L88.213,198.381z"/>
		<path fill="#E5C7B1" d="M167.565,189.867c-15.225-5.964-22.05-15.414-23.1-28.539s-24.15,2.625-24.15,2.625
			c-2.203,30.358-27.312,28.272-27.312,28.272c9.462,22.653,40.962,45.753,40.962,45.753s27.3-1.365,28.875-3.308
			s16.425-20.469,16.425-20.469L167.565,189.867z"/>
		<path fill="#EBE8CC" d="M192.374,247.851c-1.919-2.657-5.964-3.516-8.99-4.103c-2.05-0.398-4.101-0.822-6.153-1.244
			c0.589-1.613,1.064-3.284,1.385-5.051c1.541-8.476,0.744-18.647-6.954-24.004c-9.739-6.776-20.567-1.322-28.797,4.986
			c-4.628,3.547-4.773,5.7-9.939,3.399c-4.282-1.908-7.749-5.164-12.087-7.097c-7.787-3.469-18.677-3.498-23.493,4.342
			c-5.027,8.184-6.459,19.749-0.132,27.825l-0.525-2.1c0.593-1.076,6.015-0.743,9.18,0.085c-1.414,1.288-2.99,2.36-4.153,3.935
			c-2.933,3.969-3.677,9.155-2.669,13.896c1.107,5.207,4.83,7.787,9.499,9.342c8.776,2.583,17.974,3.956,27.453,3.956
			c15.677,0,30.585-3.765,44.081-10.535c0.46-0.289,0.949-0.544,1.522-0.774c3.363-1.757,6.633-3.705,9.804-5.827
			C193.519,255.68,194.595,250.926,192.374,247.851z"/>
		<path fill="#E5C7B1" d="M176.57,104.574c-4.202,35.97-20.509,65.888-45.807,65.888s-40.989-28.277-45.807-65.888
			c-4.624-36.094,20.509-65.887,45.807-65.887S180.792,68.431,176.57,104.574z"/>
		<g>
			<circle opacity="0.1" fill="#EF6E5C" cx="161.206" cy="117.76" r="5.963"/>
			<circle opacity="0.1" fill="#EF6E5C" cx="100.24" cy="117.76" r="5.963"/>
		</g>
		<path fill="#423B39" d="M149.144,76.495c8.013,6.153,15.015,13.276,19.203,24.466c6.377,17.036-1.303,40.28-5.251,57.148
			c-4.083,17.449-0.575,35.693,4.571,52.543c6.8,22.265,1.177,48.1,27.963,45.26c8.516-0.903,39.152-20.575,31.177-31.891
			c-28.782-40.84-27.822-44.918-31.493-57.795c-8.427-29.559,5.114-58.141,2.202-87.321c-2.961-29.671-27.108-71.009-60.775-71.997
			c-10.367-0.304-28.446,7.605-29.152,19.347c-0.672,11.176,6.661,22.533,14.372,29.834
			C130.691,64.353,140.505,69.861,149.144,76.495z"/>
		<path fill="#423B39" d="M63.607,170.899c-1.673,19.058-6.072,37.65-11.604,55.929c-0.315,1.043-0.652,2.109-0.993,3.181
			c10.863,15.126,24.746,27.295,40.59,35.312c0.499-0.164,0.975-0.355,1.402-0.596c15.744-8.887,15.306-28.02,14.545-41.972
			c-2.482-45.5-30.261-88.358-18.208-134.4c3.3-12.606,4.109-25.199,12.522-35.283c3.647-4.367,9.117-7.009,12.722-11.465
			c4.383-5.418,0.897-7.805-2.669-13.102c-0.318-0.473-0.693-0.855-1.111-1.161c-7.553,2.028-14.804,4.95-21.668,8.658
			C52.544,69.293,67.475,126.848,63.607,170.899z"/>
		<g opacity="0.5">
			<path fill="#332D2B" d="M91.517,91.959c0,0,0.053-0.095,0.153-0.272c0.106-0.171,0.248-0.436,0.454-0.746
				c0.101-0.157,0.213-0.331,0.335-0.52c0.144-0.179,0.317-0.361,0.499-0.565c0.182-0.204,0.387-0.413,0.604-0.64
				c0.213-0.242,0.475-0.402,0.733-0.622c0.268-0.205,0.547-0.418,0.835-0.639c0.305-0.193,0.634-0.369,0.97-0.563
				c0.666-0.411,1.434-0.674,2.225-0.986c0.398-0.143,0.816-0.232,1.236-0.345c0.211-0.054,0.423-0.108,0.636-0.163
				c0.215-0.041,0.433-0.065,0.651-0.099c0.437-0.056,0.878-0.14,1.322-0.171c0.445-0.016,0.891-0.033,1.338-0.049
				c0.448-0.024,0.891,0.033,1.334,0.053c0.442,0.027,0.884,0.056,1.314,0.137c0.432,0.066,0.859,0.14,1.278,0.221
				c0.416,0.097,0.824,0.207,1.222,0.322c0.199,0.057,0.396,0.113,0.591,0.169c0.192,0.068,0.381,0.138,0.567,0.211
				c0.371,0.146,0.736,0.279,1.083,0.426c0.679,0.347,1.327,0.634,1.878,1.005c0.553,0.362,1.058,0.679,1.46,1.04
				c0.408,0.348,0.762,0.635,1.015,0.93c0.265,0.275,0.452,0.511,0.585,0.662c0.127,0.157,0.195,0.24,0.195,0.24
				s-0.105-0.032-0.301-0.093c-0.19-0.067-0.478-0.149-0.817-0.28c-0.332-0.142-0.783-0.229-1.254-0.386
				c-0.467-0.164-1.025-0.278-1.605-0.435c-0.287-0.085-0.594-0.152-0.914-0.211c-0.314-0.069-0.638-0.141-0.971-0.214
				c-0.336-0.056-0.681-0.114-1.033-0.172c-0.176-0.029-0.352-0.061-0.528-0.097c-0.18-0.022-0.361-0.043-0.544-0.065
				c-0.363-0.047-0.732-0.096-1.106-0.145c-0.377-0.022-0.755-0.052-1.135-0.091c-0.379-0.052-0.765-0.033-1.149-0.056
				c-0.384-0.009-0.771-0.052-1.155-0.023c-0.385,0.005-0.769,0.01-1.153,0.016c-0.381,0.028-0.76,0.056-1.136,0.083l-0.563,0.042
				c-0.184,0.026-0.368,0.053-0.55,0.079c-0.363,0.058-0.731,0.092-1.085,0.153c-0.691,0.17-1.399,0.253-2.022,0.472
				c-0.323,0.09-0.637,0.178-0.941,0.263c-0.295,0.113-0.581,0.221-0.855,0.326c-0.58,0.184-1.04,0.427-1.486,0.629
				c-0.228,0.101-0.442,0.196-0.639,0.284c-0.194,0.115-0.372,0.22-0.532,0.316c-0.317,0.195-0.587,0.327-0.762,0.426
				C91.613,91.909,91.517,91.959,91.517,91.959z"/>
		</g>
		<g opacity="0.5">
			<path fill="#332D2B" d="M141.331,91.959c0,0,0.048-0.093,0.137-0.267c0.1-0.166,0.213-0.431,0.42-0.728
				c0.212-0.295,0.464-0.691,0.814-1.066c0.336-0.396,0.761-0.803,1.258-1.213c0.501-0.405,1.079-0.812,1.735-1.166
				c0.65-0.37,1.379-0.673,2.15-0.94c0.774-0.246,1.594-0.462,2.439-0.572c0.843-0.135,1.707-0.177,2.567-0.171
				c0.86,0.013,1.715,0.094,2.544,0.23c0.831,0.129,1.632,0.34,2.393,0.572c0.758,0.249,1.475,0.527,2.131,0.847
				c0.656,0.318,1.255,0.661,1.783,1.019c0.53,0.351,0.984,0.725,1.368,1.071c0.384,0.348,0.681,0.693,0.916,0.977
				c0.232,0.29,0.388,0.535,0.487,0.707c0.095,0.171,0.146,0.263,0.146,0.263s-0.094-0.045-0.27-0.131
				c-0.164-0.095-0.434-0.195-0.745-0.342c-0.322-0.135-0.717-0.279-1.165-0.433c-0.452-0.148-0.953-0.314-1.512-0.458
				c-0.552-0.155-1.155-0.298-1.791-0.433c-0.634-0.142-1.309-0.252-1.999-0.369c-0.695-0.101-1.41-0.19-2.136-0.259
				c-0.727-0.052-1.462-0.118-2.196-0.112c-0.734-0.022-1.465,0.005-2.18,0.055c-0.718,0.043-1.414,0.141-2.092,0.24
				c-0.669,0.126-1.326,0.245-1.932,0.423c-0.615,0.158-1.188,0.352-1.718,0.55c-0.529,0.199-1.019,0.401-1.444,0.609
				c-0.439,0.195-0.796,0.389-1.113,0.548c-0.314,0.177-0.561,0.316-0.729,0.41C141.423,91.91,141.331,91.959,141.331,91.959z"/>
		</g>
		<ellipse fill="#332D2B" cx="105.188" cy="101.071" rx="3.133" ry="3.503"/>
		<ellipse fill="#332D2B" cx="152.537" cy="101.071" rx="3.133" ry="3.503"/>
		<g opacity="0.6">
			<path fill="#DE8C76" d="M127.122,115.724c0,0,0.029,0.048,0.083,0.138c0.049,0.088,0.142,0.21,0.238,0.358
				c0.102,0.148,0.242,0.312,0.389,0.485c0.158,0.169,0.331,0.343,0.53,0.496c0.2,0.152,0.408,0.295,0.645,0.398
				c0.06,0.025,0.116,0.054,0.17,0.084l0.187,0.063l0.183,0.066l0.2,0.047c0.127,0.038,0.266,0.064,0.412,0.084
				c0.139,0.028,0.284,0.048,0.442,0.056c0.155,0.012,0.301,0.036,0.469,0.033l0.246,0.006l0.123,0.004l0.061,0.002l0.031,0.001
				l0.015,0.001l0.008,0l0.004,0c-0.031,0.001,0.074-0.002-0.068,0.002c0.392-0.014,0.851-0.023,1.059-0.057
				c0.131-0.005,0.27-0.024,0.414-0.053c0.146-0.018,0.284-0.047,0.411-0.084l0.2-0.047c0.062-0.022,0.119-0.048,0.183-0.067
				l0.187-0.063c0.055-0.029,0.11-0.059,0.17-0.084c0.237-0.103,0.445-0.246,0.645-0.397c0.199-0.153,0.372-0.327,0.53-0.495
				c0.147-0.173,0.288-0.337,0.39-0.484c0.096-0.148,0.189-0.27,0.239-0.358c0.054-0.09,0.083-0.138,0.083-0.138
				s0.118,0.201,0.191,0.597c0.034,0.197,0.063,0.444,0.05,0.733c-0.02,0.286-0.074,0.617-0.203,0.968
				c-0.133,0.346-0.328,0.725-0.623,1.062c-0.14,0.178-0.306,0.338-0.49,0.485c-0.176,0.165-0.38,0.289-0.59,0.409
				c-0.208,0.137-0.431,0.229-0.659,0.312l-0.346,0.132c-0.123,0.032-0.251,0.058-0.378,0.086c-0.566,0.138-0.911,0.129-1.319,0.163
				l-0.077,0.002l-0.006,0l-0.011-0.001l-0.022-0.001l-0.044-0.003l-0.089-0.006l-0.177-0.012l-0.353-0.025
				c-0.232-0.003-0.475-0.079-0.71-0.124c-0.118-0.027-0.235-0.049-0.35-0.082l-0.346-0.132l-0.337-0.134
				c-0.111-0.05-0.216-0.12-0.321-0.179c-0.21-0.119-0.413-0.244-0.589-0.409c-0.184-0.147-0.35-0.305-0.49-0.485
				c-0.294-0.336-0.49-0.714-0.622-1.061c-0.129-0.351-0.183-0.681-0.203-0.967c-0.014-0.289,0.016-0.536,0.049-0.732
				C127.005,115.925,127.122,115.724,127.122,115.724z"/>
		</g>
		<circle fill="#BE957A" cx="104.798" cy="127.814" r="1.036"/>
		<g opacity="0.2">
			<path fill="#DE8C76" d="M97.28,103.718c0,0,0.234,0.153,0.622,0.441c0.195,0.134,0.431,0.297,0.703,0.483
				c0.281,0.171,0.577,0.387,0.922,0.584c0.335,0.212,0.714,0.405,1.106,0.611c0.193,0.109,0.407,0.187,0.615,0.285
				c0.104,0.048,0.21,0.096,0.316,0.144c0.11,0.039,0.22,0.078,0.332,0.117c0.226,0.068,0.441,0.181,0.677,0.228
				c0.233,0.058,0.467,0.119,0.701,0.185c0.481,0.066,0.961,0.171,1.453,0.163l0.367,0.023c0.122-0.002,0.245-0.017,0.367-0.024
				c0.243-0.025,0.489-0.019,0.73-0.051c0.476-0.108,0.963-0.134,1.412-0.299c0.23-0.064,0.455-0.128,0.676-0.19
				c0.22-0.071,0.425-0.17,0.635-0.246c0.21-0.079,0.413-0.156,0.611-0.231c0.197-0.078,0.377-0.179,0.557-0.262
				c0.351-0.182,0.698-0.318,0.987-0.473c0.281-0.166,0.538-0.299,0.749-0.412c0.423-0.225,0.682-0.343,0.682-0.343
				s-0.166,0.22-0.485,0.587c-0.16,0.183-0.354,0.409-0.59,0.655c-0.238,0.244-0.538,0.485-0.864,0.753
				c-0.165,0.131-0.33,0.281-0.517,0.413c-0.195,0.122-0.397,0.248-0.604,0.377c-0.211,0.126-0.424,0.263-0.655,0.381
				c-0.24,0.103-0.485,0.208-0.735,0.315c-0.492,0.238-1.059,0.339-1.62,0.484c-0.285,0.051-0.581,0.072-0.874,0.101
				c-0.147,0.011-0.295,0.03-0.443,0.034l-0.446-0.018c-0.598-0.005-1.182-0.131-1.752-0.255c-0.554-0.178-1.098-0.357-1.579-0.621
				c-0.122-0.061-0.243-0.121-0.363-0.181c-0.113-0.071-0.224-0.142-0.335-0.212c-0.215-0.147-0.442-0.266-0.63-0.426
				c-0.191-0.154-0.377-0.303-0.557-0.448c-0.173-0.152-0.327-0.312-0.48-0.458c-0.315-0.283-0.548-0.597-0.772-0.851
				c-0.216-0.266-0.382-0.515-0.524-0.711C97.415,103.964,97.28,103.718,97.28,103.718z"/>
			<path fill="#DE8C76" d="M97.908,97.648c0,0,0.153-0.177,0.431-0.473c0.14-0.147,0.308-0.327,0.509-0.525
				c0.185-0.212,0.456-0.396,0.746-0.606c0.147-0.105,0.299-0.215,0.457-0.329c0.081-0.056,0.163-0.112,0.246-0.17
				c0.089-0.044,0.18-0.09,0.272-0.135c0.373-0.169,0.751-0.404,1.185-0.535c0.219-0.063,0.441-0.128,0.666-0.193
				c0.225-0.07,0.454-0.135,0.696-0.147c0.477-0.052,0.963-0.128,1.452-0.087c0.243,0.017,0.489,0.014,0.729,0.053
				c0.238,0.043,0.476,0.087,0.711,0.13c0.238,0.031,0.463,0.109,0.684,0.184c0.22,0.077,0.443,0.139,0.651,0.225
				c0.412,0.183,0.812,0.354,1.158,0.576c0.361,0.195,0.673,0.423,0.957,0.636c0.287,0.208,0.525,0.431,0.737,0.622
				c0.206,0.2,0.382,0.376,0.514,0.533c0.273,0.306,0.399,0.504,0.399,0.504s-0.19-0.136-0.535-0.345
				c-0.339-0.215-0.835-0.499-1.436-0.803c-0.304-0.147-0.631-0.304-0.985-0.445c-0.346-0.163-0.736-0.261-1.119-0.407
				c-0.396-0.102-0.804-0.22-1.224-0.286c-0.21-0.033-0.422-0.066-0.634-0.099c-0.213-0.03-0.429-0.016-0.643-0.029
				c-0.43-0.051-0.857,0.009-1.28,0.042c-0.213,0.007-0.418,0.051-0.622,0.096c-0.205,0.042-0.407,0.083-0.607,0.123
				c-0.396,0.093-0.762,0.253-1.126,0.361c-0.09,0.03-0.179,0.06-0.267,0.09c-0.082,0.04-0.162,0.08-0.241,0.119
				c-0.161,0.076-0.317,0.149-0.467,0.219c-0.298,0.147-0.593,0.253-0.827,0.417c-0.238,0.15-0.453,0.271-0.628,0.374
				C98.115,97.54,97.908,97.648,97.908,97.648z"/>
			<path fill="#DE8C76" d="M145.748,97.08c0,0,0.15-0.152,0.423-0.403c0.137-0.124,0.302-0.278,0.498-0.443
				c0.184-0.179,0.437-0.334,0.713-0.507c0.279-0.164,0.569-0.393,0.915-0.529c0.343-0.145,0.699-0.327,1.09-0.451
				c0.398-0.096,0.804-0.244,1.234-0.303c0.216-0.024,0.434-0.049,0.652-0.074l0.329-0.036l0.332,0.001l0.662,0.021
				c0.219,0.013,0.435,0.056,0.651,0.083c0.435,0.038,0.84,0.184,1.237,0.286c0.391,0.126,0.76,0.274,1.096,0.437
				c0.338,0.161,0.647,0.331,0.916,0.514c0.279,0.163,0.508,0.358,0.716,0.514c0.201,0.169,0.372,0.319,0.503,0.454
				c0.267,0.263,0.392,0.438,0.392,0.438s-0.184-0.108-0.514-0.269c-0.328-0.163-0.798-0.383-1.371-0.601
				c-0.284-0.116-0.6-0.212-0.928-0.321c-0.33-0.105-0.687-0.182-1.048-0.273c-0.368-0.066-0.745-0.143-1.133-0.175
				c-0.194-0.018-0.387-0.052-0.584-0.058l-0.59-0.002l-0.295-0.011l-0.294,0.025c-0.196,0.016-0.391,0.032-0.585,0.048
				c-0.385,0.048-0.761,0.13-1.131,0.189c-0.362,0.09-0.708,0.2-1.045,0.287c-0.172,0.038-0.324,0.104-0.475,0.163
				c-0.153,0.057-0.3,0.113-0.441,0.166c-0.282,0.112-0.557,0.19-0.785,0.317c-0.229,0.115-0.435,0.206-0.604,0.283
				C145.947,97.002,145.748,97.08,145.748,97.08z"/>
			<path fill="#DE8C76" d="M145.748,103.718c0,0,0.229,0.133,0.606,0.387c0.184,0.136,0.428,0.262,0.683,0.426
				c0.251,0.167,0.568,0.315,0.884,0.502c0.16,0.091,0.34,0.161,0.517,0.247c0.176,0.088,0.361,0.167,0.554,0.238
				c0.191,0.077,0.383,0.159,0.59,0.215c0.203,0.065,0.406,0.137,0.621,0.18c0.421,0.117,0.865,0.176,1.312,0.217
				c0.449,0.035,0.907,0.036,1.363-0.013c1.837-0.153,3.617-0.999,4.924-1.714c0.649-0.37,1.191-0.705,1.569-0.95
				c0.379-0.251,0.596-0.394,0.596-0.394s-0.115,0.239-0.377,0.619c-0.263,0.378-0.669,0.902-1.247,1.451
				c-0.574,0.552-1.315,1.14-2.224,1.613c-0.9,0.48-1.972,0.839-3.095,0.944c-0.279,0.033-0.563,0.023-0.843,0.033
				c-0.281-0.019-0.562-0.025-0.836-0.072c-0.275-0.041-0.547-0.083-0.807-0.163c-0.131-0.035-0.261-0.07-0.39-0.105
				c-0.125-0.047-0.248-0.093-0.371-0.14c-0.247-0.087-0.479-0.195-0.7-0.312c-0.226-0.108-0.435-0.23-0.631-0.361
				c-0.405-0.24-0.736-0.537-1.043-0.796c-0.294-0.276-0.557-0.527-0.761-0.787c-0.213-0.247-0.389-0.466-0.509-0.657
				C145.881,103.947,145.748,103.718,145.748,103.718z"/>
		</g>
		<g>
			<path fill="#DE8C76" d="M118.078,134.58c4.805,1.401,23.025,0.77,26.363,0c0,0-4.142,10.21-13.451,9.809
				C121.681,143.989,118.078,134.58,118.078,134.58z"/>
			<path fill="#F4B3AE" d="M122.829,141.122c1.995,1.707,4.679,3.117,8.161,3.267c3.262,0.14,5.888-1.024,7.925-2.594
				C132.269,136.831,123.171,140.91,122.829,141.122z"/>
			<g>
				<path fill="#DE8C76" d="M118.682,134.58c0.545,0.086,1.09,0.196,1.639,0.223l0.817,0.07l0.824,0.038
					c0.548,0.033,1.098,0.036,1.647,0.049c0.549,0.017,1.098,0.019,1.648,0.015l1.648-0.012l1.648-0.024l3.296-0.102
					c1.098-0.038,2.196-0.085,3.293-0.147l3.288-0.186c1.094-0.074,2.186-0.159,3.274-0.26c0.539-0.063,1.086-0.103,1.619-0.171
					l0.798-0.103l0.751-0.137l1.431-0.261l-0.548,1.297c-0.312,0.738-0.654,1.381-1.032,2.04c-0.378,0.65-0.788,1.281-1.233,1.889
					c-0.895,1.211-1.934,2.326-3.111,3.294c-0.59,0.482-1.222,0.917-1.883,1.307c-0.659,0.395-1.371,0.699-2.092,0.966
					c-0.724,0.265-1.479,0.435-2.237,0.565c-0.762,0.098-1.53,0.167-2.294,0.127l-0.286-0.009l-0.076-0.005l-0.034-0.004
					l-0.067-0.009l-0.135-0.017l-0.539-0.07c-0.364-0.058-0.71-0.068-1.089-0.165c-0.754-0.191-1.519-0.355-2.207-0.665
					c-0.721-0.24-1.368-0.639-2.032-0.991c-0.62-0.426-1.254-0.828-1.808-1.331l-0.428-0.359l-0.396-0.393
					c-0.257-0.268-0.533-0.517-0.764-0.808c-0.491-0.554-0.937-1.142-1.356-1.747c-0.403-0.615-0.783-1.243-1.115-1.895
					C119.205,135.941,118.92,135.266,118.682,134.58z M118.682,134.58c0.32,0.652,0.688,1.277,1.09,1.875
					c0.391,0.606,0.826,1.18,1.278,1.736c0.459,0.55,0.937,1.081,1.453,1.572c0.243,0.26,0.529,0.475,0.794,0.708l0.403,0.345
					l0.428,0.311c0.553,0.44,1.174,0.774,1.773,1.132c0.641,0.281,1.256,0.611,1.926,0.801c0.654,0.259,1.321,0.357,1.977,0.502
					c0.326,0.073,0.713,0.071,1.067,0.11l0.542,0.044l0.136,0.011l0.068,0.005l0.034,0.003l0.008,0.001
					c0.039,0.003-0.044-0.003-0.033-0.003l0.016,0l0.257-0.005c0.687,0.018,1.368-0.067,2.04-0.172
					c0.667-0.137,1.328-0.304,1.96-0.557c1.267-0.496,2.445-1.214,3.506-2.09c1.054-0.885,2-1.915,2.817-3.044
					c0.414-0.56,0.803-1.142,1.16-1.742c0.351-0.594,0.693-1.234,0.951-1.83l0.883,1.036l-0.876,0.153l-0.843,0.101
					c-0.562,0.065-1.114,0.106-1.672,0.151c-1.11,0.071-2.218,0.124-3.325,0.167c-1.107,0.033-2.213,0.075-3.32,0.074
					c-1.107,0.009-2.213,0.003-3.319-0.011c-1.106-0.008-2.212-0.054-3.318-0.099c-1.106-0.055-2.211-0.104-3.315-0.207
					c-0.552-0.042-1.103-0.092-1.654-0.156c-0.551-0.055-1.101-0.121-1.649-0.21c-0.547-0.077-1.097-0.161-1.641-0.287
					C119.735,134.907,119.213,134.732,118.682,134.58z"/>
			</g>
		</g>
		<g opacity="0.8">
			<path fill="#FFFFFF" d="M103.773,101.162c0,0-0.05-0.042-0.12-0.117c-0.031-0.041-0.082-0.077-0.11-0.145
				c-0.033-0.067-0.069-0.151-0.093-0.249c-0.042-0.182-0.047-0.422,0.05-0.658c0.084-0.241,0.268-0.457,0.484-0.61
				c0.11-0.075,0.228-0.134,0.35-0.174c0.122-0.038,0.246-0.066,0.368-0.067c0.241-0.016,0.471,0.054,0.637,0.152
				c0.17,0.098,0.273,0.232,0.32,0.331c0.045,0.105,0.052,0.165,0.052,0.165s-0.059,0.004-0.163,0.013
				c-0.042-0.001-0.104,0.023-0.155,0.03c-0.051,0.007-0.116,0.042-0.168,0.054c-0.228,0.1-0.456,0.227-0.646,0.362
				c-0.192,0.129-0.362,0.263-0.532,0.471c-0.064,0.085-0.149,0.2-0.187,0.298C103.811,101.109,103.773,101.162,103.773,101.162z"/>
			<path fill="#FFFFFF" d="M150.976,101.162c0,0-0.05-0.042-0.12-0.117c-0.031-0.041-0.082-0.077-0.11-0.145
				c-0.033-0.067-0.069-0.151-0.093-0.249c-0.042-0.182-0.047-0.422,0.05-0.658c0.084-0.241,0.268-0.457,0.484-0.61
				c0.11-0.075,0.228-0.134,0.35-0.174c0.122-0.038,0.246-0.066,0.368-0.067c0.241-0.016,0.471,0.054,0.637,0.152
				c0.17,0.098,0.273,0.232,0.32,0.331c0.045,0.105,0.052,0.165,0.052,0.165s-0.059,0.004-0.163,0.013
				c-0.042-0.001-0.104,0.023-0.155,0.03c-0.051,0.007-0.116,0.042-0.168,0.054c-0.228,0.1-0.456,0.227-0.646,0.362
				c-0.192,0.129-0.362,0.263-0.532,0.471c-0.064,0.085-0.149,0.2-0.187,0.298C151.014,101.109,150.976,101.162,150.976,101.162z"/>
		</g>
		<path opacity="0.5" fill="#332D2B" d="M150.456,66.138c-9.628-6.969-21.804-14.137-28.972-23.774
			c-3.766-5.064-6.864-10.36-8.583-16.502c-0.821-2.935-0.594-6.159-0.694-8.976c-1.664,1.705-2.974,3.591-3.771,5.631
			c-0.217,0.696-0.423,1.393-0.618,2.092c-0.11,0.541-0.194,1.088-0.228,1.647c-0.672,11.176,6.661,22.533,14.372,29.834
			c8.729,8.264,18.542,13.772,27.181,20.406c8.013,6.153,15.015,13.276,19.203,24.466c1.569,4.193,2.284,8.763,2.416,13.521
			c0.822-2.597,1.777-5.211,2.353-7.832c1.043-4.746,1.118-10.592-0.008-15.341C170.131,78.758,160.201,73.191,150.456,66.138z"/>
		<g>
			<g>
				<path fill-rule="evenodd" clip-rule="evenodd" fill="#D8BE9C" d="M208.31,246.678c-1.566,0.742-5.749,0.534-5.133-1.95
					c0.306-1.233,3.734-4.485,4.668-5.415c1.877-1.869,3.625-3.844,5.484-5.696c2.897-2.886,5.106-5.606,8.757-7.494
					c2.006-1.037,3.137-3.191,5.304-3.893c0.257,4.65-1.387,8.182-4.137,11.942c-1.171,1.601-2.413,1.78-3.806,3.025
					c-0.86,0.769-1.707,1.923-2.545,2.776c-1.595,1.624-3.173,3.861-4.862,5.127c-1.288,0.965-3.858,1.572-4.758,1.99"/>
				<path fill-rule="evenodd" clip-rule="evenodd" fill="#BE957A" d="M225.895,225.032c-6.39,9.18-11.613,14.548-22.175,23.274
					c-0.48,0.396-0.499,0.71-0.237,1.161c1.519,2.559,4.833,1.621,5.583-0.24c0.4-0.961,1.017-0.773,1.491-0.365
					c1.536,1.303,3.788,1.403,5.405,0.573c1.404-0.729,1.877-2.635,1.482-3.531c-0.398-0.901,0.099-1.606,1.365-1.115
					c1.234,0.486,3.252,0.84,5.316-0.816c1.803-1.444,1.048-3.921,0.253-5.266c-0.615-1.046,0.051-1.902,1.316-1.225
					c1.277,0.658,3.341,0.797,4.862-0.947c0.848-0.971,1.34-3.749-0.874-4.906c-0.809-0.418-0.524-1.269,0.11-1.537
					c4.285-1.764,3.222-5.952,0.864-6.547c-0.661-0.172-0.757-0.666-0.388-1.379c1.413-2.7,2.279-4.107,0.185-6.348
					c-1.488-1.608-4.441-0.611-5.241,0.695c-0.496,0.835-0.724,1.116-1.843,0.385c-2.388-1.562-5.301,0.689-6.022,5.474
					c-0.161,1.079-0.562,1.354-1.764,1.409c-3.843,0.177-5.636,3.853-5.212,8.513c0.134,1.519-0.362,1.842-1.816,1.765
					c-3.434-0.207-5.358,1.457-6.073,10.186c-0.086,1.068,0.3,1.952,0.937,1.692c4.454-1.838,16.661-14.743,21.726-21.435
					C225.901,223.512,226.523,224.135,225.895,225.032z"/>
			</g>
			<g>
				<path fill="#7B987F" d="M61.167,241.898l0.717-1.013c-0.138-0.099-13.915-10.039-21.683-31.371l-1.164,0.423
					C46.942,231.656,61.027,241.797,61.167,241.898z"/>
				<path fill="#7B987F" d="M36.498,195.814c4.531,4.564,6.314,11.373,3.33,14.833l-0.001,0.001
					C35.651,208.794,34.352,201.876,36.498,195.814L36.498,195.814z"/>
				<path fill="#7B987F" d="M50.863,200.714c0.221,6.43-3.1,12.635-7.641,13.144l-0.002-0.001
					C41.418,209.658,45.17,203.702,50.863,200.714L50.863,200.714z"/>
				<path fill="#7B987F" d="M55.718,208.653c-0.542,6.41-4.577,12.178-9.146,12.147l0,0
					C45.279,216.414,49.711,210.945,55.718,208.653L55.718,208.653z"/>
				<path fill="#7B987F" d="M61.161,216.764c-1.652,6.215-6.63,11.191-11.126,10.36l0,0
					C49.527,222.582,54.844,217.97,61.161,216.764L61.161,216.764z"/>
				<path fill="#7B987F" d="M63.502,223.662c-0.211,5.73-3.738,10.53-8.042,10.03l0,0C54.036,229.602,57.952,225.115,63.502,223.662
					L63.502,223.662z"/>
				<path fill="#7B987F" d="M24.455,213.295c5.062,3.969,12.031,4.946,15.122,1.581l0,0
					C37.249,210.942,30.226,210.458,24.455,213.295L24.455,213.295z"/>
				<path fill="#7B987F" d="M28.521,222.904c5.606,3.149,12.647,3.053,15.185-0.746l0,0
					C40.804,218.625,33.792,219.218,28.521,222.904L28.521,222.904z"/>
				<path fill="#7B987F" d="M33.122,232.526c6.198,1.715,13.008-0.065,14.564-4.362l0,0
					C44.026,225.431,37.356,227.686,33.122,232.526L33.122,232.526z"/>
				<path fill="#7B987F" d="M40.561,238.762c5.37,2.024,11.157,0.628,12.362-3.533l0,0
					C49.701,232.333,44.049,234.207,40.561,238.762L40.561,238.762z"/>
			</g>
			<g>
				<path fill-rule="evenodd" clip-rule="evenodd" fill="#92B89A" d="M243.504,252.241c4.802-7.207,16.769-3.19,16.769-3.19
					C253.447,249.472,250.258,249.612,243.504,252.241z"/>
				<path fill-rule="evenodd" clip-rule="evenodd" fill="#92B89A" d="M239.144,270.585c-5.329-2.084-12.614-5.262-22.753-7.039
					C216.391,263.547,231.747,259.994,239.144,270.585z"/>
				<path fill-rule="evenodd" clip-rule="evenodd" fill="#92B89A" d="M254.72,238.307c-20.805,26.867-41.587,24.477-48.699,24.051
					C206.02,262.358,227.549,259.945,254.72,238.307z"/>
				<path fill-rule="evenodd" clip-rule="evenodd" fill="#92B89A" d="M249.561,232.893c-11.065,20.568-22.753,20.064-22.753,20.064
					C235.726,247.538,243.576,239.423,249.561,232.893z"/>
				<path fill-rule="evenodd" clip-rule="evenodd" fill="#92B89A" d="M216.732,257.889l-8.304,2.4
					c6.565-4.775,19.177-7.601,27.475-26.802C231.67,253.391,216.732,257.889,216.732,257.889z"/>
				<path fill-rule="evenodd" clip-rule="evenodd" fill="#92B89A" d="M222.354,268.655c1.52,1.132-7.052-0.36-15.45-3.305
					C206.904,265.35,217.902,262.222,222.354,268.655z"/>
				<path fill-rule="evenodd" clip-rule="evenodd" fill="#92B89A" d="M224.437,261.922c0,0,19.862-10.21,29.558,0.15
					C241.843,259.8,236.278,260.546,224.437,261.922z"/>
			</g>
			<g>
				<path fill="#FFC4B0" d="M64.637,267.156c-0.608,0.003-0.172-0.575-0.719-0.832c-0.621-0.292-1.596-0.215-2.319-0.412
					c-2.203-0.601-5.619-1.127-7.155-2.869c-1.586-1.799-2.421-5.025-2.972-7.325c-0.653-2.724-1.807-4.898-1.628-7.804
					c0.199-3.219,1.615-6.834,5.256-6.604c1.731,0.109,2.607,1.625,3.287,3.078c0.593,1.268,1.447,4.17,2.743,2.243
					c0.567-0.843,0.875-1.925,1.547-2.836c1.415-1.917,2.357-2.885,4.401-4.037c1.53-0.862,2.328-1.635,4.152-1.735
					c1.47-0.08,3.215-0.241,4.679-0.041c0.917,0.125,2.35,0.434,3.14,0.929c0.736,0.461,1.342,1.799,2.174,2.094
					c1.141,0.404,1.613-0.61,2.626-1.047c4.222-1.822,7.095,2.458,9.016,5.767c1.333,2.297,2.923,3.517,3.7,6.133
					c0.798,2.688,1.232,5.587,1.562,8.36c0.346,2.908-1.798,5.842-3.959,7.636c-1.784,1.48-4.302,2.475-6.408,3.819
					c-2.626,1.676-5.724,1.678-8.779,2.122c-1.737,0.252-3.462,0.717-5.208,0.825c-2.324,0.143-2.578-0.24-4.316-1.368
					c-1.122-0.728-2.352-1.07-3.271-2.155c-1.144-1.35-1.648-3.39-2.516-4.908"/>
				<path fill="#EF6E5C" d="M43.853,244.626l6.728-3.324c3.491-0.216,5.263,0.006,5.311,0.716
					c-2.918,3.112-3.874,7.086-2.856,11.943c2.726,6.002,6.533,10.1,11.433,12.317l-2.943,3.339l-6.98,2.939
					c-3.636-0.043-6.728-1.349-9.234-3.862c-0.843-0.207-1.484-2.537-1.915-7.009l0.719-2.565c-3.211-1.754-4.54-4.055-3.986-6.905
					C40.602,248.695,41.85,246.159,43.853,244.626z M64.303,266.923l1.232-0.705l10.97,3.983l8.762-0.736l5.51-2.64l4.258-5.691
					l0.466-3.02l-1.027-6.419l-4.401-6.655l-4.839-3.761l-0.27-1.418c7.062-3.379,12.768-2.896,17.075,1.478
					c1.838,2.559,2.67,4.972,2.528,7.221l-1.633,4.728c2.752,0.923,4.709,3.049,5.884,6.356l-0.024,3.779l-2.644,3.739
					c-2.399,2.076-4.767,2.7-7.089,1.892l-0.769,0.443c3.102,7.239,1.372,12.395-5.162,15.426l-5.664,0.584l-6.517-3.779
					c-7.067,5.855-12.659,5.844-16.819-0.063C61.631,277.342,61.684,272.412,64.303,266.923z M55.162,244.554l1.232-0.71
					c3.532,11.731,10.147,17.298,19.905,16.703l-6.163,2.459l-4.406-0.144c-2.66-0.25-5.538-1.821-8.649-4.768
					C53.981,253.389,53.343,248.868,55.162,244.554z M84.891,249.135c-1.961-4.653-4.575-7.65-7.893-9.007
					c-3.529-0.472-6.203-0.368-7.996,0.299l-3.611,2.085l-3.447,6.304l-2.131-0.952c-3.046-5.803-3.051-10.509-0.03-14.074
					c3.637-2.465,6.954-2.585,10.046-0.368c2.085-2.64,4.334-3.75,6.726-3.339c3.586,1.182,5.763,2.447,6.534,3.779l1.191,2.056
					c0.413,1.929,0.036,3.77-1.145,5.553l6.445,5.435c5.32,7.417,5.414,13.496,0.247,18.276l-5.691,3.276l-7.949,0.264
					l-10.123-3.367C79.545,263.699,85.82,258.312,84.891,249.135z M66.31,244.103c7.555-2.537,12.435-1.921,14.623,1.869
					c1.334,1.769,1.464,4.213,0.38,7.334c0.206,0.986-0.883,2.18-3.307,3.586c-2.866,1.283-5.464,1.51-7.755,0.696l-0.545-1.889
					l4.952-1.766c1.51-0.501,2.028-2.085,1.601-4.702l-2.239-2.005l-3.117,0.204c-1.73-0.463-2.85,1.622-3.383,6.287l-1.232,0.719
					l-1.967-0.524C62.895,248.244,63.558,244.965,66.31,244.103z M71.59,248.623l2.492-0.351c1.211,1.461,1.365,2.66,0.446,3.546
					c-1.998,1.51-3.241,1.889-3.693,1.096C70.178,251.111,70.424,249.67,71.59,248.623z"/>
				<path fill="#92B89A" d="M29.298,282.263l2.486-0.348l6.814-6.039c2.552-1.861,4.735-2.775,6.517-2.746l10.806,0.831l0.823-0.471
					c-3.185,5.087-4.767,8.354-4.705,9.729c-2.418,1.398-5.905,1.961-10.373,1.662l-11.895-1.797L29.298,282.263z"/>
				<path fill="#7B987F" d="M60.76,271.167l0.831-0.48l-0.441,2.948l-0.19,4.423l2.449,12.7c0.052,5.717-1.365,10.155-4.248,13.22
					l-0.743-2.243c-4.577-6.019-6.563-11.357-6.009-15.981C53.354,280.497,56.127,275.628,60.76,271.167z"/>
			</g>
			<path fill="#7B987F" d="M40.795,259.929c-0.715,0.366-1.438,0.718-2.189,1.008c-2.15,0.252-3.667-1.467-5.056-3.016
				c-1.571-1.659-3.316-3.074-4.85-3.344c1.461,0.577,2.957,2.004,4.514,3.685l0.01,0.019c1.058,1.196,2.377,2.734,4.14,3.115
				c-1.17,0.395-2.365,0.714-3.565,0.954c-1.91-0.019-3.34-1.691-4.537-3.146c-1.334-1.66-2.626-3.365-3.995-3.962
				c1.24,0.854,2.294,2.566,3.633,4.269l0.007,0.016c0.94,1.152,2.011,2.476,3.512,3.069c-1.123,0.155-2.245,0.264-3.363,0.292
				c-1.604-0.505-2.602-2.28-3.755-3.631c-1.265-1.605-2.691-2.941-3.97-3.235c1.187,0.592,2.38,1.953,3.623,3.552l0.007,0.016
				c0.931,1.053,1.684,2.473,2.97,3.309c-1.572-0.011-3.106-0.171-4.558-0.445c-1.196-0.495-2.151-1.471-2.93-2.552
				c-1.021-1.428-1.995-2.766-2.933-3.428c0.788,0.906,1.558,2.282,2.583,3.738l0.008,0.015c0.478,0.676,1.04,1.347,1.708,1.874
				c-1.442-0.368-2.777-0.909-3.961-1.527c-0.016-0.047-0.04-0.092-0.077-0.127c-0.653-0.577-1.075-1.418-1.48-2.22
				c-0.421-0.904-0.874-1.699-1.358-2.102c0.349,0.589,0.687,1.378,1.093,2.304l-0.001,0.006c0.26,0.544,0.545,1.091,0.907,1.601
				c-2.22-1.39-3.733-3.226-4.388-5.162c0.424,1.533,1.321,3.04,2.691,4.301l-0.425-0.224c-0.626-0.342-1.236-0.539-1.752-0.6
				c0.443,0.29,0.984,0.592,1.608,0.951l0.003,0.008c0.586,0.287,1.177,0.636,1.813,0.885c0.916,0.669,1.962,1.24,3.112,1.725
				c-0.541,0.042-1.073,0.07-1.606,0.184c-1.075,0.193-2.049,0.611-2.787,1.064c0.828-0.164,1.804-0.373,2.859-0.557l0.008-0.001
				c0.968-0.169,1.947-0.252,2.925-0.152l0.033-0.004c0.895,0.263,1.837,0.536,2.811,0.692l0.225,0.062
				c0.085,0.021,0.161,0.024,0.234,0.019c0.812,0.148,1.639,0.198,2.488,0.275c-0.957,0.31-1.894,0.709-2.828,1.128
				c-1.516,0.718-2.861,1.667-3.693,2.681c1.051-0.776,2.402-1.509,3.903-2.212l0.009-0.005c1.345-0.613,2.726-1.144,4.13-1.55
				l0.42,0.005c1.348-0.03,2.706-0.145,4.064-0.355c-1.382,0.913-2.676,1.993-3.948,3.123c-1.682,1.535-3.124,3.161-4.07,4.634
				c1.224-1.264,2.749-2.749,4.425-4.25l0.015-0.008c1.531-1.4,3.125-2.658,4.83-3.693l0.068-0.053
				c1.361-0.276,2.704-0.665,4.024-1.13c-0.979,1.072-1.729,2.317-2.497,3.557c-1.001,1.687-1.814,3.388-2.145,4.837
				c0.658-1.343,1.613-2.909,2.605-4.586l0.012-0.012c0.93-1.523,1.868-3.054,3.137-4.195l0.06-0.065
				c0.54-0.235,1.077-0.485,1.607-0.754c2.094,0.764,2.109,6.101-1.279,8.57c-0.627-0.303-0.722-1.149-0.669-1.278
				c-0.4,1.823-3.825,4.637-7.131,5.345c-0.106-0.479,0.005-1.141,0.297-1.625c-1.547,1.216-4.193,1.367-5.77,1.266
				c0.103-0.234,0.533-0.812,0.962-0.969c-2.126,0.501-4.716-0.025-6.924-0.714c0.125-0.462,0.492-0.816,0.928-0.919
				c-1.154-0.195-2.921-0.222-3.7-1.247c0.442-0.051,0.879-0.362,1.246-0.239c-1.936-0.426-4.405-1.285-5.003-3.18
				c0.491-0.139,0.969-0.118,1.441,0.063c-0.923-0.582-2.202-1.408-2.342-2.703c0.316,0.156,0.887-0.075,1.182,0.098
				c-0.97-0.553-2.608-1.365-2.266-2.853c0.312,0.161,0.654,0.302,0.957,0.495c-0.615-0.372-1.165-1.457-0.987-2.332
				c0.173,0.148,0.43,0.208,0.596,0.379l0.002,0.004c0.031,0.019,0.032,0.018,0.001-0.001l-0.004-0.003
				c-0.957-1.497-1.013-4.62,0.139-6.418c-0.048,1.765,0.555,2.332,1.684,3.058c-0.259-0.103-0.452-0.521-0.411-1.04
				c0.896-0.301,2.02,0.164,2.864,0.882l0.002,0.005c0.025,0.036,0.025,0.036,0.003,0.001l-0.006-0.006
				c-0.157-0.391-0.164-0.742-0.174-1.2c1.293,0.384,2.489,0.007,3.95,0.897c-0.101-0.484-0.228-0.992-0.319-1.473
				c1.149,0.051,2.692-0.137,3.902,0.546c-0.533-0.249-0.692-0.953-0.785-1.553c0.924-0.25,1.79-0.524,2.849-0.232l0.01,0.017
				c0.037,0.008,0.036,0.002,0.003-0.015l-0.014-0.002c-0.201-0.286-0.294-0.704-0.428-1.018c1.92-0.484,4.803-0.49,7.248,0.946
				c-0.121-0.29-0.338-0.799-0.589-1.13c1.804-0.175,3.915,1.108,5.957,2.723C40.265,255.392,41.708,257.665,40.795,259.929z"/>
			<g>
				<path fill="#CE9142" d="M181.483,262.274c-2.154-0.881-4.73,0.933-6.942,1.109c-2.367,0.188-2.29-1.258-2.75-3.216
					c-0.516-2.197-2.279-3.214-3.037-5.103c-0.493-1.227,0.482-2.428,0.98-3.433c0.668-1.349,1.262-2.287,3.076-1.392
					c1.617,0.798,2.96,2.253,4.638,3.085c0.875,0.434,2.065,1.517,3.047,1.468c0.286-2.515-2.323-5.433-1.64-8.001
					c0.243-0.916,1.533-1.564,2.211-2.179c1.435-1.302,2.066-2.649,4.052-1.846c3.886,1.571,3.919,5.613,2.751,8.868
					c-0.353,0.985-1.652,3.393-0.176,4.004c1.37-1.21,1.133-2.714,2.327-3.862c0.659-0.634,1.007-0.645,1.849-0.944
					c0.828-0.294,1.538-1.082,2.259-1.333c1.58-0.55,4.403,1.17,5.58,2.271c1.157,1.082,1.942,2.45,2.227,3.883
					c0.335,1.692,0.646,3.429-0.791,4.27c-1.065,0.624-3.064,0.78-4.293,0.692c-2.334-0.167-4.727-0.723-7.095-0.815
					c1.238,1.209,3.558,1.225,5.109,2.051c1.072,0.571,1.977,1.297,2.641,2.351c0.88,1.397,0.601,1.531-0.132,2.858
					c-0.303,0.549-0.348,0.741-0.533,1.467c-0.359,1.405-0.779,1.785-1.51,2.886c-1.24,1.866-2.183,2.12-4.503,1.41
					c-2.186-0.669-3.127-1.586-4.123-3.632c-0.633-1.299-0.898-2.869-1.912-3.848c-0.343,0.79,0.439,2.21,0.697,3.014
					c0.528,1.643,0.839,3.219,1.108,4.926c0.21,1.332,0.604,2.377-0.277,3.426c-0.765,0.912-2.337,1.354-3.434,1.044
					c-2.63-0.745-4.284-4.223-6.002-6.071c-0.828-0.89-1.34-1.715-2.07-2.639c-0.353-0.447-1.585-1.085-1.503-1.804
					c0.07-0.607,2.079-1.586,2.616-1.935c0.94-0.61,1.89-1.082,2.66-1.924c0.492-0.538,0.746-1.182,1.376-1.52"/>
				<path fill="#F7B164" d="M168.874,267.353c0.757-0.268,1.505-0.603,2.237-0.986c2.074-1.084,10.587-4.013,9.598-6.905
					c-0.82-0.07-2.08,0.137-2.812-0.258c-0.442-0.238-2.199-1.773-0.461-1.534c0,0,3.577,0.492,3.577,0.492
					c0.155-0.402,0.367-0.781,0.633-1.118c0.275-0.349-8.669-8.206-9.654-8.927c-4.815-3.526-14.573-1.875-16.483,4.678
					c0.972,0.978,1.876,2.03,2.8,3.055c-0.091-0.101-2.654,1.569-2.815,1.817c-0.639,0.987-0.519,1.259-0.132,2.437
					c0.665,2.021,3.134,5.046,4.824,6.305C162.903,268.431,165.95,268.389,168.874,267.353z M184.515,264.533
					c-0.305-0.344-0.638-0.646-1-0.897c-0.327,0.764-0.604,2.526-1.327,2.996c-0.376,0.245-1.957,0.722-1.363-0.505
					c0,0,1.535-3.169,1.535-3.169c-0.287-0.223-0.543-0.481-0.764-0.773c-1.594,0.837-3.72,1.953-6.42,3.361
					c-1.267,0.699-2.66,1.468-4.182,2.317c-0.505,0.281-1.004,0.521-1.501,0.729c-2.058,1.391-3.324,3.153-3.77,5.25
					c-0.861,4.133,1.263,8.638,3.722,11.833c1.752-0.699,2.242-1.359,3.646-0.562c0.854,0.485,1.181,1.909,2.139,2.363
					c1.448,0.686,3.25,0.196,4.676-0.293c3.076-1.056,5.389-2.968,6.486-6.056C187.872,276.957,187.81,268.251,184.515,264.533z
					 M185.089,255.436c2.045,0.914,4.733-6.76,5.521-8.445c2.001-4.28,3.935-8.701,0.4-12.814c-2.101-2.445-5.465-4.065-8.484-5.031
					c-0.356,0.623-1.8,3.132-1.8,3.132l-0.339,0.583c0,0-2.749-2.277-3.3-2.737c-2.712,2.13-5.526,5.132-6.459,8.526
					c-1.424,5.18,3.14,9.243,6.544,12.425c1.165,1.089,4.888,5.982,6.581,4.506c-0.215-0.808-1.313-4.066,0.023-4.15
					c1.078-0.067,1.189,3.154,1.273,3.985C185.062,255.424,185.075,255.43,185.089,255.436z M209.076,246.75
					c1.122-2.817,2.383-4.154-0.888-5.532c-1.928-0.812-4.418-1.755-6.535-1.847c-4.389-0.191-6.912,1.967-8.744,5.671
					c-0.784,1.556-1.498,2.978-2.14,4.279c-1.41,2.999-2.504,5.306-3.298,6.969c0.332,0.252,0.621,0.549,0.869,0.888l3.168-1.698
					c0.335-0.179,0.743-0.054,0.923,0.28c0.179,0.334,0.054,0.748-0.281,0.924l-3.195,1.712c0.048,0.165,0.096,0.337,0.127,0.508
					c0.034,0.189,0.048,0.368,0.058,0.551c0.021,0.379,10.021,1.468,11.219,1.593c4.038,0.422,7.907,0.21,10.41-3.44
					c1.972-2.877,2.53-6.533,2.487-9.95C211.875,247.323,210.467,247.047,209.076,246.75z M202.974,262.742
					c-0.504-0.129-1.04-0.235-1.608-0.32c-1.727-0.266-3.304-0.501-4.737-0.718c-3.277-0.407-5.8-0.731-7.628-0.972
					c-0.133,0.498-0.361,0.967-0.66,1.381l2.523,2.42c0.273,0.263,0.281,0.696,0.02,0.964c-0.261,0.274-0.694,0.284-0.965,0.023
					l-2.547-2.444c-0.259,0.183-0.542,0.339-0.843,0.463c0.313,1.799,0.732,4.239,1.252,7.368
					c1.065,6.416,2.779,12.753,10.494,12.866c4.312,0.063,7.514-0.455,6.544-5.356c0.246,1.244,4.12-0.727,4.514-1.355
					c0.945-1.507,0.512-4.14,0.339-5.795C209.167,266.418,207.144,263.807,202.974,262.742z"/>
			</g>
			<g>
				<path fill="#FFC4B0" d="M108.889,270.362c1.096-0.256,1.984-1.551,2.932-2.154c1.061-0.676,1.89-0.872,3.126-1.174
					c1.306-0.32,3.641-1.177,4.557-2.121c-2.03-1.209-3.097-0.16-5.22,0.248c-1.306,0.251-3.022,0.473-4.134-0.185
					c-1.985-1.176-2.564-3.092-2.641-5.258c-0.1-2.814,0.362-6.782,1.912-9.185c1.586-2.459,2.386-2.827,5.207-1.449
					c2.263,1.105,4.522,2.611,6.176,4.528c0.811,0.94,1.447,2.189,2.392,2.958c0.969-2.941-1.653-6.145-2.695-8.725
					c-0.748-1.853-0.905-3.992,0.484-5.665c1.32-1.589,3.616-3.147,5.686-3.197c2.629-0.063,4.648,0.774,5.93,3.201
					c1.154,2.184,0.659,4.006,0.163,6.251c-0.591,2.677-0.546,5.326-0.937,7.958c1.754-1.005,3.405-3.051,4.934-4.44
					c0.692-0.63,1.037-1.321,2.01-1.507c1.208-0.231,3.109,0.029,4.338,0.342c3.311,0.843,5.55,2.533,6.495,5.895
					c0.545,1.94,0.53,4.937-1.048,6.467c-1.94,1.881-6.768,0.855-9.287,1.314c-1.033,0.188-2.377,0.553-3.337,1.036
					c-0.451,0.227-1.014-0.052-1.045,0.692c-0.046,1.127,2.677,1.695,3.38,1.862c1.888,0.449,4.025,0.462,5.806,1.244
					c1.872,0.822,2.739,3.487,3.211,5.363c0.597,2.374,0.196,5.434-1.419,7.242c-0.979,1.096-1.692,2.393-2.955,2.7
					c-0.824,0.2-1.976,0.053-2.74-0.26c-3.129-1.281-4.139-4.82-5.715-7.401c-1.08-1.768-2.191-5.2-4.012-6.176
					c-0.429,1.473,0.982,3.079,1.479,4.353c0.529,1.357,0.501,3.054,0.637,4.474c0.19,1.974,1.058,5.215-0.353,6.905
					c-1.395,1.671-3.965,1.235-5.797,0.813c-2.125-0.49-3.633-1.621-4.573-3.575c-0.705-1.464-0.376-3.134-0.602-4.711
					c-0.164-1.142-0.286-2.225-0.227-3.328c0.044-0.814,0.349-2.012,0.235-2.76c-2.275,3.607-2.059,10.393-7.467,10.486
					c-2.9,0.05-5.912-0.643-6.157-3.999c-0.169-2.319-0.032-5.161,0.93-7.324c0.201-0.452,0.955-1.774,0.586-1.555"/>
				<g>
					<path fill="#92B89A" d="M125.635,257.967c-0.014-0.088-0.031-0.177-0.046-0.265c0.033-0.004,0.07-0.014,0.098-0.013
						C125.672,257.78,125.655,257.877,125.635,257.967z"/>
					<path fill="#92B89A" d="M127.027,257.893c0.022-0.124,0.04-0.242,0.057-0.361c0.054,0.001,0.103,0.002,0.155,0.001
						C127.166,257.654,127.096,257.771,127.027,257.893z"/>
					<path fill="#92B89A" d="M129.465,270.926c0.023,0.094,0.045,0.189,0.065,0.283c-0.018-0.001-0.044,0-0.064,0.001
						C129.464,271.115,129.467,271.02,129.465,270.926z"/>
					<path fill="#DE8C76" d="M122.797,232.93c5.949-1.335,14.274-1.682,16.229,5.932c1.315,5.122-4.968,10.724-6.47,15.71
						c-0.626,0.914-1.212,1.853-1.762,2.809c-0.022,0-0.042-0.001-0.061-0.005c0.587-1.557,1.167-3.162,1.531-4.848
						c0.28-0.99,0.241-2.368-0.004-3.276c-0.103-0.999-0.142-2.047,0.068-3.07l0.057-0.337l-0.123,0.316
						c-0.441,0.962-0.619,2.041-0.669,3.129c0.085,1.174-0.026,1.926-0.374,2.969c-0.552,1.727-1.281,3.415-1.951,5.166
						c-0.053,0.008-0.102,0.016-0.15,0.028c-0.046-2.737-1.023-5.143-1.359-7.609c-0.106-0.719-0.192-1.442-0.107-2.119
						c0.069-0.798,0.023-1.623-0.141-2.36c-0.287-1.51-0.787-2.922-1.185-4.36l-0.126-0.469l0.056,0.481
						c0.171,1.49,0.478,2.97,0.59,4.435c0.081,0.746,0.038,1.431-0.084,2.128c-0.166,0.817-0.126,1.614-0.073,2.389
						c0.217,2.729,1.135,5.424,1.081,7.866c-0.032,0.012-0.064,0.025-0.101,0.032c-0.592-1.709-1.496-3.031-2.128-4.558
						c-0.347-2.069-1.758-4.058-2.832-5.827l-0.175-0.3l0.109,0.334c0.706,2.098,1.692,3.889,1.89,6.166
						c0.468,1.424,1.192,2.855,1.701,4.158c-0.775-0.402-1.691-1.619-3.301-4.593c-1.418-2.623-2.722-4.801-4.713-6.903
						c-2.563-2.704-4.027-4.867-2.031-8.377C117.589,235.495,119.951,233.569,122.797,232.93z"/>
					<path fill="#92B89A" d="M129.641,254.714l-1.51,2.198c-0.029-0.003-0.058-0.008-0.084-0.011
						c0.549-0.956,1.136-1.894,1.762-2.809C129.743,254.303,129.685,254.508,129.641,254.714z"/>
					<g>
						<path fill="#DE8C76" d="M131.546,258.95l-0.006-1.304c3.147-2.56,9.958-13.936,15.341-13.073
							c3.392,0.541,6.648,0.194,9.33,2.529c2.722,2.37,2.484,5.282,2.568,8.633c0.07,2.693,0.063,7.438-3.007,8.853
							c-2.716,1.249-3.984-1.506-7.11-0.597c-2.874,0.842-10.767,0.838-13.433,1.712c-0.454,0.152-0.637-0.645-0.96-0.895
							c2.061-0.537,4.311-0.618,6.547-0.958c2.524-0.444,4.87-1.018,7.338-1.413l0.4-0.074l-0.407,0.006
							c-2.459-0.047-5.021,0.25-7.443,0.488c-2.448,0.186-5.023,0.138-7.535,0.956c-0.091,0.028-0.15,0.076-0.188,0.136
							c-0.277-0.186-0.534-0.387-0.749-0.631c2.176-1.005,5.052-1.843,7.513-2.909c2.804-1.135,5.489-2.438,8.255-3.568l0.454-0.176
							l-0.483,0.049c-3.007,0.287-5.966,1.041-8.862,1.8c-2.55,0.758-4.946,1.215-7.561,2.356l0-0.501
							c0.03-0.007,0.061-0.019,0.087-0.032c4.218-2.299,8.594-4.491,12.83-6.787l0.343-0.187l-0.371,0.125
							C140.035,254.928,135.681,256.725,131.546,258.95z"/>
						<path fill="#DE8C76" d="M149.672,284.74c-1.967,1.191-4.564,2.003-6.237,3.419c-4.824,4.07-5.813-1.577-7.009-4.295
							c-2.513-5.682-2.963-7.278-6.263-13.807l0.639-0.497c3.164,3.853,5.162,8.657,7.99,12.812l0.229,0.347l-0.195-0.369
							c-2.337-4.399-4.104-9.28-7.378-13.294l0.21-0.165c3.286,4.961,7.441,9.094,11.261,13.42l0.307,0.357l-0.252-0.399
							c-3.087-4.904-7.037-9.387-10.191-14.137c-0.017-0.029-0.037-0.05-0.055-0.071l0.079-0.064
							c1.594,1.271,2.964,2.988,4.586,4.477c1.88,1.606,3.672,3.275,5.726,4.63l0.337,0.206l-0.297-0.261
							c-1.72-1.69-3.294-3.602-5.007-5.331c-1.37-1.479-2.6-3.178-4.25-4.57l0.547-0.427c5.399,2.397,15.013-4.02,18.733,3.635
							C156.439,277.054,154.434,281.852,149.672,284.74z"/>
						<path fill="#DE8C76" d="M123.577,257.513c-3.364-1.847-6.519-4.327-10.012-6.123l-0.328-0.179l0.29,0.238
							c3.306,2.665,6.438,5.74,10.388,7.776c0.009,0.221,0.006,0.436-0.016,0.65c-4.106-2.02-8.348-4.014-12.517-5.917l-0.385-0.203
							l0.321,0.289c3.656,3.033,7.69,5.563,11.941,7.77c-0.039,0.085-0.083,0.169-0.127,0.247
							c-4.266-1.643-8.786-1.609-13.079-2.038l-0.377-0.036l0.361,0.105c4.059,1.26,8.418,1.658,12.271,3.106
							c-3.661,0.108-4.789,0.34-7.005,1.839c-3.127,2.114-6.03,1.409-9.477,0.998c-3.623-0.434-5.934-0.677-8.085-3.842
							c-2.04-3.002-3.033-4.893-1.918-8.602c0.874-2.923,1.387-7.193,4.635-8.544c2.298-0.954,7.045-1.13,9.561-1.306
							c7.27-0.51,7.693,4.067,11.132,9.444C121.15,253.184,122.837,255.225,123.577,257.513z"/>
						<path fill="#DE8C76" d="M98.773,280.185c-0.502-3.016-0.396-9.714,2.275-12.085c1.96-1.747,7.381,0.788,9.812,0.044
							c2.414-0.732,6.905-3.031,9.432-2.934l0.232,0.35c-1.392,0.914-2.843,1.743-4.325,2.542c-1.767,0.687-2.996,2.39-4.783,2.587
							l-0.301,0.009l0.297,0.056c1.998,0.221,3.49-1.277,5.22-1.728c1.607-0.648,3.17-1.442,4.624-2.392l0.056,0.082
							c-2.25,1.479-4.396,3.112-6.691,4.527l-0.191,0.114l0.214-0.05c2.626-0.604,5.032-1.956,7.25-3.42
							c0.01,0.08,0.026,0.15,0.042,0.217c-2.159,1.16-3.975,2.617-5.833,4.012c-1.981,1.5-4.094,3.039-5.975,4.711l-0.312,0.269
							l0.368-0.187c2.258-1.178,4.491-2.273,6.735-3.61c1.782-1.068,3.503-2.268,5.235-3.245c-0.65,0.595-1.252,1.218-1.85,1.826
							c-0.883,1.049-2.316,1.831-2.824,3.304l-0.071,0.223l0.133-0.192c0.836-1.157,2.31-1.568,3.448-2.571
							c0.857-0.663,1.65-1.378,2.454-2.02c-3.198,2.587-4.807,9.828-5.925,12.468c-1.092,2.592-1.458,6.249-4.482,7.475
							c-1.79,0.727-7.802-1.003-9.092-2.474C102.692,286.653,99.089,282.099,98.773,280.185z"/>
						<path fill="#DE8C76" d="M131.055,273.148c0.494,2.532,1.916,5.361,2.886,7.716c1.85,4.507,4.461,11.968-2.22,13.494
							c-1.234,0.284-3.303,0.493-4.575,0.35c-2.083-0.227-2.064-1.058-3.433-2.314c-1.786-1.644-4.462-2.952-5.437-5.352
							c-1.174-2.903,1.765-5.525,2.161-8.396c0.332-2.372,0.687-5.462,3.91-7.822l0.323,0.082c-0.175,1.769-0.66,3.649-0.558,5.528
							l0.006,0.208l0.049-0.199c0.495-1.936,1.419-3.794,1.634-5.921c0.106-0.035,0.207-0.067,0.307-0.1
							c-0.051,1.95,0.068,3.81-0.09,5.598c-0.221,2.469-0.14,4.857,0.01,7.268l0.027,0.394l0.09-0.381
							c0.625-2.303,1.098-4.698,1.639-6.969c0.503-2.154,0.487-4.303,0.603-6.3c0.016-0.001,0.038,0.001,0.055,0.004
							c0.491,2.629,0.512,5.475,0.972,8.204l0.037,0.258l0.023-0.257c0.194-2.557,0.497-5.167,0.158-7.82
							C130.296,270.865,130.779,271.72,131.055,273.148z"/>
					</g>
				</g>
				<path fill="#EF6E5C" d="M124.952,267.507c-2.561,0.563-1.368-3.559-1.542-4.593c1.649-0.169,0.407-1.661,1.305-2.426
					c0.666-0.568,1.821,0.712,1.935-0.713c1.698,0.267,3.059,1.497,3.431,3.108c0.103,0.445-0.25,1.364,0.003,1.798
					c0.54,0.924,1.01,0.167,1.37,1.418c0.576,2.002-2.192,2.155-3.904,2.122c-0.96-0.019-2.38-0.723-2.913-0.619"/>
			</g>
			<path fill="#7B987F" d="M181.718,266.817c-10.933,5.825-19.784,5.397-26.572-1.235l4.576-2.178
				c3.181-0.97,6.065-1.341,8.628-1.139l13.265,4.202L181.718,266.817z"/>
			<path fill="#92B89A" d="M170.348,273.627c0.587,1.086,0.964,3.587,1.166,7.529c-0.713,1.719-0.792,2.732-0.211,3.057
				c-1.002-1.691-2.217-2.829-3.653-3.411l-11.376-6.594l-1.184-1.524l-1.054-4.534l0.725-1.353c1.42,1.306,4.26,2.812,8.523,4.529
				l5.85,0.809L170.348,273.627z"/>
		</g>
	</g>
</g>
</svg>
