<?xml version="1.0" encoding="utf-8"?>
<!-- Generator: Adobe Illustrator 17.0.0, SVG Export Plug-In . SVG Version: 6.00 Build 0)  -->
<!DOCTYPE svg PUBLIC "-//W3C//DTD SVG 1.1//EN" "http://www.w3.org/Graphics/SVG/1.1/DTD/svg11.dtd">
<svg version="1.1" id="Layer_1" xmlns="http://www.w3.org/2000/svg" xmlns:xlink="http://www.w3.org/1999/xlink" x="0px" y="0px"
	 width="524.976px" height="291.824px" viewBox="0 0 524.976 291.824" enable-background="new 0 0 524.976 291.824"
	 xml:space="preserve">
<g>
	<path fill="#EBE2C4" d="M105.072,63.936c1.92,22.017,4.224,40.224,6.912,54.624s7.038,24.738,13.056,31.008
		c6.27,6.657,12.927,9.984,19.968,9.984c8.19,0,15.87-4.863,23.04-14.592c7.167-9.726,12.96-24.894,17.376-45.504
		c4.416-20.607,6.624-46.464,6.624-77.568c0-4.224-0.129-11.199-0.384-20.928c-0.258-0.126-0.768-0.318-1.536-0.576
		C189.36,0.129,188.526,0,187.632,0c-0.642,0-1.089,0.066-1.344,0.192c-0.642,0.129-0.96,0.705-0.96,1.728v0.576l0.192,11.328
		c0,23.808-1.602,45.057-4.8,63.744c-3.201,18.69-7.104,33.186-11.712,43.488c-4.608,10.305-8.898,15.456-12.864,15.456
		c-2.178,0-3.906-1.599-5.184-4.8c-3.072-9.342-5.664-21.183-7.776-35.52c-2.112-14.334-4.002-30.591-5.664-48.768
		c-0.768-8.958-3.36-15.231-7.776-18.816c-4.416-3.582-9.57-5.376-15.456-5.376c-2.304,0-4.545,0.225-6.72,0.672
		c-2.178,0.45-3.969,0.897-5.376,1.344c-1.41,0.45-2.304,0.738-2.688,0.864c1.152,2.562,2.112,6.753,2.88,12.576
		C103.152,44.514,104.046,52.929,105.072,63.936z"/>
	<path fill="#EBE2C4" d="M192.047,127.296c0,8.961,1.374,16.128,4.128,21.504c2.751,5.376,7.584,8.064,14.496,8.064
		c18.29,0,31.475-8.501,39.583-25.455c0.59,7.372,1.506,13.784,2.755,19.215c2.367,10.302,6.495,15.582,12.384,15.84
		c11.136,0.894,21.342-3.585,30.624-13.44c7.779-8.262,14.395-17.299,19.881-27.091c-0.007,0.465-0.011,0.92-0.011,1.363
		c0,8.961,1.374,16.128,4.128,21.504c2.751,5.376,7.584,8.064,14.496,8.064c19.071,0,32.607-9.216,40.608-27.648
		c7.998-18.432,12.192-28.032,12.576-28.8l-5.568-2.112c0,0.258-1.506,3.264-4.512,9.024c-3.009,5.76-6.528,11.553-10.56,17.376
		c-4.032,5.826-8.097,10.146-12.192,12.96c-2.562,1.794-4.674,2.688-6.336,2.688c-3.714,0-5.568-4.479-5.568-13.44
		c0-6.528,0.768-14.784,2.304-24.768c0.126-0.768,0.192-1.854,0.192-3.264c0-5.502-1.857-9.279-5.568-11.328
		c-3.714-2.046-8.13-3.072-13.248-3.072c-1.92,0-3.489,0.066-4.704,0.192c-1.218,0.129-2.016,0.258-2.4,0.384
		c0.126,0.258,0.192,0.897,0.192,1.92c0,2.178-0.45,6.273-1.344,12.288c-0.551,3.938-1.008,7.589-1.377,10.967
		c-3.241,6.165-7.034,12.619-11.39,19.369c-4.545,7.041-8.673,12.096-12.384,15.168c-2.178,1.794-4.098,2.688-5.76,2.688
		c-3.072,0-5.058-3.039-5.952-9.12c-0.897-6.078-1.344-15.327-1.344-27.744V92.544c0.255-12.159,0.639-23.295,1.152-33.408
		l6.336-0.768l6.144-0.768l4.992-0.768l4.032-0.576c0.894-0.126,1.632-0.288,2.208-0.48c0.576-0.192,0.927-0.288,1.056-0.288
		l-0.384-5.952h-3.456h-4.032l-5.184,0.192c-2.562,0-4.545,0.066-5.952,0.192l-5.376,0.192l0.96-16.896l0.192-3.456
		c0-8.319-2.274-14.016-6.816-17.088c-4.545-3.072-9.825-4.608-15.84-4.608c-1.794,0-3.426,0.096-4.896,0.288
		c-1.473,0.192-2.4,0.354-2.784,0.48c0.384,1.92,0.576,4.992,0.576,9.216c0,8.064-0.513,19.584-1.536,34.56l-0.768,0.192
		c-3.072,0.258-5.313,0.513-6.72,0.768l-5.952,0.768l-9.024,1.344l-2.496,0.384l-0.96,0.192l0.576,5.952h0.768h2.688h9.024
		c1.278-0.126,3.327-0.192,6.144-0.192l6.336-0.384c-1.152,18.432-1.728,34.305-1.728,47.616c0,1.939,0.017,3.827,0.047,5.677
		c-1.941,3.25-4.025,6.509-6.289,9.779c-4.032,5.826-8.097,10.146-12.192,12.96c-2.562,1.794-4.674,2.688-6.336,2.688
		c-3.714,0-5.568-4.479-5.568-13.44c0-6.528,0.768-14.784,2.304-24.768c0.126-0.768,0.192-1.854,0.192-3.264
		c0-5.502-1.857-9.279-5.568-11.328c-3.714-2.046-8.13-3.072-13.248-3.072c-1.92,0-3.489,0.066-4.704,0.192
		c-1.218,0.129-2.016,0.258-2.4,0.384c0.126,0.258,0.192,0.897,0.192,1.92c0,2.178-0.45,6.273-1.344,12.288
		C192.878,111.168,192.047,120.513,192.047,127.296z"/>
	<path fill="#EBE2C4" d="M210.671,73.92c3.966,0,7.359-1.407,10.176-4.224c2.814-2.814,4.224-6.207,4.224-10.176
		c0-3.966-1.41-7.359-4.224-10.176c-2.817-2.814-6.21-4.224-10.176-4.224c-3.969,0-7.362,1.41-10.176,4.224
		c-2.817,2.817-4.224,6.21-4.224,10.176c0,3.969,1.407,7.362,4.224,10.176C203.309,72.513,206.702,73.92,210.671,73.92z"/>
	<path fill="#EBE2C4" d="M334.512,73.92c3.966,0,7.359-1.407,10.176-4.224c2.814-2.814,4.224-6.207,4.224-10.176
		c0-3.966-1.41-7.359-4.224-10.176c-2.817-2.814-6.21-4.224-10.176-4.224c-3.969,0-7.362,1.41-10.176,4.224
		c-2.817,2.817-4.224,6.21-4.224,10.176c0,3.969,1.407,7.362,4.224,10.176C327.15,72.513,330.543,73.92,334.512,73.92z"/>
	<path fill="#EBE2C4" d="M520.176,94.72c-3.201-4.287-6.912-6.879-11.136-7.776c0,0.129,0.063,0.45,0.192,0.96
		c0.126,0.513,0.192,1.152,0.192,1.92c0,2.178-0.834,4.608-2.496,7.296c-1.665,2.688-4.737,5.25-9.216,7.68
		c-2.049,1.281-4.545,2.625-7.488,4.032c-3.072,1.536-7.488,3.522-13.248,5.952c-15.873,6.657-23.808,14.208-23.808,22.656
		c0,3.585,1.311,6.978,3.936,10.176c2.622,3.201,5.664,5.73,9.12,7.584c3.456,1.857,6.144,2.721,8.064,2.592
		c-0.384-1.152-0.576-2.304-0.576-3.456c0-6.015,5.952-12.288,17.856-18.816c-0.258,2.304-0.576,3.969-0.96,4.992
		c-0.513,2.817-1.728,6.786-3.648,11.904c-1.536,3.714-4.128,7.296-7.776,10.752c-3.648,3.456-7.65,6.24-12,8.352
		c-4.353,2.112-8.385,3.168-12.096,3.168c-5.505,0-9.345-2.304-11.52-6.912c-2.178-4.734-3.264-9.663-3.264-14.784
		c0-10.368,4.479-21.567,13.44-33.6c0.255-0.384,0.798-1.086,1.632-2.112c0.831-1.023,1.632-1.983,2.4-2.88
		c1.152-1.407,2.079-2.496,2.784-3.264c0.702-0.768,1.182-1.215,1.44-1.344l1.152-5.184c0,0.129-2.208-0.864-6.624-2.976
		c-4.416-2.112-8.802-4.83-13.152-8.16c-4.353-3.327-7.617-7.038-9.792-11.136c-1.41-2.43-2.112-4.479-2.112-6.144
		c0-1.92,1.152-2.88,3.456-2.88c2.304,0,5.598,0.801,9.888,2.4c4.287,1.602,10.527,4.128,18.72,7.584l0.96,0.384
		c1.791,0.897,3.648,1.344,5.568,1.344c4.608,0,8.256-2.463,10.944-7.392c2.688-4.926,5.055-11.04,7.104-18.336
		c0.255-0.639,0.672-1.92,1.248-3.84c0.576-1.92,1.056-3.072,1.44-3.456c-0.384-0.255-1.314-0.798-2.784-1.632
		c-1.473-0.831-3.264-1.632-5.376-2.4c-2.112-0.768-4.128-1.152-6.048-1.152c-3.84,0-6.273,1.857-7.296,5.568
		c-1.333,4.664-2.039,7.156-2.118,7.485c-13.695-5.758-24.061-8.637-31.098-8.637c-7.938,0-12.864,3.33-14.784,9.984
		c-0.768,2.688-1.152,5.313-1.152,7.872c0,8.448,3.39,15.714,10.176,21.792c6.783,6.081,14.526,11.106,23.232,15.072
		c-2.946,0.897-4.992,1.536-6.144,1.92c-1.281,0.513-2.592,1.089-3.936,1.728c-1.344,0.642-2.274,1.089-2.784,1.344
		c-7.554,3.969-13.986,9.633-19.296,16.992c-5.313,7.362-7.968,16.992-7.968,28.896c0,10.752,1.791,19.2,5.376,25.344
		c3.582,6.144,7.806,10.368,12.672,12.672c4.863,2.304,9.471,3.456,13.824,3.456c6.399,0,12.48-0.642,18.24-1.92
		c5.76-1.281,12-4.929,18.72-10.944c6.72-6.015,12.255-15.423,16.608-28.224c2.175-6.399,3.264-13.887,3.264-22.464
		c0-1.92-0.066-3.39-0.192-4.416c4.095-1.791,7.23-3.072,9.408-3.84c4.608-1.92,8.031-4.446,10.272-7.584
		c2.238-3.135,3.36-6.624,3.36-10.464C524.976,103.585,523.374,99.01,520.176,94.72z"/>
	<path fill="#EBE2C4" d="M80.16,248.24c-2.754-3.84-6.816-5.76-12.192-5.76c-2.433,0-5.313,0.576-8.64,1.728
		c-7.554,2.562-15.552,5.697-24,9.408c-0.384-5.247-0.576-11.328-0.576-18.24c0-21.759,1.407-49.983,4.224-84.672
		c0.126-0.894,0.192-2.112,0.192-3.648c0-9.342-2.562-15.744-7.68-19.2c-5.121-3.456-11.073-5.184-17.856-5.184
		c-2.049,0-3.906,0.096-5.568,0.288c-1.665,0.192-2.688,0.354-3.072,0.48c0.51,1.665,0.768,4.608,0.768,8.832
		c0,4.866-0.354,11.553-1.056,20.064c-0.705,8.514-1.122,13.92-1.248,16.224c-1.152,14.592-2.016,26.304-2.592,35.136
		C0.288,212.528,0,221.234,0,229.808c0,27.522,3.84,43.71,11.52,48.576c4.479,3.711,10.431,5.568,17.856,5.568
		c6.144,0,12.606-0.993,19.392-2.976c6.783-1.986,14.334-4.578,22.656-7.776c8.19-3.201,13.248-4.8,15.168-4.8
		c0-1.662-0.384-4.479-1.152-8.448C84.672,255.986,82.911,252.08,80.16,248.24z"/>
	<path fill="#EBE2C4" d="M417.787,213.104c-3.201-1.662-7.008-3.198-11.424-4.608c-4.416-1.407-8.994-2.112-13.728-2.112
		c-6.144,0-11.712,1.41-16.704,4.224c-3.585-5.886-6.402-11.262-8.448-16.128c-2.049-4.863-3.072-9.279-3.072-13.248
		c0-2.559,0.447-4.926,1.344-7.104c0-0.384-2.304,0.321-6.912,2.112c-4.608,1.794-8.736,4.512-12.384,8.16
		c-3.648,3.648-5.472,8.481-5.472,14.496c0,5.478,1.955,11.823,5.855,19.034c-1.517,3.622-3.495,7.673-5.949,12.166
		c-3.393,6.21-7.65,12.192-12.768,17.952c-2.817,3.201-5.121,4.8-6.912,4.8c-3.714,0-5.568-6.591-5.568-19.776
		c0-4.992,0.318-11.838,0.96-20.544l0.192-3.456c0-8.319-2.274-14.016-6.816-17.088c-4.545-3.072-9.825-4.608-15.84-4.608
		c-1.794,0-3.426,0.096-4.896,0.288c-1.473,0.192-2.4,0.354-2.784,0.48c0.384,1.665,0.576,3.906,0.576,6.72
		c0,2.688-0.066,4.737-0.192,6.144c-2.562-0.51-5.313-0.768-8.256-0.768c-8.322,0-15.873,2.112-22.656,6.336
		c-4.482,2.688-8.001,6.306-10.56,10.848c-1.411,2.502-2.417,4.994-3.051,7.477c-6.351,6.774-13.012,12.763-19.988,17.963
		c-7.041,5.25-12.738,7.872-17.088,7.872c-4.992,0-7.488-3.711-7.488-11.136c0-2.688,0.255-5.376,0.768-8.064
		c1.536-9.6,3.744-15.678,6.624-18.24c2.88-2.559,5.535-3.711,7.968-3.456c3.711,0.129,5.568,2.241,5.568,6.336
		c0,1.026-0.096,2.049-0.288,3.072c-0.192,1.026-0.354,1.665-0.48,1.92c0,0.129,0.48,0.48,1.44,1.056
		c0.96,0.576,2.079,0.864,3.36,0.864c2.046-4.992,3.072-9.087,3.072-12.288c0-3.198-0.801-5.694-2.4-7.488
		c-1.602-1.791-3.81-3.135-6.624-4.032c-2.178-0.639-4.866-0.96-8.064-0.96c-5.121,0-10.368,1.026-15.744,3.072
		c-5.376,2.049-10.242,5.634-14.592,10.752c-4.353,5.121-7.233,11.904-8.64,20.352c-0.513,2.688-0.768,5.505-0.768,8.448
		c0,5.325,0.961,9.765,2.836,13.363c-3.13,3.492-5.427,5.261-6.868,5.261c-1.794,0-2.688-2.559-2.688-7.68
		c0-3.456,0.447-9.792,1.344-19.008l1.344-14.592l0.192-3.456c0-8.319-2.304-14.016-6.912-17.088
		c-4.608-3.072-9.921-4.608-15.936-4.608c-1.794,0-3.426,0.096-4.896,0.288c-1.473,0.192-2.4,0.354-2.784,0.48
		c0,0.384,0.063,1.248,0.192,2.592c0.126,1.344,0.192,3.042,0.192,5.088c0,6.786-0.768,13.569-2.304,20.352
		c-1.536,6.786-4.353,12.288-8.448,16.512c-2.946,3.072-5.376,4.608-7.296,4.608c-2.562,0-3.84-3.519-3.84-10.56
		c0-6.27,0.96-15.807,2.88-28.608c0.126-0.768,0.192-1.854,0.192-3.264c0-5.502-1.857-9.279-5.568-11.328
		c-3.714-2.046-8.13-3.072-13.248-3.072c-1.92,0-3.489,0.066-4.704,0.192c-1.218,0.129-2.016,0.258-2.4,0.384
		c0.126,0.258,0.192,0.897,0.192,1.92c0,2.178-0.45,6.273-1.344,12.288c-1.665,11.904-2.496,21.312-2.496,28.224
		c0,19.074,5.886,28.866,17.664,29.376c10.11,0.513,18.432-4.287,24.96-14.4c-0.258,21.504,5.76,32.256,18.048,32.256
		c11.082,0,20.737-5.519,28.966-16.547c3.882,3.342,8.873,5.027,15.002,5.027c6.912,0,14.463-2.046,22.656-6.144
		c8.19-4.095,16.254-10.143,24.192-18.144c1.438-1.449,2.83-2.966,4.201-4.514c0.724,2.364,1.97,4.449,3.765,6.242
		c3.006,3.009,7.518,4.512,13.536,4.512c8.319,0,16.128-3.648,23.424-10.944c-0.129,1.794-0.192,4.482-0.192,8.064
		c0,8.322,1.182,14.85,3.552,19.584c2.367,4.737,6.558,7.104,12.576,7.104c11.646,0,21.792-4.767,30.432-14.304
		c8.64-9.534,15.423-19.839,20.352-30.912c0.241-0.541,0.47-1.06,0.699-1.579c1.894,2.865,3.742,5.543,5.539,8.011l-0.384,0.576
		c-2.178,4.098-3.84,8.13-4.992,12.096c-1.026,3.969-1.536,8.256-1.536,12.864c0,2.178,0.192,4.224,0.576,6.144
		c0,0.642,0.063,1.152,0.192,1.536v0.768l0.192,0.576l0.192,0.768v0.384l0.192,0.384l0.192,1.536
		c1.152,3.84,2.943,7.296,5.376,10.368c1.92,2.43,4.35,4.608,7.296,6.528c2.688,1.662,4.926,2.751,6.72,3.264
		c1.536,0.639,3.135,1.086,4.8,1.344c0.126,0.126,0.384,0.192,0.768,0.192h0.192c1.791,0.384,3.582,0.576,5.376,0.576
		c5.118,0,11.007-1.665,17.664-4.992c6.654-3.969,9.984-9.282,9.984-15.936c0-5.502-1.794-11.52-5.376-18.048
		c-3.585-6.528-9.024-15.168-16.32-25.92c-1.665-2.175-4.032-5.568-7.104-10.176c3.456-3.072,8.19-4.608,14.208-4.608
		c4.095,0,8.319,0.609,12.672,1.824c4.35,1.218,7.998,2.496,10.944,3.84c2.943,1.344,4.8,2.208,5.568,2.592l-0.768-4.608
		C422.587,215.666,420.985,214.769,417.787,213.104z M284.54,221.744c-2.817,2.946-5.856,5.505-9.12,7.68
		c-3.264,2.178-6.048,3.264-8.352,3.264c-3.33,0-4.992-2.238-4.992-6.72c0-6.015,2.592-10.047,7.776-12.096
		c5.184-2.046,10.527-3.072,16.032-3.072C285.5,213.233,285.05,216.881,284.54,221.744z M377.851,275.888
		c-0.642,2.304-2.049,3.456-4.224,3.456c-1.41,0-2.688-0.258-3.84-0.768L368.634,278c-2.304-1.536-4.032-2.946-5.184-4.224
		c-1.794-2.178-3.009-4.482-3.648-6.912l-1.152-4.608l-0.576-4.992c-0.129-3.327,0.192-6.846,0.96-10.56
		c0.639-2.814,1.47-5.31,2.496-7.488c6.27,8.322,10.686,14.625,13.248,18.912c2.559,4.29,3.84,8.544,3.84,12.768
		C378.618,272.687,378.361,274.352,377.851,275.888z"/>
</g>
</svg>
